<mxfile host="app.diagrams.net" modified="2024-05-27T11:58:29.866Z" agent="Mozilla/5.0 (Windows NT 10.0; Win64; x64) AppleWebKit/537.36 (KHTML, like Gecko) Chrome/121.0.0.0 Safari/537.36" etag="RHFpSXpDpYZ6yPTXcOpz" version="24.4.8" type="device">
  <diagram name="PÃ¡gina-1" id="jd7dcSk851gnjhWiaL1u">
    <mxGraphModel dx="5736" dy="3800" grid="1" gridSize="10" guides="1" tooltips="1" connect="1" arrows="1" fold="1" page="0" pageScale="1" pageWidth="827" pageHeight="1169" math="0" shadow="0">
      <root>
        <mxCell id="0" />
        <mxCell id="1" parent="0" />
        <mxCell id="OP0dDdMYu3jC3rHnwKs1-3" value="" style="shape=image;verticalLabelPosition=bottom;verticalAlign=top;imageAspect=0;aspect=fixed;image=data:image/png,iVBORw0KGgoAAAANSUhEUgAAB4AAAAQ4CAYAAADo08FDAAAAAXNSR0IArs4c6QAAAARzQklUCAgICHwIZIgAAAAJcEhZcwAADsQAAA7EAZUrDhsAAAR0aVRYdFhNTDpjb20uYWRvYmUueG1wAAAAAAA8P3hwYWNrZXQgYmVnaW49J++7vycgaWQ9J1c1TTBNcENlaGlIenJlU3pOVGN6a2M5ZCc/Pgo8eDp4bXBtZXRhIHhtbG5zOng9J2Fkb2JlOm5zOm1ldGEvJz4KPHJkZjpSREYgeG1sbnM6cmRmPSdodHRwOi8vd3d3LnczLm9yZy8xOTk5LzAyLzIyLXJkZi1zeW50YXgtbnMjJz4KCiA8cmRmOkRlc2NyaXB0aW9uIHJkZjphYm91dD0nJwogIHhtbG5zOkF0dHJpYj0naHR0cDovL25zLmF0dHJpYnV0aW9uLmNvbS9hZHMvMS4wLyc+CiAgPEF0dHJpYjpBZHM+CiAgIDxyZGY6U2VxPgogICAgPHJkZjpsaSByZGY6cGFyc2VUeXBlPSdSZXNvdXJjZSc+CiAgICAgPEF0dHJpYjpDcmVhdGVkPjIwMjQtMDUtMjc8L0F0dHJpYjpDcmVhdGVkPgogICAgIDxBdHRyaWI6RXh0SWQ+NWQ0Zjc2NzctMjEyNS00YzQxLTkyYTEtMjhiODQ5MmVhZTBmPC9BdHRyaWI6RXh0SWQ+CiAgICAgPEF0dHJpYjpGYklkPjUyNTI2NTkxNDE3OTU4MDwvQXR0cmliOkZiSWQ+CiAgICAgPEF0dHJpYjpUb3VjaFR5cGU+MjwvQXR0cmliOlRvdWNoVHlwZT4KICAgIDwvcmRmOmxpPgogICA8L3JkZjpTZXE+CiAgPC9BdHRyaWI6QWRzPgogPC9yZGY6RGVzY3JpcHRpb24+CgogPHJkZjpEZXNjcmlwdGlvbiByZGY6YWJvdXQ9JycKICB4bWxuczpkYz0naHR0cDovL3B1cmwub3JnL2RjL2VsZW1lbnRzLzEuMS8nPgogIDxkYzp0aXRsZT4KICAgPHJkZjpBbHQ+CiAgICA8cmRmOmxpIHhtbDpsYW5nPSd4LWRlZmF1bHQnPkp1bGhvIGNhbWlzYXMgLSAxPC9yZGY6bGk+CiAgIDwvcmRmOkFsdD4KICA8L2RjOnRpdGxlPgogPC9yZGY6RGVzY3JpcHRpb24+CgogPHJkZjpEZXNjcmlwdGlvbiByZGY6YWJvdXQ9JycKICB4bWxuczpwZGY9J2h0dHA6Ly9ucy5hZG9iZS5jb20vcGRmLzEuMy8nPgogIDxwZGY6QXV0aG9yPmx1Y2FzIHZpbsOtY2l1czwvcGRmOkF1dGhvcj4KIDwvcmRmOkRlc2NyaXB0aW9uPgoKIDxyZGY6RGVzY3JpcHRpb24gcmRmOmFib3V0PScnCiAgeG1sbnM6eG1wPSdodHRwOi8vbnMuYWRvYmUuY29tL3hhcC8xLjAvJz4KICA8eG1wOkNyZWF0b3JUb29sPkNhbnZhPC94bXA6Q3JlYXRvclRvb2w+CiA8L3JkZjpEZXNjcmlwdGlvbj4KPC9yZGY6UkRGPgo8L3g6eG1wbWV0YT4KPD94cGFja2V0IGVuZD0ncic/Pld4zR8AACAASURBVHic7N150GV3Xefxz++ce5+nl6zdnU4gCWtAEUXAbdRRx8FtkHKrUhn3dQRxB4dhVNxKHfcNBhewcBB03AaRmgLRsVyQUUYtUFkCJARIIOl0kg7pZ7nL+c0f5/bTIXQ3Sez08uP1qkp1P+ee595z7u1/br3z/f1KrbUGAAAAAAAAgPNed7YvAAAAAAAAAIDTQwAGAAAAAAAAaIQADAAAAAAAANAIARgAAAAAAACgEQIwAAAAAAAAQCMEYAAAAAAAAIBGCMAAAAAAAAAAjRCAAQAAAAAAABohAAMAAAAAAAA0QgAGAAAAAAAAaIQADAAAAAAAANAIARgAAAAAAACgEQIwAAAAAAAAQCMEYAAAAAAAAIBGCMAAAAAAAAAAjRCAAQAAAAAAABohAAMAAAAAAAA0QgAGAAAAAAAAaIQADAAAAAAAANAIARgAAAAAAACgEQIwAAAAAAAAQCMEYAAAAAAAAIBGCMAAAAAAAAAAjRCAAQAAAAAAABohAAMAAAAAAAA0QgAGAAAAAAAAaIQADAAAAAAAANAIARgAAAAAAACgEQIwAAAAAAAAQCMEYAAAAAAAAIBGCMAAAAAAAAAAjRCAAQAAAAAAABohAAMAAAAAAAA0QgAGAAAAAAAAaIQADAAAAAAAANAIARgAAAAAAACgEQIwAAAAAAAAQCMEYAAAAAAAAIBGCMAAAAAAAAAAjRCAAQAAAAAAABohAAMAAAAAAAA0QgAGAAAAAAAAaIQADAAAAAAAANAIARgAAAAAAACgEQIwAAAAAAAAQCMEYAAAAAAAAIBGCMAAAAAAAAAAjRCAAQAAAAAAABohAAMAAAAAAAA0QgAGAAAAAAAAaIQADAAAAAAAANAIARgAAAAAAACgEQIwAAAAAAAAQCMEYAAAAAAAAIBGCMAAAAAAAAAAjRCAAQAAAAAAABohAAMAAAAAAAA0QgAGAAAAAAAAaIQADAAAAAAAANAIARgAAAAAAACgEQIwAAAAAAAAQCMEYAAAAAAAAIBGCMAAAAAAAAAAjRCAAQAAAAAAABohAAMAAAAAAAA0QgAGAAAAAAAAaIQADAAAAAAAANAIARgAAAAAAACgEQIwAAAAAAAAQCMEYAAAAAAAAIBGCMAAAAAAAAAAjRCAAQAAAAAAABohAAMAAAAAAAA0QgAGAAAAAAAAaIQADAAAAAAAANAIARgAAAAAAACgEQIwAAAAAAAAQCMEYAAAAAAAAIBGCMAAAAAAAAAAjRCAAQAAAAAAABohAAMAAAAAAAA0QgAGAAAAAAAAaIQADAAAAAAAANAIARgAAAAAAACgEQIwAAAAAAAAQCMEYAAAAAAAAIBGCMAAAAAAAAAAjRCAAQAAAAAAABohAAMAAAAAAAA0QgAGAAAAAAAAaIQADAAAAAAAANAIARgAAAAAAACgEQIwAAAAAAAAQCMEYAAAAAAAAIBGCMAAAAAAAAAAjRCAAQAAAAAAABohAAMAAAAAAAA0QgAGAAAAAAAAaIQADAAAAAAAANAIARgAAAAAAACgEQIwAAAAAAAAQCMEYAAAAAAAAIBGCMAAAAAAAAAAjRCAAQAAAAAAABohAAMAAAAAAAA0QgAGAAAAAAAAaIQADAAAAAAAANAIARgAAAAAAACgEQIwAAAAAAAAQCMEYAAAAAAAAIBGCMAAAAAAAAAAjRCAAQAAAAAAABohAAMAAAAAAAA0QgAGAAAAAAAAaIQADAAAAAAAANAIARgAAAAAAACgEQIwAAAAAAAAQCMEYAAAAAAAAIBGCMAAAAAAAAAAjRCAAQAAAAAAABohAAMAAAAAAAA0QgAGAAAAAAAAaIQADAAAAAAAANAIARgAAAAAAACgEQIwAAAAAAAAQCMEYAAAAAAAAIBGCMAAAAAAAAAAjRCAAQAAAAAAABohAAMAAAAAAAA0QgAGAAAAAAAAaIQADAAAAAAAANAIARgAAAAAAACgEQIwAAAAAAAAQCMEYAAAAAAAAIBGCMAAAAAAAAAAjRCAAQAAAAAAABohAAMAAAAAAAA0QgAGAAAAAAAAaIQADAAAAAAAANAIARgAAAAAAACgEQIwAAAAAAAAQCMEYAAAAAAAAIBGCMAAAAAAAAAAjRCAAQAAAAAAABohAAMAAAAAAAA0QgAGAAAAAAAAaIQADAAAAAAAANAIARgAAAAAAACgEQIwAAAAAAAAQCMEYAAAAAAAAIBGCMAAAAAAAAAAjRCAAQAAAAAAABohAAMAAAAAAAA0QgAGAAAAAAAAaIQADAAAAAAAANAIARgAAAAAAACgEQIwAAAAAAAAQCMEYAAAAAAAAIBGCMAAAAAAAAAAjRCAAQAAAAAAABohAAMAAAAAAAA0QgAGAAAAAAAAaIQADAAAAAAAANAIARgAAAAAAACgEQIwAAAAAAAAQCMEYAAAAAAAAIBGCMAAAAAAAAAAjRCAAQAAAAAAABohAAMAAAAAAAA0QgAGAAAAAAAAaIQADAAAAAAAANAIARgAAAAAAACgEQIwAAAAAAAAQCMEYAAAAAAAAIBGCMAAAAAAAAAAjRCAAQAAAAAAABohAAMAAAAAAAA0QgAGAAAAAAAAaIQADAAAAAAAANAIARgAAAAAAACgEQIwAAAAAAAAQCMEYAAAAAAAAIBGCMAAAAAAAAAAjRCAAQAAAAAAABohAAMAAAAAAAA0QgAGAAAAAAAAaIQADAAAAAAAANAIARgAAAAAAACgEQIwAAAAAAAAQCMEYAAAAAAAAIBGCMAAAAAAAAAAjRCAAQAAAAAAABohAAMAAAAAAAA0QgAGAAAAAAAAaIQADAAAAAAAANAIARgAAAAAAACgEQIwAAAAAAAAQCMEYAAAAAAAAIBGCMAAAAAAAAAAjRCAAQAAAAAAABohAAMAAAAAAAA0QgAGAAAAAAAAaIQADAAAAAAAANAIARgAAAAAAACgEQIwAAAAAAAAQCMEYAAAAAAAAIBGCMAAAAAAAAAAjRCAAQAAAAAAABohAAMAAAAAAAA0QgAGAAAAAAAAaIQADAAAAAAAANAIARgAAAAAAACgEQIwAAAAAAAAQCMEYAAAAAAAAIBGCMAAAAAAAAAAjRCAAQAAAAAAABohAAMAAAAAAAA0QgAGAAAAAAAAaIQADAAAAAAAANAIARgAAAAAAACgEQIwAAAAAAAAQCMEYAAAAAAAAIBGCMAAAAAAAAAAjRCAAQAAAAAAABohAAMAAAAAAAA0QgAGAAAAAAAAaIQADAAAAAAAANAIARgAAAAAAACgEQIwAAAAAAAAQCMEYAAAAAAAAIBGCMAAAAAAAAAAjRCAAQAAAAAAABohAAMAAAAAAAA0QgAGAAAAAAAAaIQADAAAAAAAANAIARgAAAAAAACgEQIwAAAAAAAAQCMEYAAAAAAAAIBGCMAAAAAAAAAAjRCAAQAAAAAAABohAAMAAAAAAAA0QgAGAAAAAAAAaIQADAAAAAAAANAIARgAAAAAAACgEQIwAAAAAAAAQCMEYAAAAAAAAIBGCMAAAAAAAAAAjRCAAQAAAAAAABohAAMAAAAAAAA0QgAGAAAAAAAAaIQADAAAAAAAANAIARgAAAAAAACgEQIwAAAAAAAAQCMEYAAAAAAAAIBGCMAAAAAAAAAAjRCAAQAAAAAAABohAAMAAAAAAAA0QgAGAAAAAAAAaIQADAAAAAAAANAIARgAAAAAAACgEQIwAAAAAAAAQCMEYAAAAAAAAIBGCMAAAAAAAAAAjRCAAQAAAAAAABohAAMAAAAAAAA0QgAGAAAAAAAAaIQADAAAAAAAANAIARgAAAAAAACgEQIwAAAAAAAAQCMEYAAAAAAAAIBGCMAAAAAAAAAAjRCAAQAAAAAAABohAAMAAAAAAAA0QgAGAAAAAAAAaIQADAAAAAAAANAIARgAAAAAAACgEQIwAAAAAAAAQCMEYAAAAAAAAIBGCMAAAAAAAAAAjRCAAQAAAAAAABohAAMAAAAAAAA0QgAGAAAAAAAAaIQADAAAAAAAANAIARgAAAAAAACgEQIwAAAAAAAAQCMEYAAAAAAAAIBGCMAAAAAAAAAAjRCAAQAAAAAAABohAAMAAAAAAAA0QgAGAAAAAAAAaIQADAAAAAAAANAIARgAAAAAAACgEQIwAAAAAAAAQCMEYAAAAAAAAIBGCMAAAAAAAAAAjRCAAQAAAAAAABohAAMAAAAAAAA0QgAGAAAAAAAAaIQADAAAAAAAANAIARgAAAAAAACgEQIwAAAAAAAAQCMEYAAAAAAAAIBGCMAAAAAAAAAAjRCAAQAAAAAAABohAAMAAAAAAAA0QgAGAAAAAAAAaIQADAAAAAAAANAIARgAAAAAAACgEQIwAAAAAAAAQCMEYAAAAAAAAIBGCMAAAAAAAAAAjRCAAQAAAAAAABohAAMAAAAAAAA0QgAGAAAAAAAAaIQADAAAAAAAANAIARgAAAAAAACgEQIwAAAAAAAAQCMEYAAAAAAAAIBGCMAAAAAAAAAAjRCAAQAAAAAAABohAAMAAAAAAAA0QgAGAAAAAAAAaIQADAAAAAAAANAIARgAAAAAAACgEQIwAAAAAAAAQCMEYAAAAAAAAIBGCMAAAAAAAAAAjRCAAQAAAAAAABohAAMAAAAAAAA0QgAGAAAAAAAAaIQADAAAAAAAANAIARgAAAAAAACgEQIwAAAAAAAAQCMEYAAAAAAAAIBGCMAAAAAAAAAAjRCAAQAAAAAAABohAAMAAAAAAAA0QgAGAAAAAAAAaIQADAAAAAAAANAIARgAAAAAAACgEQIwAAAAAAAAQCMEYAAAAAAAAIBGCMAAAACcFtvbsxzd2MhyuTzbl3LemM3mObqxkfl8frYvBQAAgEZMzvYFAAAAcH67+eZb8jev+9tsbW/vHLtg795cffWVufLKK3PZgf1n8erOLYvFIjfffEvefeNNufHGmzKbzXYeu+SSi/Pp//ZTsnfv3rN4hQAAAJzvSq21nu2LAAAA4Pz0j294Y97ylms/5HmXXHJxLr3k0hy87EAOHNifiy668Axc3dl3+PBtOXTo1hy69XCOHDmS99911ynPn0wm+eRP+oRcddWVZ+gKAQAAaI0ADAAAwP3ymj/989x6+PD9+t2uK7n4oouy/8CBPOjygzl48LKsra2d5is8s+58//tzyy2Hcssth3L48G256+jR+/1cj33MR+Zxj/vo03h1AAAAfLgQgAEAALjP/verX5Mjdxw5rc+5traWiy6+KPv3XZqDBw5k37592bNn92l9jdPlyJE7c+jWW3Po0OHcceSOvP/9d532vY8/4tGPyhOf8LGn9TkBAABonwAMAADAffKqV/9pbr/jjjPyWqWUTKfTrK+vZ21t/HP37t25YO+eXHjhhbnggr3Zu2dv1tamp+X1NjY3c/ToRu66667ceedd2di4K1tb29mezbK9PctsNstisTgtr3VvPOYjH53Hf+zjztjrAQAAcP6bnO0LAAAA4Pzx16/9v2cs/iZJrTWz2RheT6XruuxaReL7/hrJ1vZ2tre37+9lPmDe/JZrc/HFF+fhD3vo2b4UAAAAzhMCMAAAAPfKm996bd5943vO9mWc0DAM2djczMbm5tm+lNPu7/7u73Ng//5ceOEFZ/tSAAAAOA90Z/sCAAAAOPfddtvtOXp0I6kZR2Y5M2pNTc31N9yQoxsbZ/tqAAAAOA/YAxgAAICTms1mecu170ityyTJDTe8awzBGVtwOYvX1rKamrJ6d6+44mD27duXJFlb351rHv7QTKcW9AIAAODETAADAABwQj//gt/Koz7+C/Lvv/jpefeNNydJLrroop3Hj8Xf0nWRgk+Pnff0bu/nRRdemCR5y9tuyCd99tfmkR//lPz8r7z0LFwdAAAA5wMTwAAAAHyAF//OH+cnfvFFuem9t6asvjI+8hFX5cW/9ANZLpd561vfdsLf6/s+fd9nNpudycs9z5WsrU2zmM8znODr+e49u/Pwhz00SfI1T/+hXHfDjePkdTfJg6+8PP/lO74uX//Up5zhawYAAOBcZgIYAACAJMkrXvUX+dh/92X59uf8ZG5876GMizyP3nb9e/L83/j99H2fi+82BXx3y+Uys9ks+/bty+WXX549u3edoSs/v5RScsEFe3PVVQ/O7l27MpvNThh/k+TAaunnF//2H+cd1797XIq7Dkld5r3vO5Tv/P6fyxM+62vyR6/6qzN5CwAAAJzDTAADAAB8mHvt370hz/rBn8s/vfntH3C81ONLEg+rv/zYc56ef/PEx+S6664/6fOVUnLNNY/MdDpJHWo2NjZydGMzW1ub2draymKxfIDu5Ny0tjbNrl27s3v3ruzduye7do1h/Midd+bG99x00t+bTiZ51KOvyT+96e152jN/PElS65Ak6bo+teuT0qXrJ6np8jEfdU3+4xd/dr79G770gb8pAAAAzlkCMAAAwIepf37z2/P9P/Hf86d/+bcnPmH1bbGUccnhdCXT9bX8+k8+K31dZGNj46TPvXfvnjz0oQ854WOL5TJbm1vZ2NjIxuZmNje2dsLm+W4ymWT37l3Zs2dPdu/ZnV3ru9J1H7w/8nyxyHXvuC7L5cnv+4orLk/XT/K1z/jB3Hr4jiRJrXX8PEo3fjB9n6RLSpeUPqWUXHXF/nzf93xDvvJLPu+Buk0AAADOYQIwAADAh5lr33FDfuinfiWvePVfftBjpRyPlbXWpJSUJN1kPUOGpCs5cMmF+cUffEaOvv/OU77O/v37c/nll92ra9re2s7W9nY2NzezubWVrc3tcz4KTyaT7N61nvVdu7J79+7s2bM7fd/fq9+97rrrs7W1fdLH+77Lox/9qHz39/1sXv+Pb8rdl+NOkvGjKcmkTynjJHBS0nXjTk9DSR57zcPy3Gd+U578WZ96f28RAACA85AADAAA8GHivTffmh/7uRfmN3/3lTvHupQMSVL6LFPTJekyjHvSdl1qTSZdn0UdduLipOvysKuuyPd+85eklFN/pXzoQ67O3gv23q/rnc/mmc1nmc8XWS6X45+LRRbLZRaLeebzRYbhgYnEk77PdG2avu8zmUzS95NMp5NMJuPP6+vr9zr23tN7b3pfbr/jjlOec/DgZfn1l7wir3z1X63W4a6pQ91Zkrsmq9Hskr5fLQedpHRdhmFI19UMw/h5ffITHpMf+/7vyCc+8aPv1/UCAABwfhGAAQAAGnf49iP5mee/JL/6m3+Y+XwxBsVSkq4kpUuZTNP1/RhTa00Wi9S6TNf345LDQx2ngfsu8+Uik25cavgJj70mT3vq55zytbuuyyOveXimk+kDcm/L5ZDFfJ75fJ7ZYp7F/L7vL1xKyXQ6ydp0msl0mrW1B+Zak+TIkTtz440n3/c3Gad//+bv35IXvuTlxw/WOv537MdkJwAnSbouZfW5pJQMy3lKGT+/DMuUJJ//OZ+eH372t+YjH/3w035fAAAAnDsEYAAAgEYd3djML73od/MLv/Y/s7m9nbKaH62ljPvF9iXpuqSbJBlDaKlDshyyWCxSMqSsAvAwLDKUpPTd8ReoNU/+jI/PF33WJ53yOtbX1/KIRzz8A5aX/nC0tbWd6667/kOe98Y3X59ffuHv7fxca005wVf3eqz9TibH/pK6HNKVkmWW6bIKxMOw2ju4JLXmK7/08/Pc731aHvygg6flvgAAADi3CMAAAAANesFL/ig/82u/nVtvH/fpLaWklG4Mv12f2k/S9dPUOqR0dwuFy2VSa4bFPBnmqfN5lvN5Sl2mdF1KV8aYmJI6DKnDkC/47E/KU5506gh84YUX5OqrrzoTt35Omi8Wuf6667NYnHpC+Q1venue96I//MCDp1jmupak68eFu+uxCeAktS5Thnp8IngYdpaPHpbLTNem+dZv+PI869u+LvsuvfhfcWcAAACcawRgAACAhrzsFX+en3j+7+Q97zuUOiwzLhY8RsDSdUm/lm46TZmspZtMVw9NsqxDslxkWC7TD7MMi3mG+VYy385yNh/3BR7GfYAXi0X6lHGf4AypqXnSpz0+T33KZ57y2g4c2J+DBy87E2/DOWUYaq6//p3Z3t4+5XlvfNM78ssv+oMPPFiT1OEeB8oH/NT1XVJKlinp+klqranDkMkq/NauG1f8ruNS3svlchXxk0suuSjf861fk2d801Oze9eu03THAAAAnE0CMAAAQANe/prX5cdf8Dt52ztvSs1ynPhdJsOwTLoyxt5ukvR9+rVd6dZ2ZdlN0pUuXVcyDDVlWCTLRRbbm8kqANf5Vob5LGVZUzOk1mWyWK465Li0cE2SbpJPfuJH5Ru/9EmnvM4HP/hBueSSD6+J0xtueHeOHj16ynP+4Z+uzQte/PJ7HB2/ro9LQJ/il0tJSlK7Ln0/TV0OSYaUbpIhdWeb4GE5jEt8r55zWNZ0fUnXdbn88oN5znd/Y77xK77w/t0kAAAA5wwBGAAA4Dz2N//w5jz7p38j/3ztDXc7OoyTvbXLUJcp6dJN11Imk5TJerrpeupkLd3aevrJNOn6DHVIXcxTFrMMWxuZb22kbm+kzDdTF/MsZ4vUuhwD8DAktSapq8niPqWfpKbkox91dZ721M/N2trkpNd8+eUHs3//vgf8vTnbhmHIDTe8O5ubm6c876//9o35zd991Qcdr8fe43r3md8PVlPT9X1q6ZKU1KFmMunGj6kkNUOSkq6W1WdYU/tunAjO+HFO19Yz1JKPuOZhee4zvyFf+Hmf8a+4cwAAAM4mARgAAOA89I9vui4/8rzfzl/83T8lyfEpz539YocMKelLN/44mSbTafrprpTpWupkLZP1PenW1lPTZVhN/5b5LGW2ldnGXVlu3pn5XXdmkiHDYpG6nI/nJelWLzjUmtJP00/XUrouw3LIw6++PN/2lZ+bC/acfEnhfZdemisedPkD8t6cC5aLRd75zndlezY75Xl//CevzSte/doTP1jrKrR/aDU1pZ+k6yYpq6Wfk6TruiRDhlpTh3Fv4PSTpOvSZchiMaTvJil9n1rLaivoRZ74MR+Rn3zud+ZTPuFx9+W2AQAAOAcIwAAAAOeRd7zrvfmR570sr/izvx2nQlchtq72dx0PlZTVssClrlZrnq6lrO1K10+S6VrKZFe69V0pk7WUrk+tQ7KYZbm9mWHjaMowy7B1NIuj70+Ws9TZuC/wOE2adF1JTRmXJ56sp5tMkjL+nFKyf98lecaXPylXHrz0pPdy0UUX5aqrHvwAv2Nn3vZslhve+a4sFouTnrO5tZ0XvfSVecOb3nHyJ7oPAXhIHae502UYhvR9P342Jal1GBeTLuNn1nV9hnSZ9jWLxZDULqUr4yRxl9RhPL+UST77Mz4xP/rsb8ljP/KR9+UtAAAA4CwSgAEAAM4DN77v1vz481+a3/qjP0vSrSY7S459oeu67ATglC6ljI+V1NSaMfSu7RondafryXQ9/XQ96aepXZcsl8lyluX2VobZRsp8O4uNu1JnG6mzeer2Voa6OB6dS1JTxiWgJ2vjEsTpUkvSdX3S95lOJ/n6L/jUPPEjHnLS+9q7d0+uvvqq1f2c/zY3t3LDDe+62yT2B7vp5sP5pRf+fg7fduQkZ9RV9/0Qe/+ulIwBuHR9um6SpKR2NSVl3Pe3JKXrUks3TmyXLqXrx7WfSzn+DOOI8BiOuy5Jl3QldTnPU7/wc/IDz/zmPOwh7QV7AACA1gjAAAAA57DDtx/JTz3/pXnB//hf4zhvSkq6pDseeYfVpOf4Xz8eL1lNdo4zu12/ljIZl36e7tqdMt2V2nXpJutjHBwWqYtFhsV2htlWsrmZYXbX+PfZPHW+meUqDHb9dDV4XJJuktqVdH2fpE9NTfpxT+B0JUmXz3j8I/Mln/n4rE1PvC/wdDrJVVddld27T75k9Png0KHDOXTo0CnPefVr35jfe/lrkmGRctKdfVfT3B9i799jSq2ppaSWkq7rxsnsLinp062msuuxvZpLyZDVtG+61VTwkGFYpltF59Rxgnyow84EcWpNGZZ5+td/WZ79Xd+YA/suuY/vDgAAAGeKAAwAAHAO2tjcyi/86kvz87/2smxtzJMyTpSWUlLHujdO32YMwH3f5dg4cCkltSsZajceT1L6PunXkslauuk0Zbqerl9LXS3dXIZl6rBMFvMM81nq1maG+WaG+XaG7Vm6LLIsSekmKZNJMqziZD8Zg+9kmiSr6dFJuulqL9rluKTwwX0X5av+wyfk0Q85eNJ7vuyyy3LZZfsfuDf1ATJfzPOed9+Yzc2tk57zvts38puvfF2uv/ZtWW6+P6lDTpx3xw+xDqvlvO/F649LPZdV5O1WS4B3WSbpSj9G3tVjfT/NkJqhDsmQ9JN+XPJ5WCSr10xdTQ/Xxc61lAzJMKTWmr17duc7n/ZV+a6nf3X27tl9798oAAAAzggBGAAA4BzzGy/7o/zwT/9qbl8tETyUZAyDNckY+JLs7BFbyrgEcMZHxzNLSWpZTXgmpe/S9ZN0/Voyma727Z2OAffY8st1yLBYpM42k9l2lovt1OUi/ZAsh+1xaenpNOn6sV+mJH2fydp60k9Sh+V4hf1knAguXYb5PLUm3aRPUvKpH/vwfNGnPS57d6+f8N7X19dz5VUPzq71Ez9+rrnt9ttzy823ZBhO/tX6Va9/R175F/+Q+Z2HM2xupi5nSerxz3En8x5/jjG63ne1K+n7Pst043LQXT8eL0npJ+Me0F2Xrh/3Ci41Wc5nGRaLlAwppU9djjF4qPNxiHs4NpG8ur5h/Ld4xcED+aHnPCNf/dQvuB9XCgAAwANFAAYAADhHvO71b8wznvPf8ta337CzdO8HqUlSVs2wJnVIyRj4Tnzy6oHVGtFdJinTtXTT9dTSp9ZhDJGrSeGdadD5YvyzDinLmpoh9Vi07Puk61NWgbFMpknpUusySZdu0qfr+rETbm8nkz5ZLRNdjQ4uMgAAIABJREFUl0N2T7t8yWc+IZ/6+Eed9L04cGBfLrvssrtF0nPL9vYsN9100ymnfq979y158Sv+Orccuj3D7GjqbGsMq6uY/4FLQJfcPQCXes8jJ3fsU661pnZJN50mZZKun6aWbmf6t5uMP6f06Sar5bqXi9T5PMN8vvonUlIXy5RhmeUwGxeLXg47VzgMw2pp6uNX9tiPuiY/86P/OZ/+KR93799AAAAAHjACMAAAwFl27XXvyrOe+7P5P3/9/3ZiXrlbAC71RIF3jIjdsaHM5B7rBdd7HCjZmSntarp+LV2/Pga9JF3XpVtNAve1Zj7fHoNiXe48y7Da03dc4nkttesy6ddSu9W11nnSr6Xr1lMz/m5dzlNKl3R9ui7jRPBikbK2loc9aH+e+lkfl4c+6MTLPk8mfQ4cOJB9+y69z+/pA2U+n+fmWw7lziN3nvScmw/dnpe/6q/yD2+8NskYTes4Mn2flHv5bb3Wse/XMdFnujZOedd+klr6nX2b+36aoZQx2veTLBdDUhcpy3nqME9dLscnWy4zLBfpS81yucgwnycZt3QehtXU+d0vYPX5P/lJn5af+KHvyaMe+ZD7fK8AAACcPgIwAADAWXL4tjvyX3/8eXnZH7zqg6Z9S8rOkrt3nwQdB4DrzpFTBeBS7zlheuwph6SbpJQ+pVvF5tSdfWeTkjoMKasCOe7r242Tv+nHSd7JNGUySdd141RpHa+r69ZW08A1dZil1HF56q4bjw2z7XG6dW1trJZJHvuQy/PkT/uYPOLKy074Pk36PgcOHsglF1+8E6nPtO3Zdg7felvuuOPISc+57Y4788o/eW3+6nVvOD4fe6zO3ht3+6Dv29zz+ItDakrfZzJdS+2m42R2P91Z6rt2x5Z/7scp4GGZ5WKeYTFPV5cZhkXqcp4shyy3N1OyTF0OGZbLJDXdsfu453LXqwB87N/bt3z9l+b7nvUt2b/vkvt0FwAAAJweAjAAAMBZ8LMveEl+8pdenM2t7STH93zdmQA+xe/WnVnPnayb1Rzvzhl3/2lUdsaIhyxXS0J3O3sIpxw/+4RfE/tJSj9JqSWl71On0zEE15pS+nEJ6X5Xuq6M0XcxG5eQXj1f3/dZLselhvuuS1lbPx61l4uUrs+jH3pFPvcTH5OPesSDTnjfpZRcfMlF2X/pvqzvOjN7BB+5887cdvj2bG5unvScd914c17zF6/P617/z+OBWs/o0tU7n1ffjfs095N00/WU6XrqZFzuu+snqV2X0o/T2KV0yWw7daipwzDu/7xcJMvNcUno7c2UYZk6DBnqcif61lp3/ueEstpf+u5bGB/76969e/LcZz893/bNX3HG3gcAAABGAjAAAMAZ9MZ/eWv+0zN/LP/y1uuSHI93O5O85fj+rx/aPZcV7k5yPDn2jEOORebyAcdLGV94qMcnPccloMd4O5QuZbI2TgJ3k5RJ///Zu/so29arrvPfOZ+1q869IQQVAaMgRhsb0RZsbJu2W9t2dOtwiD0cxKHtCy8C8iLRYYSQBESCCSQQQgSE8G4QjEhM1DB4CwFMBoIBBOQdJOkIAZskJJLk3HNqr2fO/mM+a+1ddeqce86pOqfq3Pv7JPvW29prPWvVrjvGvr8158TMsKj5stkatnmoZsZGEPMRlkGM1sdmhmWQ0TGvNtKRI3wkKly2CeYtv/U9D/jfPvSD+F8+7IN44hMeOvXMNwcbHn74Yd7jCU/gCU94AtPUbuuKPZpHHrnG1avv5l3vusrVq1dPD8OBa9eu8/of/zl+6Ed/il98w6+sAf5y3e737OLMhGZY2zAdHNKtYZsDbPMw7eAQmyastbValzQiOwl4JNY7/eg6OT9CbI/weSbn6/S55kCvx8Aq+I3lxoFxfAwibnjd/g8f8kF8/Vc8jw/+oKfcx6shIiIiIiLy+KYAWERERERE5D7Ybmee9Y/+MV/1z1557PvVOneviHIN6Pbqec2wm7512//+XikmJ7dfkrqA9LXiNzNwM9Ir7A0Dt12YGhF4a5gfYJsJWiNaA280a7gZkYZNDbdNPafPZMy0DPpSWZwdYsbMMW9kj1G3nGQGbTogs5HzERbbMUM4+bAP/kD+xw95Cn/w970/Vw43N72+09Q4PLzClSsHHB5e4eDwgGaOt5pt3Ea1cvROjySi0+fOtevXufbINa4fXefaqMa+mXdffYSf/rk38uM/85/54R/72eO/hcg7bNt8a7tm3I9u7RzthrWJdvAQ4Y4fHMLmYfzgCrbZ0DaHYEaPen01n+tazDMcHZHba+T2iOxbcj4ijq5XdfY6v9jWEDgzcIy0rBsKrEHG3uvUgVjD8L//aR/L533W087xComIiIiIiMjNKAAWERERERG5h+be+fbv/nc84x99GW/+tbcc/+EIf+9UsnZzPrXSdK3c3YsP17d+tmvfu+5t9PHtVvNq9/eY4xg+XcGmiZymmivbptrPaEZtbcK9rcfqvdO8gYFlrqGwe6NHQHbMnAgqpCWJuebP1nH7uubsHUv4g//d+/Oh//0H8KEf8nt54ns8fOcX7i684U1v5qd//o385M++kTe+6Ve54eJcprfUzUifaNMGO3gIO3wImw7x6WC07N5grRFhGLn+/vrRNZivE9tr5HxEbrfk9gjrR6MCuG4oqPbPbW04vn7P7Fj7Z5b51cdemsYH/u4n809e+Fn8iT/+P+3mCYuIiIiIiMi5UwAsIiIiIiJyD2Qmb3zTf+G5L/o6vvVV33vDz+BOWj2f2DcVANvYB+Prm725W46zPM/dKyTuHfPRxzfHurxa/PYI3Kt619yxzRV8mjCvWbKJj5/nmDvbCBoN2wsIlwUHMc8EfbSCrn3WqryqiOctfXsEBBaJOUT0WtdoE03vNZ+Wmff7be/FBzz5ffnd7/++fMCT35cP/ID34+GHrtzF1SxH2y1vees7eMvb3sGvv+0dvPFNv8rP/MIbufrILaqCL1kAnG54O2Q6OCQ3G2JzwHTwMLY5IFu13V4CW8dIHxXc2+v069eI7RFsH6EfXcfmbVViRyd6r/3nMqF6PeKJBSyfjID5BoYZ/JWP+rN87jM/ld/1O598/hdBREREREREFACLiIiIiIict7e/4x284ttew/P+8T/lLW99+7GfnTX8hdPbA2dW9e6x7ZYq4SUAziR9t01E0FobM12XjYNYQsI2EVRgbJtDzBtmIzzGCDOmgw1YAxyfNkQERMfd6X0LUdW/vizYDWh485obi2HRyT5XK2IqeI7eMYKYO5lRQWufYd7S6Xic/lb24YeucHiw4fBwUx8PDjCDJ7/fe7OZJt79yDWuXr3Gux+5xruvXuPq1Ue4+sg1rh/Nj3K1F3uV0zdZw0VJA/MDpoNDYjORmyu0zZX63R0c4NMBZNJjrivvE5kdi8BHAJ/X38V8/RoslcAxrxXlNob+rjcQZNQ1WF53Nv6RMKYC39TveN/35nOe+Uk89S/8WR5++P5Uc4uIiIiIiDxeKAAWERERERE5J0dHR/zyr7yZF33Vy3jpv/xOIG4IwTITP+O7sGXC76jdPX2bXGaz2n5kuYbC7P/MjBwThzOCdKNNU7V29hEQ+1TbmxERmDvprapNreFtqtB33q6zYCM7eTQTIxDGDdxxn8C95hFH0OcjLJKMXpWpmWBVoRzzXONkM2E+gnle5wMfb2V9f2Xc+Lu9aFmpLrQN0+FD2OEh+CG2OYCDA6wdMG0mYgTXDmznLd7nMfP3iJwfIY5G++ej6/U74nj1r5nt3chwsir4+A0KOZ5/s9/TJ37MR/H3P+1j+J1P/h1rxbmIiIiIiIicjQJgERERERGRc3Dt2jV+9Md/ime94Gv5sZ/8ebLPnKyCzMhbhrZwenXvadvsV/feuEEeC+n2uTtLsW8uM4jNCAybGpaQZpgbmTBtDkaRp9e0X2+kGd4cmw7AN6QZrU0QY27vCHaxJOalfXCFxu4NzEeR6Gjp3LdLLXDNBe6BEczb69A77kZkwLyFPlewvT/T+F45kW0uRdZr+Hzvjnx3jBHaO374EHZwBdoBfnCItfo9+eZgjOc1MCe2R2Tfkv0I+hHMW3K7hfmI+ejamBVc5z6mPWPmsLT5Hq3DlxsJYK/K3exRA+BM+KN/5A/wxc/9dD7sD/8hWlMILCIiIiIiclYKgEVERERERM7o6tWrvOrVr+PZL/h63vobbyfnuQK1E+wcWgbHiRzNToZuAHF6ZayZEVSKuQvpGs0bQY4Wwn4swIMGZlir0NbbBtpUs4LbhsQxb7V9zix1yRX+9Vpw9rVF9TJzOCOIPlfAm+BToxtVHT1vyUz6aENsJNGPILJaFp/5Kp7NZQ2AY9w+4N6w6RCfNqPy9xCbDrDxe4u1TTPYMlt5PiKjrndsZ9heq9bdZmMG871SC3mf9/4tvOgLPoOP/LN/mmma7uHxREREREREHvsUAIuIiIiIiJzBPM983pd9I1/+Df+WfnS9ZqZut2Rub9j2bls/r/HbsWrU/ZD2uMzEzW6oyGytVWGuO1HRbQXKbjXLNTpuRtiowjTHzLExJ7gC3In0Vq2hvVUQbEtoXCWzZj7mCidJJ3us7X3dG33e0vtM21/bZqJHYJFE31bo2Gesz0BnPjoa1c6jJXHcurL0Vm517W77+ZcwAF7afsNo4d02MB3QDg6x1khrWPMxs3mp3M0K2WPLfHRExlwzmeeqzF5bcrPf+vn4mZ9+HXM9xvHn3trnPOOTeObTP+kur4CIiIiIiIiAAmAREREREZG79q6r1/iYT/9CvveHfqJC3+11+rwdoWXcEHid2q6Zaq1bhbl2LFpbNs9bBL/7wVruzcQ9HrgZho8K4FHlO45gbnX8qLm9mUl6o42WwW1UY8Z4vjcn8AqHvap/k1znAy8BcEZUlW/20Ta45gm7Ob1vyXkLmWSCN1uiY/p8NIJoyLmP9sQz81xhpJ0xAL7hd7IXku/v62YhcYW/VGvkS+LGt/UGzcEbtjnAp4Mx57kCeHcnzUb75qAfbfGcqyI7A8sge6/H3r6X19TtXPNH+08NSyv0BGK/hXQmH/nn/hTf8g0vurOLICIiIiIiIisFwCIiIiIiInfh59/4Zv7a07+QX3rTr9Qc1e0RmZ2IGZu3a3q7HyQeC7oWa9VmbdPy+Izf2oa16PK0YHKdwYotGRrm43hmgK8VuADptXVE4Bn03o+He23DtDmEaQKMiHm3Dx+VxdZq7q95rTWX9tG14OxztWu2ae95U61/XKO5b0cw7bWDDHLektnpPbAILDpQQWRmjq/3z/n23ezt735YfrJS9bRQ+LIHwDnmOps76VXB7a3VBN+ExOvn5jWbOYOMLREdT6sq9h7Abpb08trYXZ+TQbqfWMOtr8+tJv0G8MG//ym8/BtfzO/53b/rtq+DiIiIiIiIFAXAIiIiIiIid+g1P/gTfPRnvIirV68S83ViewR9rjbK2cmYRwp3SjgHp1b5cuL7Fb4tn/rtB8BerZeXMa9LVe6yA3cfM4A70XtVfBpEJDYd4JtDcB+tgis8JhL6tkLfzYae4NMGbw3YBc1hTrPc23fivgEf1agJfd7inmRPemyZGHOG6fT5elUimxE9YJ5HpXAHsqpWo2YAVyWu3V4IbMvv4oyzbPd+WZep/fNpAbAtY37NKgD2CuuXlQfJuA9gzFie6b3jMSYJ7/6xHmNX5X3af0Y4pVL6jN7zSU/km7/mC/nTf+KPnXlfIiIiIiIijycKgEVERERERO7AC77qW/iCr3k5RED0qvztM9l7BZURRPQ1AL5ble8u+/AbArUlAI4RmK6tn2kkfWzk42f1k/EEgtyr6lxaTzt2cAitQZtwg3nu+GhNHX3Gpg02HYy5v41TImvMklzO343mG3B2LaHnjrUKlusUo6pSYyZ7zU1ewuOcR5i+3/Z5BMDrdbjN63la1eodyxPh/S3aId882D9/N3tbH8u83uV37FZhPNV6OyOxpRFzxphrfErF857bbbl9Hv+pIce6n/+5T+fv/K2/dub9iYiIiIiIPF4oABYREREREbkNVx+5zsd++gv4zte+vmapAkQntttqXZzVrjgz1/m0Z5drBe/NWhRDVfVWtW8bc13n8bw2KkGrzTOZuO0qds0dxjxYw/HNBvNGT2hu0PuyjKrgnTaEGdZ8FwSOObKZdU1yhMvrLGB33LJC3aiA3H1TM2rxCnj7PCqnYwToNY+Y6GT2MSM5oEcFxnVl1n/e1pU841vfpcr6ZEB6WiCamWsL7yXHv9NZxbe7ptvbbsyZtpPrsBH63t1+T9qfp3weqoK59vtXn/rn+bIvfBYPXblyLvsWERERERF5LFMALCIiIiIi8ij+y5t/naf+7c/j537x/yWz00Zi1rdbGDNrgb22z8F51X2eDA53QfDS6rfC23Cj2agUHm2d11bQo9p37Q08duDuZGuYN9xaBcFm9GXb3vE2VeVom6BtWPsGj7DbloUAvoTBZqTVzNk21bTXnLejRTZYm8CN7HNVBOcWY7R9jgBiVFPnCJdHRXHGWoV7uwHwuYWRyzneYQB8smp4392Ewssxc32t3XwNp3+/wmDD2P/xrW4wuF1nee6j7hf40D/8B3j5P/1invx+73PuxxAREREREXksUQAsIiIiIiJyCz/wwz/JX33a5/GOd76rWhjHjNOqpfG8xWJeKxVv9+3Vyfm9p33/5PbHZ/8maVmzganK31xm/sYICEfr5Mz9lM9Iy5oTbI55PWp28LRrK51Bw6oSd5rAHZ82xGgpTZ+PVTmvVbExE5l4m6AdgDneIHsQ2xmzWi/NIIMY14/ogJM9KjztWyoErnbSNto3H5+dfP8C4HUftwhzL8qt2lDfTFD3AdiJS1Njf+/uemVm3VBwzv+JYX3tV69y3ue3/zZe/k9fxId/2Iec63FEREREREQeSxQAi4iIiIiI3MRXfuMrecbzvoKMwB0yKoSqmb/zCMvurN3zzdrknh7ixfhZW2f9LmWb5k6MONLHLN+lTXHvc21D1nZpuE+YOWHLLNwkzSGhtUZQFcHVbjpGWFuVv601whxstLfue/sYLZmJ+hjeYNrgPuHeiEiILUbW9SOr3TMzOXcsISLXecCZfVQC1/W1DO6k1fO+M7d9rp1cyuAXOHFTwPnu8zJZQmAzg1ZtxV/yRf+Aj/7Lf/6ilyYiIiIiInIpTRe9ABERERERkcvoc7/46/iSr/mWCv8Soh9veWwsIejyz0d3q6Du9ErOpaIy8dZ21bxuVZWbuVbHRq+wOMb8XXdfW+cuwWp6kmlYdDpJa17tmDFaq8A3Itbq4KoMNuYcnZ+X1tA1+JdY2jVTAWnAWlVcgfkMcydzZolQM5OIjo0K3xry2qtdda/Wz55VhWwXHEaOuPpS2g9qL2Noe54iO0tPbaNmTX/KM57L1WvX+OSPeeqFrk1EREREROQyUgAsIiIiIiJywt/9nBfx9f/i28d8XaMvQedov0zsKmxJyNsowDyt7bONmbs3DfBsba5cwa0ZYXXkmtFbLalH9Lq2WDZrldW2VmG11Qxgi16dlcexI2CaHHMjMHrvbFojxhp9muijurgqeIOc53X2sFuuCWmPWNtIZyRJr7bP0Wsmsi0tmw3PGAFyjsC3E70TfV5D3xEX731+Z84zFL2M1b+PPwGj9ToYOPz9z/4ifvM338UznvaxF7w2ERERERGRy0UtoEVERERERPZ86jO/kH/2iu8+9r2YZ7CacRoRWJ/Xdsu384bqZuHvMtt0P2BcjoHZWoWbsasOzlzaLicZgOXoCl0BMd7GjFevttCR1bI6Y7eWsV2bDsjla6uq4YwgMrHmeNuQOG5G9C3ZZ4ylMtareDdjrYX2aVMtsjMhOrnd4mZ1DCAzcGwEv8t83w6xJeZ+7Br5GVPXc5v9ewnbPz/e3sYnMe4fGK85dzAnSZo7T/ukv87nf9bTLnqZIiIiIiIil4YqgEVERERERIaPf/rz+Bf/+tX4VG+VkoQMzMfs32Xk72gDfafh78mvbYRYuX7NOG4d281HFTKQo9o3k8xega21qql134XR1XuZauc8E71aKS/VzLiRbrQxExivUC0i6H3GzEZr6A09KojtIwCHEf4mpAVGq5bOo1o4swJho0Jni2QmaNNU1cPRiVH5W6upMDvn0Q56CYrtdqP1051sj3zXM3IvYc76eAt/gXrdZu7OPQJrjeZGZPLir/5mrh3NvOg5f+9iFyoiIiIiInJJqAJYREREREQE+BtPew6v/M7XAntVuNlZuhebG9krxKzgclfJC8eDudMCx/0gcve5keTaCnq/HXQsge2o/s2oOb4VjQZYw6ytM4nZe34sLarH17aE16229zaBt7U6N2MXwKbZCMAN0nch7XJ+ZhhV9WtZbaFr7u9Ex/C+Jfpc3++QbS/AY8xRjtGSmtrvUlm8z84pAD6TuHxvlx/Pb+HXvzlPEsdaq9nYOOaNj/krH8k/+YJnXPAqRURERERELp4CYBERERERedz7qE94Jt/9uteTMdogZ0LECFpHBW4E0fuoruVYWHsy8N2FrjeGvsdm/u5VvJp5tbbtFYqaM0LfapVc6xrHNUjz0eZ5NGROW9tDc1pAbYZ5w7xaO8f4/lJdvI7zbY00x5f20xm7NshmoxK45g9n75h7hcgGpJFHRzV32A2bk2jLVanr5wbEWGeOfZzyO7nbAPi8Wj9nJn7pmj8/6AHw0iz8Tp81bobY34/Xa9+9MUfg04TZxP/z1D/H17zwWee2YhERERERkQeRWkCLiIiIiMjj2v/9sZ/B9/7AjxAkZm1Uu1aIalYtZjMTH4GlJRXAnqj4Pe3r/WC4AtV1AxjtmDHDKj3FItd2zPQlxM2x2QhyoVo/J5C78LTG6o7K3JOBNIyq3wp1Y7/dcgZEtYym+Vhe41hYt3RkzhyV0QExY1mBdo/AgOZGz9HUOus467UZ51JttHvNMc7g5ErPErmeSziau4z7Eua/D6g427XMk7+Mqsa35kR03BwfFeb/4l99B0fzzEtf/A/OuGYREREREZEHlwJgERERERF53HrqJz6L73nd63FvTDbVfNzoFVqObdyqDTNRYSd2Y5Z1avBoN9awjuJXzBs5Qt022kBHJGnVinlpMW0nQmNbBvDCaJ/cR+DbqjjXfHfsTLAgc6kYrmdV1eSuKrmytRFEm0ObwDcY83qsZfEZI7SNqHDXK6z2sYvt0RaDUc1s2OREzHvVyIyQ24iIZazwpVKtqU9v433RHtjq3zNeynrdB+B731tuiLD1xoT0xDP5V9/2Gh66coWXPP8zznZgERERERGRB5QCYBEREREReVz66L/7HL7z3/1QFcVSAZJ7W9so26jEbW0aFa4jLCVvrLDdq6iFyrv2Q8SlipjWqpmt+ai87XRGVXEkvnx/nQmcBGC5VOaONs8xVyCLjVSVmrGbo8iXCny9TWQP3JdW0SPETmpO71KlbIa1Dek1S3VtIR19zO4FRmCbvdMj8Ob0UZg5mY322B1wSMieRPa11bOPa9JjxoLj4W/mqcH67TqXts/LOi6pBy/8vbt2z6fuaXmd7oXA9fLsmIO1cfNCWhUb95l/9i+/jfd6zyfw/Gd/6rmsQURERERE5EGiAFhERERERB53Pu2zX8grvuP7MYzeO+6jKneEnbZUqBpE9L3K29Nn+jKeszx3CeuWr80cb05kVfo2S9yCiDFTeFTuhgGMWcAGQeIJ5rWeHGuq8HdX8RvAZM5oAF3nYRCj2hYfg3gziZ60kRLbCIatTdBqNjDUOdM7OQJgABshdlLzfTHDzUizcR6sc4OpMcm4e60BG/OMR9XvydbPZwh/z89SWX35PHjh73BOF9PwpYQdLHbfA+puBqvq3/2bFwi+/Btezns96T155t/+6+ezEBERERERkQeEAmAREREREXlc+awXvIRv+JZvWyt0zRo2KnOTTmZnSa7MWlXbZhwrZjwZ8kKFdLEfCjcflcHL3N0KUWuWcB9tpWNdA43RFrqt1cQW1eY5+na0eTYgRttmX8Nnzxzh79LWOWnm4LUGdyPTKwv2sWh3Aqe1Vmu1VtW+EVh0iF6h7xKo5ZhNDPjU1mA7I5h7XyubAYIxV3gdprusbWlxvTjbzN/lfM/F+RWsyn1isP5tJpDWgd3NGbHd8vlf+lKe9MQn8Ckf/RcvcqkiIiIiIiL3lQJgERERERF53HjhS76ZL/36f1mVqjEqPt0xlrB2V93rIzy1rBbOTlX47ubZ2rp9jO2t+Qg4bZ3Da6OldI7wFKI6JY9jwwhyx7Egah4wiUUFpGtlbT3p2DntWlYvrXGrDXNmVotcMyKyljoqf3PMC5685h5HJq1B9hn6qErOXMNaw4gM9iueqxV1JyPwE2tq5mRLYp7Bq1zZiBEw767zpaq2Vfj7YMgTr5plPnD9H3Ovl27v+LQho/Ps53817/nEJ/DX/uL/dRErFhERERERue/80TcRERERERF58H3Dt7yK53zJ160VsplJj1grdIlR/Won5u1mxyzXiuElGF62WR45fmbuhFHhbeQIPmcyZ6p6NysU9QZrVe+uctfHbGCLjlu1smUJn+uoJ9aXYEnVAPdqp+z19Trf1wxzrxnHbnszgSuUbe5k7+Q8Q5/pfdf6eTnXoIJbd1/D0txLTdfPoq5Z9i1mUVXDmePj3nzkdSd517N3z6v6N9eg+/K5V+2fH6i20ha7x96r5/gY6fpOjr+xpdo+otPnLZ/y7C/mX3/X6y5k+SIiIiIiIveb5QP1rk9EREREROTOfeurXs3f/PQvWL/OHHNEzWm+ISKJPIIIMg1rTvbARhhbQ3drUK3tpYRpVnN6vVGzd4O1l3CCZYxQtypwwx3ScZ+ImElGMEsSfQYST6f2sps3vIa9gLutVb31wyB7gNc2blO1om51HKxBa1UZGTV7N/eCa8wrSOszRta+OBEwj/V4a9X2eQlt98J0M8PiiA6E06fZAAAgAElEQVRVLRx1x3HGTEbfhat5PkHrWd7K1lTi8XmcvQ31vXJv367vX4U7fR4nnru/r7hvSfpp16dudJhInDBjc3CFbsa0OcDcecXXfj7/x0d82P1ZoIiIiIiIyAVRACwiIiIiIo9pP/ITP8v/+Zc+jdn2AqrBbcLMiQgit9XueZ3Lm9D3WjenjdbJ9aUBTI2lhXPEEhbHaPmcIzBeKhaXyltfZ//mMr90v630sL5R22tNzbGf7uqBl9m8tb6puuS60aYrdbzR+nk57nIFfLSgzqy2zxa7MHf/reLyPdxwb7uq3t7HuqtltffOPML1hpERxJihfJ4B8Hm+jX18BsAjpM27aQpWFefHnxvsGoxdcABshvlUlf3La3/a0DYH0Cbe8z2ewOte/uX8nvd/v/uzSBERERERkQugAFhERERERB6zfu3/eysf8ZEfz1ve+nba5hA4Hhq1NtWs3BhBJtWy2LLaQScV0C4VvjBGkEYn3TBrtaMIGNW+NgJgs2kUDo95wAbNJqLPWOaYsxs4I5A1r+0i1lbLuypcgF0wW6F0HAtrbalCbl6Vut7AK+BmzCBe5hjHmAHse8HwLug+Hvyu1b3N1+rfzBzV0ksIvVQ6xxpG11zWqGrg3IWsd1t3uu883saua7+k74jv6Vt1i0ffZl0IHJseZbsbInZzqeP0wuD74PQQ2DGfqh17BL45gOkAP7yCZ/KUD3x/vu9bXsyTnviE+7tYERERERGR+0QBsIiIiIiIPGZ9xF/4BH7q598AYZgvydTxj5kV2K5JYNb83oxlZu+oKBzPN6q1cx8bWyRkP35gM8wP6vl7pa/Wk8ilHXIFaFUgbKPQ18YcYiOP7c5GMLsLq3c/pNo42whoR7DrbVRBkmTUTF/Da3sf1ZGMYs6ldXVS2+3NJYaqFI6xjogg18pfG/N9Z8wg53mcQ9+12Y6aY2znlAye69zfS/xu+N68VR+V43fyqzgWAOfxxDz9zsLku3BqdfxtXBvzqeZ1M2Z0TxvawUO0NhHAn/xfP5x/+9X/6F4tW0RERERE5ELdTb8nERERERGRS+9vPO0f8tO/8EYirSpeHXJU50bE3hxgw9tSyViBbM3adXoGNrU1/IUlI60gNKKT2bFc2kb7mLlb7WZpE5YGPWCesejVDHpU+GJGJOs83/1ga3/+b/QtmSNUjawHjHU13Bp4w6eJqW1wa6MiF6L3NeCNnMns+DL/FwiWucUcCwZ772u1b6wtq/fCuDUIDMwSi1grik92rN4Pfy/TPciXaS33hd1F/+1bbX+fwt/Tvxc3PPa3rr/xcVMFgUUQfUuMv8Hv+/f/kc9+8Tfd0/WLiIiIiIhcFAXAIiIiIiLymPNFX/FNvPK7XktG4hjNnCqCTZLAxyxbH8FuBhitwloAgzmhTVdY3zb1eTyuE/06HjMtAjeD6QCsrdWGngnzdZi3ZN+uFcIxqn2DpGfiZjT3td0zLMHvqEDOPiqRd+2Y8ZrFi7URNjs0x6nW0JGdpNpG9zjCGPN30/G2obUNge32txc+H2spvaynNcw2xGhZbSOAqw7Pow46jTlG2+zoVcUcFQofr2U+Xsl5IRKIqv698LWcYv29nP+e7/6pFuNxuQNz2wuDjSB6J3r9/fTx99sza2KxG1/60n/FK179gxe5ZBERERERkXtCLaBFREREROQx5dWvfT0f9fHPBrcbgrRq9QxT26xB2/Jw91ExmKOFca+AcO57+9kbdGrGMtnWRoBro6o4ItbqyGqxPJ7ljczO0v75+NrGrN2l6jb32izvs/Fc8zrH8e2lqjexOk5wrEKztQ2JV/tnxqIiyL3Zwst61zWN9tKYYRGQfVQDU+1/Gefbqwp6bf0cWcGvnU9meJ5tn++0A/L9du/eouc9D3Dv739euFn18f6U6Ya54+Y1i9sbbK6wOTgkp4mwRtsc8D3f+AI+/EN+731at4iIiIiIyL2nAFhERERERB4zfvYX38ifeuqn8q6r210FK0Dm3ixew5uTMeahrrzCy6ygk+j03nFszZOqPXQCE95aNZ1dQs7ICo2ByMRtTX3XVrSLY62esdrnEsCOitywGKGwr3nxEtRmVphcazJir3rXzPFpqn2MtszRk7bZYN4IczzHHN/leW7Lye3S6hFq96yY23ofs35384ErUE1Y5hLHPK5Drq2uz8O5vm2Ny/sW+J5V/t6nyt37858XHq3t9PJzZ/9GC2+buplhOmC68hA2TYRPeJt47/d9H173TS/gd7z3e93DdYuIiIiIiNw/agEtIiIiIiKPCY9cu85f+lvP5t1Xr7ELdnMEtsXMseaVcy6VtOsjMU8iZmLeVhtj2D1/bG/WqmUzWRW/vZN9S8Z2V0U7/llf3ljpOz4Z3WoT6zFm7Va72lgD5zae79WiennUQGMskpw7ROLTRNsc4NO0a+dMw3Bam9ZztiVsXk9rF+juwt/dmh0gg95PBG9GtXhe5h8Ta1tls5u3V76xKjtPfdwL1QL8ccZunC/92LYLfWv29ajEJyGD2F4ntkdVtU6Qfctbf/1tfPRnvvjiliwiIiIiInLOFACLiIiIiMhjwmc+98t543/5VWJUwq7zffdCPzOjtQZ4hahYVb9CtS+eZ7LPFfyuFbW2zuitPNfGrNtqeTyGC48QtI7UzIk0Mm3dV/Q+Oi9XEDUOOvazzKT1ZaFgjrmPVtNJRM00zaztiRjtpQOzrH7NaRA1k3cJYjHHWxttoZPsnewxQtoR2GLr2pazqIrprJbU2z6qhNuunXVUtXS1fO5r5W9mHou894PH5fPbCXrPOwzOvdD7MrqXAe29Dn/vZWh/+2zv4/487dKj/kabGTEf1U0ec1Xs07f8yH/6WV7w9a+834sWERERERG5JxQAi4iIiIjIA+87vvcH+YaXvQr3qWbdZtJ7XwNc8/q4zAV2h4yZjE70IPpcFbxzH6FqjuC1wtNkr1I2gsxORD82bnQJlKHC08pwrdowjxC5WkxXC+el4natll3C0WWtjHbPMaoYs0P2Cp2zA7nO6E1rI/A2DK8QtxaNudMZoTBjli9LuHqilTPjOezNIu792BvHTKDPdR1stNFe1jn2c2y/nC0gvJ2K4Ud7/n5l9mWc/3th4W/e+Lj4IPdmklu3f77VuusVHBFEVPtziz5uwEgyZqJvef5XvZwf+alfOs9Fi4iIiIiIXAgFwCIiIiIi8kB762+8g0/89OeRVlW9y7zdY3N2zci2wdqmcq4Ioh9hBIxAKHsHZqoVtK+Vv8eDxiRyhopUKyy1hrep5vDWwZh7X1tIw6gAjtGKdoxkbSxVuok50JaK3SXoqvbKnlFtoveDOhhppmFtwqcJcycj6GO2L2k18xdY3vpZRJ3zYqlsPhH6LQH0UtXLuA5LCFfnGnuB9skg9hKGiJdwSXAfAtfd8Ovda3kZdT2q1DOrzfhp/4ngtKD9Zp/fO3XTwlmenxnra9iAvj2CPtcjk+wzMR/xcc96Mb/5rkfOZ9kiIiIiIiIXRAGwiIiIiIg80D7u6c/lbW9/56jGrSpf88bm4BDzquDFvCpko0NUxS+ZRAZYjqfZ2N73WsdWwGmwVrj6idm+Fe7uqo3JxN3XnxFR1YZ9xmKpsoVOkm6EGd1qVvESFEfv0CucDkZ7aHbVq2ZjarEZ1upYfZ5HO2hbK3/TbN3eRwjWo46xrG1pmb1USuM2ct4g5qpy7r3jWFUgZwXba/Fv312j4wn12ZysIF6s1/mUbU+GlUvb5+X6Pd7UdTBI37UIz/2518e3revlZNjexxsD5JOf33tLdf3+mu/kN7ok3tXK3Mf86r49qkr+WNqYd978X9/C0z7vJee7fBERERERkftMAbCIiIiIiDywvvKlr+D7f+DHadMGRujqI8SNjDWONDc8q9J33m7JPuPkmGtr0Mas3eWxhmHzsVDRfQlKJ8wbZm03W3Zt11zRlJtBj2PzhGO0bd6fSWzmY51jfm4mFiN0pkLe5Wc1z3jXd9qsjYfVXGBOhLnjGESvgJjEvO1mGo9rkrl3Lahz6XO1fva9YJsEi75WU9p+OH6OJba1byByrX6uVr27x/LLtROPtVp6rZq+pKW/3O/Wz6cHv4/+/CVA3n+c40JvazFjHexXKp9WteynPBb1txnjJgsjiXkm5y3MFQIvbeFf9X3/gW/6t99/r89KRERERETknrG8vAN+REREREREbuoX3/jL/JE/83FVfepOeoW4nonR6L3aObsbrTW285aYY630rRm6AWEValJtmzMC92qL2zEmuzHv2p8HvLSMrta6fVSbGkmss3iXit1u0FqrAGoEqrd6S1YBcG3jS2vr0foZN/AJa46lg7fRlbquQ2Rg0wGeo731qA7O0Xo6R3gb2bE2QbY6Yu4qj7HA07Awku16jpDk3Mciz6/qt3Y3guZz2+NlFaP18vnbteu+9f4tjxX4nr6vE3up33Rgl+oXdJPX4DKMm6CC7JqQnQ7mE+FOaw1vV2Czgc0BNh1g7jx8eIV//61fzAf+zve9z+ciIiIiIiJydgqARURERETkgfQ/f+Qn8tO/8EYyobnXnFrAMomlqnWvXXC986m3P7a0SO4dYh4tofsurLXR5tlbtYddWynv2j5XW9mxzzEr18zWsCyICmOx8ZExNzdHVW4+anXqEgAvX9gIf701bDqoTs2Z2DiGmdd5wW6+bx8tbk+sPyLWVtV4VVcaRswzzjKFuCqgG0727Zj3W62kbQkZ43zfUmbk4yD8haRXNe1573e8pmwJPW9xNdcq8zs8xrE50g+E3bVYi4m9YaM9/DQdktMBTBtss8F9A+b8od//FF73shdc6MpFRERERETuhlpAi4iIiIjIA+dzXvi1/NwbfrnC0BFimtna8jeyg8VeO2Rf2x4vM3IrvIwx27ePfSxHGNvsz8c1GwHu2H6EoYx2xEtTWlg61u5m8WIVmfkyN3fME76ZXQvqvW3Wyt8JbEOmk+kYbVyDOl6Yre2wq/I314rfPoLx3T6rNHn51tLCOjLJ7Gt8GKPl81JZurZgPu/wNx8n4e/SNvyG6DVPPALsxOPUuPbk83KNO/cbP598QIW5NuL+m6wWCHw8ag033+f5PnLvcZb9+Li9Ye/Ee7Vad2A7H9UNDr3mAC9/3z/5c2/gOV/2z29yXURERERERC4vVQCLiIiIiMgD5cd+6hf43//y38XNqpWy2QhUITPWytZl9u/SEpkMYu6YjSa2kVifyZyPhY6R4N7WAHitlK1BtOsMWl+OCyzhq9nSdbZVgGrVSnppq7xWXC5Vmjfpo7v8vCp5d9v41Eg/wH2qucA9cPO1StjcoVUgnJlYdKIfr/7FbRfcuo121XW0mDsWVWpcFaqJWQXHnpDRaWYjSI5zDWvXub+XzliULaHt2c66ct/9ulvf/eR2LkCeUtU7Qtn9t/d+bFc3W/Nuoxib+aX6HeyH0ifPYb859e3/Tjq7+z/MGr5p1Ra9bfCDh2CasM0h5pvasznf+83P58M++Cl3fxoiIiIiIiL3mSqARURERETkgfHItet87Gc8H3Onj4rUiCAiiViqeEfzW3e8TeATidPHDFxGi2iiU3HQkniNubjeSG/E8vWJtsm7+b3Lz4wwJ8xIbxX+Ro79GfSOLc/heEh3u/fj7rd2NvPxTm4ehb67KuWlypkIrAe9b4+1wl4qgTP2WmHvfW89VxvHiahAuFels2WF7qwVrOfncoa/gy3VuHn2x7ofTuSW9/IC5N7H/cdihPlZn9/4OOUp991pa9+rlF4/7j9uvmCH+nvugVkS85aYe7WPj77XPj75+Gd/KY9cO7pnZyYiIiIiInLeFACLiIiIiMgD4x988dfxhjf9aoWqI5RkzIxd5u26t7Xtc89RtTtv8d5JOkG1eLXogGE0Eq+iWGsVhPUZ66MyODsZM8wz9KxmsiNkDrOquG2G+xIUj/Cpd+gzkGOWr40A1449TpMG6dWy1iPJBLcG1ljn7vZRxthGu+qpke7ACMMjcCasOdGMWMKwSHCr9eRoNz3PY8ZvJ3xUDscWHHrvtGbAuA5ZwdpNlv6oTg29z7mV9Lmx2Eum95t8351Tz31t73y7a8pT2kIDkXiyPk45+i126vVaG5/f+OCUwPpeu9M5wzdrjX08FG4EnjFuEklyVMmbGczXsV43a6RFNZ62xht/5b/yD7/8ZWc8HxERERERkftHAbCIiIiIiDwQXvsffoKv/eevqtbPmdXeuTnWHJ/a+jluo8VrwjwT2+vQj45V80Y1OIYR5u5G/ybQ15moETM52iKvM0SBcMNaw0bYvCtEDCyq3fPdWtZZ1ci+hsa7xLVWUufaxnzTMed0nYNc57icb7Vvrgpmxv7WamGiQvHl2PVJhYgxZv6Oit86xbs/t+XY++eamRdbWHof7OYn37v9y+2pGzdgN0856sYOq1nDRF8f5vWMJPmab301r/vRn7nIpYuIiIiIiNw2BcAiIiIiInLp/bd3vpu/+fTPr9bFIyANM3AHd+LETF33al9cVbCJW2A25uJao7W2C4PHHGGrL2rG71675iWMXfZblbttVByP8G1UX1qOcPSM/Ywt61g9A5sa3rwqgq3BOrPX19DXvdGs1h+974LqjGWrmj88QmVbW0VXtbDvnWNt1/dCxSTnThKj+vccLZ2Rz3evZ7dfWSuPYeNuiez0uRPRsexk32LZiZjr3yVj20/+3JfwrqvXLnLBIiIiIiIit0UBsIiIiIiIXHqf+byv4C2/8Y5qjQywhDJZVXtuhmUS81yPUaXqrVVAbI0cgW2FtbX9MuMzs+aA1i5HW+lI2mgpne5kq9nAjCCZzGqJ3OdqnRzzrtLzDvPf/QrRNXBe2iL73mxhHKzql5eqYBvhcC4zi5c4dbTBzkzmcU28OTZaVUcPMoPsYDR8CbWX1tdUEGzYCNR3s4TPajnfSxf8AnfeevjW7nXlr6p/74wxbrAYDxt/ZxEdlirg3om5199HWrVfz+TX3vJ2nvUl33SxJyAiIiIiInIbFACLiIiIiMil9urX/jAv+zffA97AjbbZYK3h01SVwHMn5pneK4BtrapkGUFqn5NMw6wCx+yd6L1mA2eFPL3P9N7X6t+lLXG6k+7YEvwCPQLLIGNei0RPC+Fy/O92LeF2GuAGBm2aSKuKXWhVgTwiXqPmCsdSEZyxBs825g2vWXCytqrOtGqPTQXAjMDarZEx2l5nVftm1GOe5/MLGpf9XLrccunjfQ/2fA9C2ty/jpfuWp7FvT2hY6OM15bnY+5vJD2CzKx/R0T9DZt5/Q1l8s2vei2v+cH/dM/WJyIiIiIich4sdbuwiIiIiIhcUr/xjt/kw//cJ/DW//auqsS1/QrZXm2ee6+KXzNaa1W/aVaVfUsoatBzru9Fr8pddi2eVzH6EZuNELZV5SuQPUZ75MBsCeBsbz/LTo4Hv3Yscjr+9iv3AtvOrt302mq6bUirdexaWFf1cmIwbao99HItcm9UsDuWSd/Wudq0BMlO9BkYAddoi52REEdkdMyqQthJIgNLu2Htdyszz9oh+964Ry2f79Vb7qXS/LF3V/dFJNpBMpHWsM0G3xzA5oDp8CGYruDTQd2ZMeZ+/9b3epjXv+wF/JYnvcd9XqeIiIiIiMjteey9VxQRERERkceMT/3sF/G2d74bnyaAqvaNqlrdtRC2daZtz5rn28zJDIJkzi2RiUdAdjg237bs2i+za3OcrO2d14/Z1wm845nALvx91KpfO/5YjlfHPt5eOdN257c3bzjp0MCb4w4ZSxXv8eAse2d7VPNKrTlmTmAQVQEdPRiJ+mgpXXOSbYTntrQXPs9cNO68PfaD7F6Hv5ezhfZZXcQLxFlr6cfscIsg5pnsW+gd3Enqb/Rtb38nf/vzXnIB6xQREREREbk9CoBFRERERORS+tZv+z6+/ftfX19kkhG4LRW8HWcJ2HKdheutAUn0ZQ5w1Hxgi1ENHETEsdB1n/tUbZIjsBhtYHscm1db4fCNAXKuIexxFQlHPXLXYvrkc82s5vSOKl2bJsK8vraoSuSlr7O1qkY0q1bNve+ONSqYM0br2jYqf832zoGx1moonRHkvCX6FoKxjvp+XaJzqv7lMoaWcU+qf+91s61jrYwfE6ot+cUuoW7wsKVKPYLsWyKOquU7SWS1j//27/9hXvFdP3Cx6xUREREREbkJtYAWEREREZFL59d+/W380Y/8W7z73Y8QVCCZmRxME73G41YFa++jZbFjm02FuxlYQmYfGyaxnck4uiHwXb5eAthMG62U49j31wbOJ1pG5yjDzFh6Od/hiZrBqO61sY8wsGmD+YT5xDKr16lgmKlh7kRSLZqXisUx99fcyF6BsU81NxlstF7OcS2r2nFpXR19xrKT245ZA2IEXdScVDunqHFpp30+ezsfD2D4y2Vto30mFxz+jldl+AafDvHNFexgM9qsT+AHtM0hYeMV3Gee9B5P4Idf8SX89t/6pItduoiIiIiIyAmqABYRERERkUvnEz77xbzzkU7aBsJpNA68kRmAV3tkM8wN30wwOQRM5vgIO6ugMCsIdnD3db4usLZqXsLNiBitnndB1PHYM9fnHftf3n74u26bNrohG9GT7EFkkpNjmwNa24xjVWWv2wTm2FL1Ow6XvWb/mjtpVNXuqFhOM2LU3JpVsB291/UY45GdJLbbas2MQXPIcQ1yqchcPp583CqBzOOfRo5jXLLw9wFTLbkfi+Hv5WGR5LyFnHGMRqvr3meiH0HWLHB35zevXuNT/uFXXvSSRUREREREbqAAWERERERELpWXvuK7+fc/8tNV5To5uamPfWr0NlWAm7s5wBlJM8cyiD7TYyZiOx41M3ip1PXWiKw2y24VCPfeR3VshZq2/7Djue5aCGu7AHn5+nass4XZBc9u4ONANQfYSaBNI3iyqApjH4tZZxRXOFztnWufEbtA2t1xr8A4erWtzeyjlbZhvuzOsHE+y3zjanlty+Fu4rRg+GRozKltseXOqXnXvTYq5Ze/gXmmz1t6Pxot1qtyPmMmI+qehj7zPT/wo3zjK19zoSsXERERERE5SS2gRURERETk0vjlX3sLH/HUv8fVa9eIDCI6NloYk2PW7/aogt/egePVkMl4TsYIRSv8tFjaGAcZSzBJVcVCzRa+zULePB793pk8Pns4YT2vNLDWaNPDFfY1I2IGAmeDtQbNWcceRwXAuJFuVbnYY7d/M7w1+lyzS8mg93mEwhDzEgpXRWNmQFRF8f7Z3rWkKrXvfg/nZP8c7Pj3zrmU9l6+vV6q2h+bs3/3P16cqpx3zBtYq1bsB4f4dEC2Cd9s8GkD1ogeZM6Q8PDhAa9/5ZfxAU9+n4s+BREREREREUAVwCIiIiIicol84nO+mmvZsOkQfMLbhPuEm2NpeI8KSs1GK2cDN3qvSt9diOQkjrnjy7aZFQabQY816HTuX7CWbsfn6WaFydacNh2AN9KjQt1IpmmcfxuzfM2wEX4vIS+A5xL+Bklf22P33ivsjZmIoLWJiBhtn7eYVzCcMcLfSqT3Hmc52csQ/g6WJ8Lek1+f3b2+t9qz3sBfmmt6bs7htXaukuUuC8vAouMJE4n3mbz+CHF0HTJo5rgl1649wic884UXvXAREREREZGVAmAREREREbkUXvLy1/Cjv/BmOLyCXbnCtDnE2gHpjTDW9MvdiUwYs3xJY5rGzNwx47f5BsMr7Iyg92oHbZHEdq7wL2NteWxw0xwqrR5BEmeo/l2rfpfW1Utg6AbWSHfcJ8yMJDAz5m3NPDYfVYkklklbljoy4IjRxtpsBOHr6omYRzvrmjdMnzF6nftoGZ3ECMGD85Bx86t090HpzWYRP9rjMoWLd+f+Nu567F2/R3Ps73H5e2D8eyGCuXf6PDMfXaMfHUFs8fG34+P5r/+Jn+Mrv+nfXNQpiIiIiIiIHKMW0CIiIiIicuHe8OZf54/99c8Gn7A2QXT69jqWndzORM7kvIXtEUSQ0XFbJvaCZdCPZsxzzLL1imu3W3I+wjLZr520m4Vaxzerb9nZArgllAaItDUwwmrOLm3CpwPCHPNlCXVmkUZrB4Q3GknMM5F9VDQvFcBJxgyZmE9VRWxWLZ37vFY622gznUdH1fY5K0w2g4xqBX3msC/Otz41R+hrNx9EfCnsvz6WIP689+/37Z37aTcBnLx3PDh7zfzlqvw99jduDr6p+do+4dOmbjwBcKvOBO2g/h0zZombGYcHG37oX38FT/mAJ1/UaYiIiIiIiACqABYRERERkUvgE5/z1ZjtvT1pjWlzANMB7eCwQmFv4FOFm2b0MbbX3UlzvDlEtXRewuKMXuGvcXstf/e7M5PEfmXgXdqv/LVlgrAlaUaMVs0xwrAcbarBKixuG8xtzOhNMqH5NAIqg9He2agqYvMKo4jAxnzf/fVbVBhtbsQIfHcVyWc6zfNngdn5h6k3k3fxu96v5j75/NO+d6vv33JNF/67OVkVDMcrsm+3Ovvkcy7WzX8XOeb7dshO9C09+jLCm4iZeXuded6O12g952h7nY97+vPu81mIiIiIiIjcSAGwiIiIiIhcqBd983fxk7/0q2AN9wZmZEK2DelOtoZPB7TDK/jmCr45wDeH+MEBPtX2a3ppYxZubMk+VwXsKfnho9Ue5tLq+YzZo9mJmb/kCGXHzt3pGNZaBbNmTN5GhXAb1bxOtXIeodnYXQWDfXci5pj5KAqeiXk7qnqHqGA4+nbMEK4lZHSOB3t3YemT/RhwmZpkLfct3J8re5bXwO1es8tzbW8pa/5vzceeyb6lz9tqn54B80zO1+uekjnIOcjeiTn4sZ/5JV74VS+76DMQEREREZHHObWAFhERERGRC/NTb3gzf/rvvHiEJ1vMjNZq5m/vgUdgEWRsSbLmb/ZtBS9RIUzOW2J7RETQzKAH0a+TfVTBMrolr4mujZD0xhh41OGez8kloyXFc+sAACAASURBVEUzawXvGuW1Mde3TaQ13Kd6SnawINJH9W/ds2sxs2a5ZuBG9l4BVQbeDsBsZOFBzFuIxL3RqXbP9D6qgkdb5Uwyso55VufZ+tn2K0zhvOLPe/nW957tO+/XXduXqx3z/fJovzezRo4Z3Wa2N4vbCEvMD3CfCKoK2Md0bTf4gX/zVfyhD/699+dERERERERETlAALCIiIiIiF+aPf/IX8Utv/g1oRs4zvW+xTKZpQyT0o+u0rJAyLauKNWdi7rDd0q+9mzx6BGLLfLSltTZCzSOYo+bfLqNKc1TjrpWqSzvaXei7vDla3iYl4Hfbgnivc68vVc2Z1aZ5BEk2tZrxG7keN5lp0yF4q1nGfVtViIBbq3060INqHm3VItuczGp53bdbmrW6XDaC8D7X7GQqQ44RIN+1/XeSaec0+zb3WnUvaztbBPpABr/rAe5HAJwcD4Bv53doPFpgvFybW78mHn0/99LNfn/rd92pG0ZstJJ3EqvKfAczZ5om+nipejNs/Pvl9/2e9+c/vuaf3/NzEBEREREROY1aQIuIiIiIyIV47ku/o8LfqeGbQ9rhQ0ybK+ucX2uNtjmEzQabDjDfkF6zgGsmsGPNoRnQMAeiZnZajuBp9Dlecs4kSDqwtD1evn88hlpaN99t+FvHrj3v76K1hk8Nb7V2s0ZSbZltrK2qeUflb3YsErNG86mKin2EUQRJw3zCzMnYQvTR3rlKns2z3vRFEBHYmJ9c7aPPEP7W6o61fj7/Wb3O4/ot632t/h1uZ072yefcxI3tz+9uPxclRzU9BJmdnh1ixqIv47exGK3Zl7+niFGB3/n5X/glPvcFX3HRpyEiIiIiIo9TqgAWEREREZH77if+85v5M894CWYOreFttFXtM/P2CM/EGC2T55nsR2Tv5NzBZjKC3M7E9jq5vQ7zFvp1+tF1sh/BaG9so7LW3au6drR9Pj6Vtw5z3m+NbqiITSPd8GkDzde2spmjstnA22Zci5EpZdTP3DAMqCA3e80DrjbRdaVivk5E4Nbqe5EQfZxrjlm/NfM3o48Q+SwnyD2Y+xvnOvD2ga3+vW/h7/5NAOfbcnvd64nrdP43Cty5u/rdGRhGYvhmM2aV19zu+jdVkhFV+W+7q/i6b/9G/sgf/gPnuXwREREREZFH9Ti+nVpERERERC7CI9e3fPI/fiVtOsQ3V6rilUbahnbwRA4fei/a5mGsHUKboHm1Ms6lUfOY4+sNM8d8g28OoR3gm0PMJzKrdWu1aTV243NtV7jK8vF2WtXeuWV/aytcr7m/sax5zPddguKIxFurikKAUUm420+FviMZxn3C22gJHUlLq5bRVtcoIkYoVa2fo/dRIT32cRbnPjI2avavwt/qgn3v9j4Ex8Nf2PVKP0fL35rbmFH9gIa/MP70ksygb7fkPJMxj44DdVNGxkz0jmWvv7ve+Ruf9Jk88si18z0JERERERGRR6EAWERERERE7qvnvuz7eNPb3okdXMEOHiI3hzBtsNbAjWwNmza7Nshtwqd60BwbrYEj5xGEUu9s2gamDT5dwX1ai1PTK+Rdg1h8zOfNtSo4Is491HP2WiObkQbuE61NJE6OFNrMMDemzaae522sp48KYSCrarfPSQR4m2CamMkKx2PMArZpnF/SSKLPZNYMYF+uR+bZYr6wMfP3TJfngXU/Kn8vPia9c2GnPHDwCXDS/PjY6Mx7ey3vEQMsA/oM8xExb+nz/8/e2wdb1qZ1edd9P8/a+5zu931nhhlGCiHGkKIsyliipWKUhJBS/rBKLFPGKJIKIAU1WsYIAQ1gABUw8iEqSgEiZEZCQL5GZOTLGIaZBFSQQTFRMhEZEgIzMu9Mv91n7/U8950/7mfts8/pc7pPd5+P7p77mtnTp/dee61nr73PVK2+9u93t/HFCh1f5ujxuG155//1Tr7gz3/VTS87SZIkSZIkSZIPMLICOkmSJEmSJEmSa+Pt/+Ln+QNf+u2RTq0r6sFh5BC9w7zBWoPWUDe8Nbo1BHZpOt9soW/xsa33DfQ5pKY53hrWZ9Q6vTf6vEH6vKjYWIQci9/LqqddUrw7yTx+3u1PNaqddRWzi1VDErmPZPCYaYwgGK01QCg6ksxucR4w3EDrdDzT11pUYy+DSce83yIeqcQhgKOe1o7XOvYY+ejj9KdjQ7Kf9ULZpYedpZb6cTmVQL1k63kVl7pXffks15b+vfw9CuNzJQpacJFI96siGNI6vcXvcRHDPIqTrzsUfLnv4aipF0EojK+VjPnavreJ8MPf+0Z++2/96Es8dpIkSZIkSZIkyfmkAE6SJEmSJEmS5Fp4390N//Gf/mZ+6eW7qCqmlXp4CymV3mekzbTNBuYZxbB5G7N/3UEUFWhHG2S+h23vYa1hmyPEt/TeoBvKEJ7d8N4xa3ibobedcEXul2yPdFl05qbOvsk6IX9FIt1cKiJ1uNZFFjuySwUPaewNs9hmmV2M266CVkRjnyqR/O1tV02rKjEzmE7vnSIaaeJl5q8/XP65hIi8/4FTdy7Dkx+bq7Odz6L8BdBruTq/AgEs41erVKSs0GkVX2qYanxW3aEZ1rfYfARtG7OoRSjX/C8SN/VPIB/2qz+En/jRN/PC7Vs3cvwkSZIkSZIkST6wyAroJEmSJEmSJEmuhS/6lrfy7pfvAeCulDqqYb2gukamW5TDF5HVATodIHW9l4oNCVynNTIdUta3qYe30dUqkqhm4A1vDcwxwEuJmcDrQ3x1ELXSpQxR64iclLS72wUQ9jOzpx4bs05lJAMpBcrqeO6vLxJKYo6vFsZJATPc4rk6hHDUQccN1V262LtFCnrI5ioK3WIf3Siiu/SvQKR/Wfz1iTLeE38/U/6eexL8CW4XPM5TwJVLw0ufqfygA10NUhQtE2V9iB68SLn9EvXwBfTwRWR9G1mvKesDdHWA1lUk369sNWdzk99/f9cv/CKf8/lfdmPHT5IkSZIkSZLkA4sUwEmSJEmSJEmSXDn/yzt+jm9/60/j3gFBa8VFMSeSqquYA1xWB+jBLWR9GH8e3ELGbNzeZkQFmVZIXUGZqAe3EF0haKQnzaCNpK/7aF9VyrRG14fItIZSMFH6qSDkhdSQx/+4n9Koe/XPJ+YJiyJakFIQKWP2r0dKVwQZ8ndJ8EbaeVTKyohVeo/XJUopFQAVwWypmTXM2lhXB4zeW4jf5TxYP+uFHM8iFomZy3uv4yo5r4J7//HH2d/jPPfGGS786i/Or9YyqwhaC2W1RldrysEL6O1XUW+/mnL71ZTDF2E6pEwHSF3Flx/8GfoWwCXwTX/7O/mBf/CjN72MJEmSJEmSJEk+AMgK6CRJkiRJkiRJrpRfuXOPj/vcb+I9730foPi0HgnfimjBpFDX65CWgGD0eUZH6tdfuYNt7tDmbUgyM7xtsR5zg31zj3Z0B9+8grct3kMAR2K2jHm7hqjGvNx5g7c5ZpESItV1Ea5j1u5Zl0m2P9Nz/KExQVf3Z+O6R3VzKUhRXMuosC6AIoQER0MKxy4XaSy4jhSuOep2LLJLjVmrEvN8+9wQidG/fcz8xR3rFkFmM7C+k6PH841l1EUXvE5oqUiJma244XOHeSS17fLrgn03HzXe7dNzl5f1ql5MiV7lJe1y3mych8edEf3gg1zXN7OvTgC7ykjm36LcfhUcvEC5dQtdv4BIibr2+R5+92Xs6BXanfdim7tYmykXqCW/lDVeyedk+TxcfN+ve+1r+Kdv/14+6DWvuoL1JEmSJEmSJEmSBJkATpIkSZIkSZLkSvlTX/cDvPu9d2JGqAjuUXCMC1YrdarYPB+nVV0pdY2VA2R1C3npg/Dbr6EcvAQ6hcYagtBEsVqR9S10dQCl4EWHzAVrM9bmXeWwaKVMh5TVLXRa00XxoiiOuIFLzOIVRUQRP5ku3fc8yzEU8OUHdaQopgpSYFQ8q5bYxnu8fq2I6nEdsoP3SOxOFOgO1ukYDcNLJHMVwA3rM7VWZKSoqyh9DqmtRJX0iSTyOGeMOcBeKj6t0MMXKS98EPWl16G3X0u59Wrq7dtw+CIuJV6ZG/4EZb33rWGXd5XdfacTwbua6wvc7jveQ/7+KCzrWGq9H4pfvEJbPL44oCPF/WS362c5ahSqg9Yaaf26QsoaXb2AHr6Evvga5PBFdFqj61votIrfVa3opQj1h5/w+Jzsr/iybjzyPt/9nvfyJz/3zz/ui02SJEmSJEmSJLkQKYCTJEmSJEmSJLkyvvt/+z/4wXf8HNQJdMKkDOnT0RoCKBKrIw1aJkwmqBO1hFpVLawObrO69QJ+cAvKhJQa0klAFbQUWB8g69tQK14UpoqMymTvDZ/nUDaqcezVAbpeI1oxIslrGo+7QB/bnhB/MmQvQw5ynBKNu0Nuq5aYOcyoVh5EBlOOt1/qoPcSuq3NsZXEMUopuznB1jrWHJV6LEvxUQEtEUL2kMeckax0CLldJ+rhbeoLr0Jf/Tr01R/C6nUfSnn16+H2B7E6fCHmJ2tBRHkSjbovc6+D00rxSRTjI69Z4NFbja/qvJyWxFd5/h0xEBfEHBWliKKqaCmU1YpSRgU68TsluszjPr0nx+kXP/cPMe47+bs7lN/47e9891v4u9/3wxd7fUmSJEmSJEmSJI9BvekFJEmSJEmSJEnyfPLul1/hc//WD0fyV2vUIbvhY9bsPM+IdwqjXblOqAh1fUBrG9QsZtIu1cu1Ug9vRf0xhuEwR6Wwq0A9QFxQd9At9I54g96A8KJ93qKl4iIYgpSYReq94n1LnxuORT5VRiq37NW8jhTzrgKa+FmG9XMZ1c5aR23z/oxfR0T30sDhpMziBx3imR5/d3PMnVom9l1YpFFjdnKkljtuNhLLjo/0L8erPoFqRVaHyMGL6O1XM734WnR1iNSK3XsFK2uadezoHr49Au+XUn0cCWZZPPmVonuB7ccZM3u1svoqqphvJgUMx6nuLkvKtoNtaW2DHN2Nz491aA1rW6y38aWHjpjjGJw+3xLC1n35AkZEq+P/C2R8KQFYqtO9wxDL++/d8rt6zDhPT8Ho4c/4k5/Hb/stv5HXf/Brb3opSZIkSZIkSZI8h2QCOEmSJEmSJEmSK+ENX/1dvP/O3V0KUEpUIkutyFTRoiiGzVt6nymAW0d9prijpUbdsXWs95jt2z0qZKc1Oq1gWmEuOxlaa6Uc3MLrITIdjsrZNaaKq6AqeJ/BOkWVUiuUCcoKpgNKXYWIdY9goeqer4u4sRQ9Ti6OPyK1GPXRyJj763G55R7iSpyYAyzhv8w9JLZKzCde0sAsx1OEws427yUIzSI1LR5J33Bko955f96v61jHcpM4D9OKsjqgHryIHL4AL74EL74KXnwV/eCQcvACdX2I1gkAs/7I7//pmuYSuvxs9/aYYcpdjfKp24IwAqKXeTuF+t4xzj0Z+ze/2jDuDeAAveF9i7QttA129AocvQKvvIzdeZl+dAefN9A2sZ2DMz67J27O7lMikVx2xudoeVyORe6x5D394WD3RYsd534Ar5/3vvw+/ugf/9M3vYwkSZIkSZIkSZ5TUgAnSZIkSZIkSXLpvOkH/jE/+o53RlK1NXprIS2niTKtcAoigplRVaml0NpMP7rL9s7LiHek1Kh2ZlQ9u+N9pplDqTBN6LQOkSlKn49o2y1OYbp9Gz24jawP4PAAWR8OmetoxG7p222sadQ1lzLhtSDThEyVLmDie74uqptluYwaaUMbCUhRpZSClIpoQVXBIpGrsiR3F0m8VwN9SkqZ+ZhxHPuwURHt1iMFCSxTec0cLGYHqzg2BLB7zFpe2I3/JdLDKgoatdxFVkyyRnxi0jXrejCEeY1zJqGhx54u9P6fSNCekqPCGdKWx7s90OX53vH2TvND9zlmLZ97vDOE8G6/DxLFp45xX+r1WcYdaQ3fbrHNEX50RL93l37vfdid99HvvJd+9Ao+H2HzBm9bzBpuZ1WDn/yF8CVVfOJwxzXRu+fLSBMvc7V3tdd+/3PdH+T0L5XT+98/7g/9w7fxzd/ynVe8giRJkiRJkiRJPhDJCugkSZIkSZIkSS6Vn/+lX+EL/uZb8JEexWbMou419OcBohUUSlnRRpq1OLS+BRF600gDj2pkzOkCiKDeaG4IBZnWmBsqgnjDjrZUtnQTVCus1mCFUg/Q6ZC+uYtt742ZuQ6t4drH3F+lToeYGSqGaMP6EeYWgUIdSkk8krwjeSsektQFXEMOK1E9bN1QN6gVkYrvN9KO1wPHwtQWmVujploQvHfM+xC+Bggq4G2DqmCm4ZHdGGW5Yw3HEm2/wdltkWcd7xvMN9AnzBXvG1rb4K1TrIFDt0VvnmIvqHni7lNC78a+dXwF1c8XCZDuJib749VPPyvs3te9390yh6o1DPENtBVoiXPRNvh2xo7uYdsj8BnD9r5ccKGjPSJ+3xu2vMOP+tacSNY/Ifu/Op/1eX+B3/Xxv5MP/ZDXX8q+kyRJkiRJkiRJIAVwkiRJkiRJkiSXzGf+D/8T9+aGrCreGm4t0rwquCnWtmgFqQeo2KgzVjog08FIxoac7R5VzW6G9xbzfhl1yu4hY+sKRKnuGHfZ3n2Z0o0+KUwrpCiC4qWgtVJWa+bNPdp2g3jDZ0OlIFNFELQUTARH8Y0j2nHrmIUA0pH8Xeb/GrGOWte4rMK2imEtJLOJoBzXRov7bu6v6FLV7Lu5vVExDaPANv404vy5UUaq2vuYzTvE75IUXnC433K5473RNkesVkf0o7tQK6VtcanIfITdu4Nt7mLzJua1wp5BHsLahGWeqpyS2Kexx3RmesnRzActY0mE7m9zjt9+pGPJfW3PI0t+SSLxaSHee8P7HL8bZsh2i4kipYzPZ4Pe8fkIsTnS+Ce+snD5awphfzwXOGrT43HZP+4DlnBcp84DU9uR7ue+D80uNb7bLvYjoxL97iv3+JTP/G/5/u/+5ou8rCRJkiRJkiRJkguRAjhJkiRJkiRJkkvj6777rfzEv3wXUiestahw9o41A4FaYiatmOFtS+txv7vjWsbcXwdrqDtmnd5DdmIWj4ki7vQ243TQgpYV5rcpZWJVhH7vDmxntG+RacKnClJxUZDCVNfUgy22uYtvt3g35tYQhzLV6JxG0NUaUcdax81CYOHgFmJXFAVMBSkTjDyj+ww4sggwKXtpX8N9yFMvIWXHTURCABPiqLcOYnEMs0j89hnG82NWcVhGH0nqHec4RjfHjo4wfT8iJaTd+lakm+cNbO7iR3foR3eHxIbudlx9vSPmIx+X6V4uZ+3xsRK1y+jYc/d78hUsSvL06NjHRXZHfY4qn/fYyVXArYFZpPd1E/OwiXS8uODWMGuI7Z+L05+rJzhXe2/yInr91L527+UFD3H6iw0icuaXHXb3ndVovXf/8VOPV/bWt/04f/3r38QbPv2PXGxRSZIkSZIkSZIkD0H8YR1XSZIkSZIkSZIkF+Cdv/DL/LY/+iWUeoBMK6xMlFJwC3kqpVLWt6GuouLYGrQeyd9aKasJlQkTxnM62h3Hsd7Bjd4bqhozRLf38LZFRZGpAkqfO7R7+Lyh370DR/dobYsL1NUK1QlEsB77l96xdoTbjLeZPrfdvF4YMtZBpWDesXmOVOyokBbRENI10sMRXraovHaJ3mhRtOxNrHUbc00VQeitHc8HdkdrSGHrNkTvMs8Uep+hG7UUeo+5qOKGuEUC+JSqvK/udu8OrRN6eBtfrSl1JJdbw7b36Ef3YLuJ5PV4ojxIg4o99ufmqllechk/RI33npfbl+++J4D3xN2T11g//wI4ziExi3eJfReNz7QDUnDvJ1K08X2FS0xDy/LFirMT6efJ2+vmrHT5er3iH//Im/mIf+/X3MSSkiRJkiRJkiR5zkgBnCRJkiRJkiTJpfCfvuEv8tM/+wswHaDrA7weRPLSGoajq0N0fQtHqaohcDGkTLgqWqbYrhRENcK+1nGXIURDvopZCLw+Y9sjfJ5xDC0rpNSQlm3GhiTm6BV8e0TrHVE5TuQC4GCGtU2kX62NBLLFH8S836Wq2XvHewsx6x4GSwsqIbqKEIlld4QCKuO5QzyNyuaQYGcMiRUipeyOt4bqkOEjdQwe1c+jjtbcwMbsX7+/Wvi0AN5d/Y21aK1Q4lzsqpzbjM0dub+/+HyuQAD7ss7dMR6ooB+8H44TocixgDspL+X82O+jXjULJw0ytvfz6Z0/CD+uLL5gbfR5l/hnPfuy/zHAl1r2kbk+ITp9qHU53jZa1C+zDnv5vXoK/5nj1Odv/HiCj/4NH8Xbfvg7rnFRSZIkSZIkSZI8r2QFdJIkSZIkSZIkT8xXvunv846f/YVI+w3DoW2De8fcYVojqiNhafR5BusxH7Y31JXeQ+x6V1QLrgXxSMqqFhSPGmY69CEnNSqWbW60dpdSK5SKF0F1hZQCdcK296ibI2ze4HMDtXgugApa1zgKNmPW8W6oRKFzJG1HSnTI42WO51Ljau7oSBbbSJSWqsejcxmCcSSLl2GhJ+ppNVLAmMU2Kpj1eN3LfmxJ4saxBZAhn8/ygycc5l5F7TJH2eYt0vU4ESuC9aicvunA6rKeB7ETt2fcv9vP8vipduyHbXP/Yh6VoT/lWDLvP/Ygobu/rd4n9c96Y+IzccKXn7Gaq0ZETgjdE2sQv2/bK1jB0yl/4b7P31n85Dt+hi//6q/ns//rT7+WJSVJkiRJkiRJ8vySCeAkSZIkSZIkSZ6If/az7+Lj3/CX6ChlWkGpqHVsvhciq06Ug5eoB7ewIX0U6KNi2c1ChbqjdcJQUKVowUZ1tEjIVLMG8wbrHbGOtRC2Yg3ahj5HnbJOK1w15GiPRDBtC33GNvfo8+ZYtC4LItKIbkvKt9P7TNWKux1XLmsFgaJjBq571Em70dscFdXEzNylcnaZQWvu8Vr7mOHLkLF7FdDihBx3w70PGWhjBjIw5v66H/99N4f1IVJR3O8Tcacl6i69fGHsUlt899excHp9p7kv+XzOcx+0j6tg997dFHv11SdqrU+he6fD5OTznjl2tenPLj/xtu/l133kR9z0MpIkSZIkSZIkeYZJAZwkSZIkSZIkyRPxMZ/yxbzz/30vroVSJxDF5iP60V3AkWlFWd+mrg9obogUpmnCtCKqmBnWtogWkEKZVntzfx2dViAl5vEi2LyNqmbr0EOQ9raFtoG2jZSwC6IFEcEIWdvcQhT3hs2b2M+Yc7tITF+0l8VcXXcHayFbx7xSlQJasJHkLQJgtHkb6x27cPN4TaNS2oYkXv4OIX8jyKxD6BqYYxap42WmsI/XWZZ66N7Huh+GHcvhvXvPS84+TZy+VL3o/NbT2z1IDl8l/rSIyPNqrc/b7gLV18KVOP8n4vhz/uzPW/71H/WR/Pj/+j03vYwkSZIkSZIkSZ5hyhd+4Rd+4U0vIkmSJEmSJEmSZ5M/9w3fzd//3/95JHS1oKqYN6wbQsyYdRHUO217RNTURlJ2fzCtu6GqaFmF8LQGfYv0hrU5RKmPhC5D8rjhIlBjZvAifQRFRXBrkRgeArfI2E4EVGP+rWqkkHG6OaKKqiLLf4RYM7G+qPSN52iZomJaFDBUJCqox7mQUsbjgkvsS8x2iWBgnDfBve8qpa0bZiEPF2E8lhGMx46TjuffTojQU+/d0yqAr1rQXt93oC9qXq/u6LIc+hxje2JG7147+f59vv/8cXvaBPCDPueRZT7jRVzJ7XL4pV9+D611Pu5jP+bS9pkkSZIkSZIkyQcWmQBOkiRJkiRJkuSx+Mn/81/zu//YlyOr1S5RKiK0NqNaEK1R4Yzh3ugmaC2IRbJVVmukrNDVOub2So3i4d7o1lFRuhr0kVhVpdQCOu3kZe8dAVQKvc/4vMHmDeotqp+tgxutzZRSAZA6ociQ1GBti/ct3jbIZoOjuJaQxz6jHRCjm6FaKGXCRDG3qJuOvdBt1D4r0Dugo8q5R6LXO2IOPc5JJ54v5rhHOtjNYMxCBnBrsVa3qH02w20IXr9AAvgKLvfOSuZe+v79eHbuo+/gvOcuQvyc9froPt49HPOnH/HgPOvp04fiRJU4D3vvT0eKz4oYP845PuNIpz+TF1jV1bNXt+4n13RmFfcZC3vbD347v+k3/vqrWFySJEmSJEmSJM85KYCTJEmSJEmSJHlk7m22/M5P/SJ+/t13kLIKQdo7ZkaJ3mJEy050WHdqnbC+xVvDbcZKoa5vIevb6Oog5vX6Iowd61BrRVXprdH6jAK6PojkLrqToI6OhG2nbTdAB3N83kaC2Br0HglgHSleEVRrpIt7w3qD7Ya+3QLxOtzGfvCR0lUQUC2RjrRhdpbXLBoJSo9VxXzimCWMjUpriOO5IboIYIt5xr1RJWYIx32dyBeP+b22SMyHiMYrvMx72Hzdx8f29n35E2hPXPo+wAM/GTc47/c62JO/8PSkyJ/Of9Y4e01y7iP382v/3Q/nn/zI93B4eHBpq0qSJEmSJEmS5AODy7+qTpIkSZIkSZLkueeLvubb+De/GHN/u7VI4oqgpYAb1ht9mbNrhk4rDMPcIm3bZ6Rt8HkL25gX7PMRtj2ibWOObymCeaf1HhXMgGC0zT2YZ2w+wuZN7IuYmWsIWiZcK14rcnBIXR8iZRq10B1vDek9kra9Y+aRPp4O0dsvUm69gJQJV0WmA+TgAFmt0dUhslohdRXCF4l6ZwDVON40IXWKBLEUKBXGLGKR2N5gVEIrPoSuD5EtIjg95K+FBFYZF2478fuQ2bJXJMNincfJz8uerXvy6WeJ1POqrs/b7hwZ66cTqL73895zHvnlXLeEvP4Zw/v/gJDy92GcXRPtj1Ap/X//63fx3/+Fr76BtSdJkiRJkiRJ8qyTCeAkSZIkSZIkSR6Jt/7jn+H3f9ZfRlZrrJRI9IpQpwlB6PMGby3qn6tSVwfMrVNU8LahbY4opYz54CjpiQAAIABJREFUuxXVFSYgWpFSkbpCSgURpCjWO7BIUKO3SPJqqbh7VDMXpdQVorJLyZoZDhSBPm8j3bu5B95AFHehaoFScB1ypkgkbueGtzkSvITvFa1gPWqaPeSxm4FE2pmRKMad1rZxsqzH3N+23c3sjZnGnWKjwtoN9473hltH3UOUmx0nhq2N6md2ddun2cnZS36/z7tk3F/DRbZ50HbB46RnF1l2ngzWIZb7ifuOY9r7iePl+PtrvujZvO7q59Nrv/rDxRzqsz975z7pNOLj7t0U7LO3O5PzP/PPO//ge9/Ib/9tv+mml5EkSZIkSZIkyTNECuAkSZIkSZIkSS7MnbtH/JY//N/xnnszoKP2uVHrilInukGfN+ioYJapMptTe6e3LXinlIoZyMEaIGb1eke0otMBZXUYM4FxpLVI1qqGEG2GqIMWQEcSFbp1mjvTmEdcmmMqIZSL4t2wzRE+34M+A8ezdL1MqEa+GHw3A3ilgrctvTUMRsJ5VEib49sGfR710ACKKtiQuTjxumypcnasb7Flru92A0Slrtk8aqhnpAMYqAyR3SnWTwpg5b5Bos+KAD5TYO/m9tpuOzlzju9p2bkI4EXenp4pG6IftnvbniWN959jJ55/Ma67+vk8eb3P5Ylhcd8d7pEEsBw/774P5iKCLzLr2Zf37NTdT/0/Z5z33jwaH/arP4Sf/NG/ywsv3HryJSVJkiRJkiRJ8gFBCuAkSZIkSZIkSS7MH//Sb+R//sF/hJe6m1MLUHQCGLN7G6oFL4o6tHmDz0fQGuLsapLDlho20rJSK2V9C6kH4Ya8Iz7m34qgWrBu4KC1oOsDTApuhuIxrxeJRG8fKV1xdFojOiHi2LzF7t3D+yZmDYvuqodFFdWKiIIUUBnHBnGNZC5G9466jFRuBzMEx7ph1mJ2cO+RHl7mCLeGWI85w6Nq2HuLFPFIAVvb0ttMdY8CY7NomrbY9jTLGFt3v5pxtlyHYLt8cbovmJ/Py90nOWfGsQA/Lb117+eTLI/c5PkUkePj+7M0zcrOkN9nrf+M93XveZ/6yX+Ar/mKL77MhSVJkiRJkiRJ8hyTAjhJkiRJkiRJkgvxwz/20/zBP/NXEal0X/ytoSXkb8wBNgRFxtxb906bY96vzTPioKqIKl2O04QOlDrhpaJ1HfLTOiU0LRAVzFoKXWJebK0TsjqIOcS9U3eJWcMFtA05KxIziFeHFAGbt7TNEda3FGwnlsydUiqO7qqoy1RBSszkbTP0jnjDjV39M+5gLV4nRNVz7yhGa23I3TkSwDbSzh4y2NscgrfNUS/tnSJCaw3MobcRojxDDl3xpdzVXypebW3y83upe1nSXLn/PTijkvkKv2Dw2DzrAvgx+Z5v/Tp+98d/7OXsLEmSJEmSJEmS55oUwEmSJEmSJEmSPJRfed8dPuaTP493v+8V3BSdKgBijtSJbhaVzW5RF4vgMiRcN5RG327x1sYsXGI4rwtaJ6TWmMsrYOaoll2qFiKdC4qsKpRKRendkNWKenALRyPb6CF0uwhiRuk9EsiAHtwCUaoq4k7v25gN7MCoJkYKdbVC6goTQVSRejCSvFt83tKPNoBQpwJAa1u8bfHeIls5hK73TYhsd3qbUWHUOBvWt9BbCGoz+naD9xkRds/x1hBz8H6/Jr2Gy7iru1S8+nm5z+dl7nXPGR6K+Gk8l8+EAPaL1Vs/Aq977Wv4Zz/2/bzqpRcvdb9JkiRJkiRJkjx/PAtXTUmSJEmSJEmS3DB//Eu/kV/+ty/T5xbzZxnzXFVCgHpHOE7g9rbF5w3St5Hh7X2vqthwm/F5E+K0bbG2xbYbfLulWCRorVts3xs+x/58ewTbI9p8hKrgvTHffQVvR4j3XZpXHLRUrFakrlEpyDxDm2ltpnUDKqUeotMBsjqgHt5mOrxF14IhlGmi1AI0xDsqhbI6pL7wInr7BaxMNDNEC7VMaKmRFLaG2YzZktSM+mpcESmoKOIaddgOZkT1tFbMPAS6+QgXd8z95Ljfa0j+PpXS74I8y2t/MNf7upZ68eQxuWT5C/Du9/wKf+JzvujS95skSZIkSZIkyfNHCuAkSZIkSZIkSR7Id/zQj/F9P/ITUfcsErN1PdKIvW8RgVoisYs74h18zK91x3vD5hnvHYS4X2JWsFvD5i19c4S3DTZvow659xCdPeSxmIF1mMdj1mltM+YEN2y7xecZ6z0e32wiXVsnZJrQacIQ0IJoiXQyDipoKaPyeYJSqNMq5LE5zfoICDuO4FphdUA9uEVdH1KnFQDdARREUY2bIFHjbDG32HoPQexhfndlu+NcIrJXnR33mRmiskspM+YDPy4Pk7tXK/x873ZFR3huheXlz0oOzu4m9vFZeyp5Spd1EuOqPuvf9p1/jzd/3w9d+n6TJEmSJEmSJHm+yAroJEmSJEmSJEnO5Zd/5X385v/ic3j5/a8gQ1CqKqjSzNBSIkHrHZ+j1riP+xGNKuR5i/Q5ZuuOucA2hK6b4WZoRHahVEpZIdNER1BX3DvgyPiPaaR70QpTjXRvnZCywh1UJRLEqsj6IKTqeD3ujqpio5ZZ3JFSKKWEsumOlhpCuBSkFDBFChiClIrWCii2uUc/egV8RrrRt0d4n7HtBmkz5g1pLVLRPWb6Oj0S0W2G3rDWdkLbMKR3ettGCrg3fMwwXsTvVc5ivfpLw6uSmMHzeWnrp/68pqOOtP5TN/sXnuL6593/y4C0vfsu/yy++lUv8VNv/z5e/8GvvfR9J0mSJEmSJEnyfPC0XjklSZIkSZIkSfIU8IYv+UZevnMXEUFVcRS3jrctApTpAHen94Z3w1snYr6K9zZm4TZ6n3GfI/Hbe6RiBdwNrMVs4DZD29C397DtFukWs3tHohYhJKkZ4oYyEsJOHNeNWivdojJZekeOtuiQzIsgNELylmlNWR2AKiaKaKWsDijTGikTIhNuIbulrEArhmAIjlJWa+rhbahrqBMyrRCpkTKuFcqElCnEdq1IUdQJEeyOoxBKG8dxi0Q0Ywbw6QTmVcm466l8zpm/j8/1v7anUvwCJ7vQnzb2E79Xu873vvw+Pu2Pfe6VHiNJkiRJkiRJkmebFMBJkiRJkiRJkpzJG//eW/kH/+inEUARxDxqngFzp9YJ74a2LTo3et9iKpRaRu3zBtqM9y0SA22xPiN9RodExjsqEtXSZtA6Yj2e27fASMCKIlqiJlkUax3vM3SLdKzbmEXs1NV6JIQV642+2Yy66SGCLVLAdX2LcvAi9eAltN5Cp1toXUOZIPQyoopL9FbXUikiSO/4fETbbKAbVQss+dyikRCuE1pDGDPk+ZKcXqqchTET2R086rUFKCIh2UcK0+1qkrPXJ02XOtzk0biZ8xZfS3jKJLDLSP4+Vas6AwcxGP+veZXr/aF/+Dbe+K3fdWX7T5IkSZIkSZLk2SYroJMkSZIkSZIkuY+f/8X38B9+yp/l7t2jqC/uHRGFMuboDsHq3aDPUWnsQIm6ZetRcextOyqeFTPDewPrUb0s7NK6MTMX3BxEoRRKnWB1gJYVroqWSh/P9dYopUBdIaVSphVdBCkrpK4iOUzM3zUz6mqFxVDieB11ha4OI6UrgrvRu6GMpLM3uhOS22NWsHcH67FfUZCO9z6Szlush7z2sUZrG+zo3vh7pJ773KDdw/sWzGitod0Aw2xJQbc4T+NSzd0ZE5YvLQB5vZeBV1f9/Pxezu7NSxYfb/z1yE95Gs/pNb7+x0autuL8LF584Tb/9O3fx4d+yOuv/dhJkiRJkiRJkjzdZAI4SZIkSZIkSZL7+PQ/9/W8cjSERmshZwWQSp1WmAAYxXsIYnfwjreGbzfQGkt6UUUxb3jboB71xs0MazYSr3FZIlIQnYbnCeEpDt0NGfODpR5Euna1pktIIdWCuUPvuDUUYRJFUOoU84RNFS9lV+Xc5y0+30W2d2HeIr6X9i0KZUWd1iGHcaQ76h0wtGpcSfVIN7t3zB1FAUVcogVbFJVKKTWynBaiN2YSFzDfyV8REDNsDkG+T6xhhCDlZNHs04edcbt8rqe2+ibZe23XWXv8zJ7TmxLENyul33/nFf6rz/jsG11DkiRJkiRJkiRPJymAkyRJkiRJkiQ5wd/4Oz/IP/oX70QxrM0jlSshLmvBWkcNvDutdzAfqdwZ2hbcosLYOtHs3GI/7pGYNWfSELqYR03zvKW1GTDqNKF1gjKF2BUBDRGqpVBWa3SaKHVChoh2s12KuPeZroJXpalQ1mtMhWma4jWIUEqhbY9oR3fp8z28bVGMWgtaKrpaUw9voetb1DJFZbM50jt9u6Hde4XtvXu0zQabG+qhrMVHmrd1unX6EHkiZdRYD4GrQ1iJY9bpbRvnCI+k9PK64Tj5K4IM4fQk2un5FqfPG8K1yc1ROf5sclNfi7j536UfefuP87Xf+C03vYwkSZIkSZIkSZ4ysgI6SZIkSZIkSZId7/yFX+J3fOoXs5m3SJtpm03M560VnVZQKr5tlCJ0N9wavtnCvMGtjdGXuptt69awFglhcXYJw0X+hrZxlmSsiyKlIKtDdFqHQJYJKUopBS9rpBRUQhx774AgWhFVqBNSCl7Xsb0IqhUzx+lM0wFmjd7mSN26INMKKStcNJysFqRMlGmFi2Dbo5DebmBzvKbtJl6TgFmI8kggd0qRkLgYbFvMNO4zPs+YHeFtVGYvFdnzFnGjj/uwSLeKnNRxvi/oxsjhi/Lol31nbf+gA16fgHu+L2H91J/XddinWP4+C/XP2I0t0d05OFjzT37kzXzEr/01N7OIJEmSJEmSJEmeOjIBnCRJkiRJkiTJjk//km9kNkPdQ9yKINOElAm04L0h4rgbYh3tHe8b3FvM/R2SV/AQnHOL6mNzDMdVcFW6g1WFMpLAaLRI4zgac3pFkbpCqkaCVvXYBWmNWb9acC1oKbguVdJCaS2qq91pbUZFEFG6GVLXQxSvYXU4aqE1Usvbu9j2HmyPsM09fD5CVSlThanipYAUyrQer8NjXm+fcZtR8V3CWFFUFRbBjUM3vHXULCqtGfOHW0PGfbqko0+x3OP7f3kIx1XJsYa4+SXedke62IKegOe/9hluJMn6VMtfuNiH/YYSwGLjdv2H3mez2fLJn/6nbnYRSZIkSZIkSZI8VaQATpIkSZIkSZIEgK/822/hHT/7LjADi/JirRXROgSHj8QtuDjWO7adsbbFe6PWSpkqIoJ1o21nvHcKAhqzekU0kroqUXE8Er/L34sUVHUnjRGh1HVUT3tsj4+HdKKsDqirFZSobjZz+tzobYPZTLOGq4PCarVCSsW0UFcvUFYHcSw3aDPS50gPm9F7G+nlGW+N3hrWOuKCIbRSKAeH1GmKkzcSu+5Oa43W2q7yureZ3mJecKSiowbbWx+pX48K6TEL+aGiUx51LOy+sL2oAH7Yfva3uZo5v8k18LwIdfG4fQDzk+/4Gb7yr/3Nm15GkiRJkiRJkiRPCVkBnSRJkiRJkiQJrXd+1Sf8CVyWRGtDPcqZpVRUlT4bIh1QrDekbfH5HjY3TKBME0LIW9tuoG1wN0qZ6AIgkWzVguiQvubg7TjpJwKlQpmiAnpVoRzGTGAB1YKFmqbWSm8dd8O97+bjogUtK6TWUe9cxzzdSBWDoHWFARVnbjO4U1cTZpFcps84RozijRppiNm8Zha7cadvNvh2i0hIUDcH75gbdIM+Y5u7eGuoON0MNnejErrNMXvYDRvCWN2wIdn32b9sE5ELiTv3+/fzrHL9l62L5H7U70yf9bzT950tzB+x1fsEJ9Lhj/KcZ+WfAx5aA/2479cjLeLUGp5O6fzyu36K1Wp108tIkiRJkiRJkuSGqTe9gCRJkiRJkiRJbp5aCv/NH/pdfMWb3gI4pdSYa0uIF+tEctd9pHNDVJoZiKC1gpQx69cwi9m8qpWusQ9RHQI3EsEigivAKsLAUuI+oDtghnRH1eK4EiJQx9zd1me0FvCCMg1/XEMw16iMZlQsK9CthzR2pbcZnaJCetIS84TdEWJ2b2szbh0VQVXobYuZDykeyWQzw3tHRu0zIrhFYhibKS70vo3zhWEG4oYA3Rq4gQ9pjMQ84R5CaRGeS6p4+Xk8+MD3MrZ/flK5Nyd/4WLnUThfvZ5flb38tCjFcvEFPnAlF13xMyN/YYjWU+v1cd5PeOGr/tz7Ocd9OvicP/kZKX+TJEmSJEmSJAFSACdJkiRJkiRJMvj8T/t9fPCrX+Lzv/Y7RoWxUFcrDKVowbabkHHuiFnMAZaY6StaY45uj5m/ogJaY8avxnxfIaqfVUYlNIIZuJSQuywzfJ2iocO8d7q0kM9SozJaJ+p6hReJ2b8+ZuuaI1owKUjZSwKa4+ro2KcQclqs4wI2ZuSGzO04hlbFu+PzlrZtqBRkiFV1Ga9dwXtUNgsoAr1H1XOfYz5wa4jFLGLc8DZj8zZSxhavWIhq67nPT+yUjuf9Ph9cj/xdpOHymXnUYz5o+4tVZeuy6eN+APae++CccfAgZf3McFPp26cw9QvwFV/yebzhj/6Rm15GkiRJkiRJkiRPCSmAkyRJkiRJkiTZ8Rn/2cfz0gu3eMOX/S2m9SGUirpjfab37ZhTuydAJFK9aCRwxzBbtK6GrI1E786ZjIQvBs1BSxkzhkdKWBaPFVlcRBEpu9roWtZYKVAqpU5jG3A6RkNVmGrsT0QxdxwbQeZI7cYKZmy7QUsFdLS5RpW0i4BqSG5AWZLPDbMGZjghn5fZyJHkHYlgM3rvuwpo7zO9xzxklnpserxkN3prCIYKO6m+cFYSOM7OSY4fe34E8M1MK7rMYz44jSp7tyfmjJ2cLkNePhkyqt2T54dv/tov5z///b/nppeRJEmSJEmSJMlTRArgJEmSJEmSJElO8Ic+4WP4oFfd5pP+7DcgUlAR5u0RU1E6Aha2KSToKgRuKSFAlxm+AjFzN+b8qoITVclCtM+WWmN7FBWJn4f8dBFUFKkVtI75voK5IRS8d1yjMlpUoSpFhd46bXuEaA25OxLIILh41C+3kLi9Neo0oWXCRyZSxnENp7tHetnGc7xHvbU3pNR4PT5EZe9RI91mxKOymr0/pfeYrewWNyKxbL2j4ggScpnY32nhe5/83Z1HPyVKl78Lu8bovefdL/6GYN4ziOcFUS8iDS9DZp71uvel+OVyup7Zz3104byVHJ+3pYj5/jO5f4+efviSXuKDpuHKs1T7/CjsZohf7etzAJfxJZJLQJ78Kwff8ca/zu/5hP/kUpaTJEmSJEmSJMnzg/jNfK06SZIkSZIkSZKnnLf+1L/iv/zib+aVO++nb46Ahuoasy1stlhvSCl4UUR0zAbu0FvUPAOguDsmcsJvuTtOR2Wkf0cttEuh1hpJY9GdDKXEbF9H0DphCDqtcS2U1WokfsHaTDXHtCAqSImaaWuR/DUihYtDEcUx/Iyk8q5WGgNzxGfoc8z93b+Eckcs0r7WZ7y3SBK3jltIY5832Dwj7pjNJySxe+yvzzPKsfh9oAA+NQv48S/ploTqYiL3K5D9jL9fD9d3iXqFr0ts7Pqkhj19pq+bvPy/PC7DNfsTSP9btw75jjf+dT7uYz/myReSJEmSJEmSJMlzRwrgJEmSJEmSJEnO5R0/+y5+72d/Ne9//x1USuQa+4xv7sUs3KJorbgZ1g3FRpI1om3uMc93xiiLAraQn4IhY5+qimtULyMFJ2pqiwtoVEAzZvtKrZE6rivqeo1Ma7xM1OkAb415cwdxp7UtbkYViYTtYmxEcIcqivUWIhuPBDMyBKuiNY7X5y3Wtnibd8K2uEedc5+htd1MZMdGGnger9PweTvSvx2bG9Zn1EO++pI9dkdxzEMcyqirXjhLCD/UHflI/crJv5/YYC8f7CdStouqPN7mIsLrIj5rv6z69BOu9/L04QL4vqrtc7bxB/z99PNlb7uryjWfeey89L887vtdeqJdPTKveulF3vJd38RH/4aPuqRVJEmSJEmSJEnyvJECOEmSJEmSJEmSB/Iv/80v8omf/Vf5ty+/wtxnrG2ReYNIReoExPxbEY8a5OEtVRWzjjgoPQSr9Z28dCm7ymdEUI3KaNGKC1HdrAUk/pRSKbVCWUXyGI0ZxbXgOiFlhQsohm+OEDpYp89bvBuUGqngpWbaopq5zRtk1D2LFgDMHC2xHreOtS30hiAheocUZtQ6u9kQQiHArTe0W8wL7m0I4eOk8E6Cq+6aa90dNCqzAdz7SAmfTASflsHLfQvLYzo2WTTyw4XjmLvMklB98Azby8DisNcvJ338zy7yHaf+Ik87vVI9db9ysTN3nQI4L/svjytumX4oH/L61/F93/VN/LqP/IibXUiSJEmSJEmSJE81KYCTJEmSJEmSJHkoP/eL7+ETP+ev8fO/8P/R24aCg1RkWuG21Cp3rM2osxO/kZi1SNB6SF4tBbTiI+m61C+HDSs78Rup4IJqwUtBtKBaYUjnIoVmHRdBpkJd30LrCqHQt3dC/I55v6KClhIizKG3GfFYt1sHHK0TjsZcXnocg0KzLTZvkd7itXQDa3hriMfcXrMx69f6LukrZrTWUHG8zSAWItoNMcfGupbq6d0Y0yX9a4YMOarnVEKfno27v40uVvJk9/YyRHjvvlPbYOxyrGIjQnw1qtJG0vu6EZeYh3tFBjbGZN+vixcpv6Syr1IAn1UlftbjycVYfk93AvgGTt2/8+Efyg+++Y18+Id96PUfPEmSJEmSJEmSZ4oUwEmSJEmSJEmSXIhf+pX383v/1FfyL//1/4MCfUmweofex2xbogLaHTzkblAQZSR+fchfiNSpIDLE75gFLKVEmlfqEMGKjRm5qhNQKVOIYHOPauhSoExIXUM/os3bY9nahwT2mFXsvgXv9GaoO6UoFI3wbe9Y2yBuWOuRavZOUQE32jwjQyz7Imh7zPyVnQhvdGshw3sbztV3yV/c6WaResZ3+0Ii8awQSeu9tLK7x7kYqeCF8yTf4wvgfXF5tbbrugWw7L2s06fhMvHdQXZDpSPdfo3y0Hy3CuD+ucM3IYDvO+Z9n72zU9ZX8RUE4+Q5OT35+r5FLWu5IQH8kf/+r+X7v+d/5Fe9/nXXe+AkSZIkSZIkSZ5JUgAnSZIkSZIkSXJh3vv+V/jEz/rL/PN/9fNxh4c28XnGrcXc352oLaPeNxKl7stkXxn/DemqoqP2WXAc3TMr5oQ4GwlgiqJaEJ0wFCm6S/VqXbapiEQKGUBFsN5G/XLD+xxHcMPMUDfcnO6GCqOyuSHWMeuUmBA8Kpwbvc3Hqec4EN62WJsRd/q8jVpgFcQjyRunKub8Lj8vSV9ZOrNFQDSmArtRhEgQa0jrffZnBC8CeHFpy9/FLir4zrokvPrLxJtI/+o1HPBYcu7HRa8fi8UANxJWfTgOx98EOTVFed8Rn/sazn9V8R48YLtHOSFXFxS/ML/5o/8D3vxtX89rXv2qG15JkiRJkiRJkiTPCimAkyRJkiRJkiR5JO7cO+KT/szX8Paf+leRMnQPIdotxJccCxyn03skYUXL8UxfCJErMjyQD1nMCdlZawkhWgoiitQaD0hIYGqllAKt0/uMi0SVc5l26WNRpc8NmY9w2+Le8e64OSIO3YZEjjSwjUpot4b3pSY66p3FO9Y7TswPdgyaYXMkjld1Yt4eRXWzxDxfEcF7O07z7lfzOqGX3VGNJDQa2/R53iV+ZTzvvNTmeY+dFJ7nRRevftbvyVX49R1xP7nJ1Yu8E5fXcr+0P3fbM7Y7r+b7rOdeZJunCvczv2PwoMrqR00rP/D8wXHL+XKf7D/I7oGbnvn7H/2O38p3fsvXcuvW4c0uJEmSJEmSJEmSZ4oUwEmSJEmSJEmSPBZ/+PP+Bj/wY/98JzjN5kgADykcIsXR0akaYV4dAvj+olU3QxG0FlyFjiO9IaK4DBGqShHBpIQM1gkpFbrj3iMFPK2QRS5bH7OAO7QttpvtC9YtaptFKEgI5FHFrAj0hm2PcOtjlnEHc3prlLG21rfQe6SFe6cI2KhrXsSTiGDdIomMnxDAqhKnqi8VzyBFx/Yl6q1V8G7YWKtqrB0kZigvCeDzaqCBk5L39Lm/PgG8JJX9GiKVcoPJTff+2Ad/UgH8TFzi2/1rfJD8vSjnnYf75Pv+c/a3lWMLHIl6OfH4RSX+g9Z1Hmft6xN/z+/iW7/5r17oGEmSJEmSJEmSJPukAE6SJEmSJEmS5LF5w196E9/+Az+OzVusb9FFXo3H3R1x8DJk5b4Vi5js+DHmBZuNRPFestjNKEWHiDFcC1IqujqAMkXiFyiiUApWCurQ5k2I2e0Rap1uFiliUYS+2zcC1uJn8Y4D1ma0bfH5Hm4a84nxOL4Z0mdsnunewDrS+3H18q7a2cfcYhDXkF415KuN+b+Oo6LgMacYNdwNcY25yCI7WWrW4lwuwnbXHH1SGO5ztgC+Odw9UuN69WpWlophHj09+qT4+KLB4/CoAvgi8je+LnDzVcbAmfL3PJ5UCp+Vihc/9QWEs4LxY5urOl8P+p1d+KQ/+Pv4hq/5sitaQZIkSZIkSZIkzzspgJMkSZIkSZIkeSI+5698K9/wHT+MCohWcMGsDck55tpazLKFk3XFIgUA8z5kiCPuywBTcBtpYsdVYx91QqYV1BVF66iDLpjbsWBWweYZpWN9pptRDXqLCuidTDZHlmO6j4TvFm9bsDmqm4nkcmzfsb6FZri3UQ/ddvNMd+nexSqN+0UEnSreh+yWmDkcIihu4uzqp8eLGNuCi0c62fy4spYhknyZK9w5me411KGP/ZUb1H/ujsXg5XHP/Qnwy0J352P3NYSldfzB+LKRnW/+XLh/7cfHucZy66ceH7fd2Tqn9jm5n8/8tE/iq/7iF9z0MpIkSZIkSZIkeYZJAZwkSZIkSZIkyRPzVW96C1/yjW+O5KsqutOHY2SnAAAgAElEQVQ/0HvH9ub6Ro1xVB8vaUB3R73vJGpUBXf6SMGqKlomtEzw/7N35+FRVOn+wL/nVIeEhARIWMLOICCCijp3QAUVVxgBFVFQWVzYBHVwXFCvOiPjOjKOIoJsCrIoCIICgtu4IKOjMyJecQZFBtx+guw7JF3n/f1xqqq7053QgSSdwPdzn75Jqqur3qoOPk/m2+97tLYjnrW2mZIClOMExzfGAErZtXUhgBu26/yGw3bkszGQsGufFT+otgGpMV4IGy4AxIVxw1DeOr7hgv3Qrgs3XOAFyG5Qf8wavVFBt/+cd+Gwoa4NnwF4nbBe0Cv+9thxznY0tA46iyHwOpklGDcdHB7RHZMGyvjBa+oCYL8eW4f/e1COATAMiv6Zm1QHcFIBsD1DzKao+88AOCIuAC5F5++x7MH7b8MdI4emugwiIiIiIqriGAATEREREVGZmLHkQ9z211kwbhjGNVDBjGINR3sBrQAGru1kjRr1HOkMFJukaRv6+sGuXQdYwYjydvHGSdv2XG8/BShlxzqLQDkargi0EahwGIXh/UA4DG0M3PBBQCk4jhOEtzZM9TqOXTva2e/wDRcWAIUH4YgL1w1DjERqjRpjHTNytshoXv95x3GiQkMduXxl1xyFRAJzf41fCKC8exjcM68rOPrcwfORM9vnve7oRCNxy0sQ/PobVPmGo8FVHe6fuIlGAZfn645yMbclahw3FW/yuEcx4OpeqS6DiIiIiIiOAgyAiYiIiIiozCx6/18YeN94KChoL/BTUHBdfzyuRAV1Xn4qAlEKSmlo7XihqF0r1j7vRrpedSQQFWPs67QOXmP7fgEnFILAwA27tuPXNRApgIQLocR4o5a99UC9chQUYFyIKYQyAhEXJlwIU3jQC4TDdrS1a+CvdOyPcBZRQZeuILLGb1HidUgDQPT4Z8BE7oEX1EowFht2bWWvg1jgr5NsbMe1PVjUfdX2eN4gagVAi7F1QaATJJVll13qoIvZqOge0PLvjNUoeU1VSg1/HXAq2YvTxqJXz66pLoOIiIiIiI4SDICJiIiIiKhMvfvJl+h/9zgcOHgAAIJOXX+NX/HWSlXGAZRAhSKhr0/E74YFFIxdoxeA8YJMf1yy0QpaKWgouMb1OoUBOBpwBXBdKCW2u9aI7eQV1wa1xgThstYaEAUVdu1av37gGy4EwgUwJgyIQdgNQ2vHrk0M8eJmwMaPOqbrF4h08AYdvYh0A9uw2Ia+fgBsg23xwmOBMZFaldaA0l7gDYjrxnb0+qOzjYLAtaUoDSViQ28ROy67aI0SGwD7ofGhJOomtlN+veg5Zs3fciZShiE2lYlgGexjIQCOvsDS/SZmZKRj4UuT0OWs08u2JCIiIiIiOqYxACYiIiIiojL3r6/W4fKRf8aevQe8/lYTCYG0gvHGLweMgRhvDV0vLDZwoY0GxA12E628rMX2syoTGYNsN9tj6FDIhq1+8KoVoByIG4Zxw9DadqpqAcR4aw+7XvgrBhIuiIyA9kc+i2v3TRBqiqjIuObo7fACV388s1cjvO0qpks4ujPY7m1MpAsYfnCsHbsOslK2tmD0sx3zHAmcjQ2XxXidzrYHuzwDYBduMXuXL8U/aysfiXzg4egXWfO8NOtb18jKxOsLpqHDr9uXS1VERERERHTsYgBMRERERETl4qu136HniEewfdceQPvr5EaNSfZCEz+ANMaFMm4kADauF+KGAWNDTCMCaK/vVlTwWlVk3LIoPxS1fbqO49gw2LgwbjgYmaxgYFw7JhrGRqTGDUOMCw2xz7lewGzCwXjjeP4o56gtCdbaFXhjoIORzlHr/MLeG9d1vYBaoLUdJw3ldQarYPi0XffY2Hrsvhqu60bOLa43LjqqZBUf7xYNgA9HsN5vOa/zW8zJ2f1bGcWs7X00iP6H5Csa9ib78QmDunVy8for03FSuzZlUh0REREREVE0BsBERERERFRu1n2/EZfe/DD+35YdkY2RRXdhTDjSvWlciOsCcAFj1/41rhsJKEWgoCGOt3iwQRCkirbdxOKNiNZiQ1ZX7Ikcr+NXTNgGun4jsbEdwXAN4BqI38EqAqW8tYNdL/jx1t09dABsO2P9y1LRr/CDZ+Wv8xvpog26haGDANh7CYy/hq6xddjAWwdHFrFrDhtjIq/TAjGx4WiiP/9UVJ2Hwx7T3tOKin/93weqnMQLf6tuMJ8o7E3ED4BL6gCO/1fRqGE+3lk8G82bNTnsComIiIiIiErCAJiIiIiIiMrVz5u3o8fwh/DfnzZ569mGvSDThTEGCsab6Gy8LluxY4uNwCgvoAzCUG2DUi8g9YYae+vjRuImJd7YZ3ijisXrpPW6jI0J2xA4bACvs1dDwRjXe02kk9aE3Ui0e8gAOBL2+OfVSkGgY9bfLTEA1k6wzd4fu0ax2FTcjqOOPkf0dUcfFwYCHbVOsRQ/jjcqBE42tPN6j73CK7bzlyOfK7eqFwBX3O9v65YtsOzVF9Awv36FnZOIiIiIiI49DICJiIiIiKjcbd2xC5fd/AhWr93gBb2201dcO4JZjGvX44WBQEH76/xKVGdd1Bhpv69VTNiOULYxqd0GgRIFcZRNoMIulBcV2zV9CyCu13lsXG8sc2S8st/pawNmCcYsF+nljaG8TuOgIxfGq8luD54Ounb9sc+xx9RaI2wMtHKgtbYhtXhjo7VNw8XvAlYqao1jHRP+GteF1gpQOrgee3nKC7FLIIl7GItuc4PQrOL+pPTXlI1eWzbRqG1KISPRTf5VQLLdvskeq/irbn/SCVi2cAZq16pZRucjIiIiIiJKjAEwERERERFViD379qP38Afw8crVMLAdvn5nr4YXmwQhpolaQ9QE3b5iDKAcKO3AroTrdQtrByJ2HWGIgaMciL/Orhgosd2w4rp2bdxwIWBcG5AiEtmI1wEMeKcWCbqBE5JDd82a6BNAQymBSGzXrj2VBCOt7QhoP+T0wmJtvxq/gxoo0v3rBEGvcd2gS9q7MAThdDJ/AhYJgf0AOLLWb3BlFYqdv1WAqUrvUVmGvyU7vcNpWPzyc6hRI6tCzkdERERERMc2BsBERERERFRh9h84iAEj/4S3P/wUthsVsAGvCdartcGrDYCVERgJwxi7xi0AKCcNorQ3YtnYjkMv61XGtSGxiD221jagFQN4obEGYNxCGNd4DcY2NPW7fkvTUaqT/GsqiEpV5Bu/Azj6fCIC17vW6HHRSjkwkKifAXHtCG0A3prAdmFjfy1gpcT7qoKOWRHxwmX3kEFwsPZyVG3wVklWKgV/RopUkY7SY1TwYYPUlpG8igt/u3c9D/NnT6yQcxEREREREQHxU7yIiIiIiIjKTfWMdMyf9DC6n38m3HABjHsQJnwQJlwAhAsghQchhQcghQfhFhyAGz4IGANHBMp1IeGw7d4NF0CZQqDwILS4UOEwHNd2FUthGGJcKLjQYqC8rmA/4HVhYEQgSqCUgR9AA0U7alXJYbCUsKYu7LjXm4b0B2D/8Ir940uCDl9jDIwxwbFCjhOMo46sBewG3b12xHOkXu2H3BAvmPXHPevguehxyaX9DLAE12nsSOwK7vz1h3sz/K3kSpmn3nLjtTjl5LblVs6hVUz4e0Wvixn+EhERERFRhWMATEREREREFe7FcaNxXe9uQGEB5OBByAEb+prCgxC3AErC0BKGmDBgwjAmDBMutGFuuBDahCGFBYBxYQoPQNwDMKYAxhRCKQMjkUBVgMjPIkDYAK6BcgVGXEgxQZCUFPCKv+5vYk0aN8BrcyaiWnq1Yvcp7tiua7uhY89voERgJ0GLF/aqICi2QbIbeY1GTHuyfxytnWDboQJuUbE1Gvid1sHA7OJvQBkq8X2gSuFw3p9q1aph0ctT0aRxw3Ko6FAq5kMM1w/og5lTnqqQcxEREREREUVjAExERERERCnxzKN34/Zh/QA3bNfoFQOtFTSU1+Gq4EDZNUW9QNQYA+OG4RYWQhm7JrBr/BVqATEG4o08tj+7gHGhBNBuGHDDQDgMCCAwUKKgSttb6uWrxQWoebm1sGTeFNStkxuMaE7E79b1H3YsswvHAbSjvDWQxRtp7Z3HePfAC19dfy1gLdDKwJhCQFy7SK+xY6QFdkS0rdc/X3Qd8dehJSo/VgZQYSDuWsuvJzfo+uXY58rNfrqixA9DFPtSEdStk4ulrzyPWjVzyry04lVM+HvXbcMx4cmHKuRcRERERERERTEAJiIiIiKilBl99834y4OjAG1DSOO6ENdAe8Gv8UJe8UYk+128/ve2C1bbbWEXEMCBDZHtSFqvC9h/jQJEe5FiksmikiKPEvbNyEjHa3MmomWLZvBOXOKxij7vc92wN+7Z9Q4TjhrfrODoEABE1kWGhnJCcEIhe42mAIAbd1yT4HyJujdNgkdFY9dvVXD475H/4YiWxzXHq3MmlVVBlcITj96PB/7396kug4iIiIiIjmEMgImIiIiIKKWG33AVJj3xQFTHqwvjhmFcu5avXZ9XoGCgvDhSRQdPXgereN2ukiDfDTpcVSnC36jAt+ijOLOn/hWntm8X/Fy0AziZ4/ivsWv+Ktj4VSAmHATgxrjB5Sil4LoGrmhE98satxDGC5AdxwGUgnhjnP0HtAruSUwnsIIdje0frgLbcINR3SmVqti7ivA6f49kCnj0hxE6/uZUvDT96SOvq0QVs3715HGPYcSQAeV+HiIiIiIiopIwACYiIiIiopTr36cnZk96PAh8bcApRR6W7Qz11/eVINTUWtngUquYNYAB2ylrQ2I7HdmGjCUUJFLq8cNPj/kDul14dsw2Y0pOyEoaPx3bAWu7f5W26wAreCOxJQyBsdcH5fU+aygv8FWwQbLrul7HtD8KWkMpHXcPSlpvV5fjI/E1p0p0SFj0d7AsH5Whz/owlcH7JEU+HHFZj4sw7onRR3zcEs5Yjse25s+eiAFXX17u5yEiIiIiIjoUBsBERERERFQpXNb9AiybPxUZGekJ19aNJiLe2rQKjtLQXreuhgLCJghW/Y5gV4y3VqkdG+04TonnKG2+NXL4tRg08Mq47UZKDvUkQSillAMRgdY6CGSDANsYGHEh8B5ioJTtFNbaRsDGCMQA2kmDmEi3tF0/WbyVlb2gWDk2OD7E/S5vupjvo6UmHC7PADjR49iRaH3swdf2xS3Dr6v4Yo5QRkY6li18Ad27npfqUoiIiIiIiAAwACYiIiIiokqkS+eOeHPB86iRlVnsPn5YqaGgBHCNseGmt06wgcA4CnC0DUAFUFpDtIIYgVYKBpEOYS3xD0clH4r2/O15eOSBOxI+F98BrBE9T1kDUOIGDw0DuAVwlEAFY55VsN5xMHrX+CG4hoHjhdwAtIIO2XBbAVA6BAMblmutoXUo/rqUhkDDQGLHQEeT+D8di17Z4caXwXrOIiX+gVp+IXWqunCLGS4enQUXXX+6mEdFxdJKAATd+UWZYrYnVlyg//iDd+OSiy9I+jiHOAvK+32tkZWFN1+bhS5nnVFu5yAiIiIiIiotBsBERERERFSpdDjtZLy7eCZya9cscT+/g1B769gKbNBrxyF7kZofGnpBbBCMKgWt7Z9DJY09PpTfnHYy5kwfW+zz8ceNDcmKdgDbUDeqJvG/N5EQODiUACIQ14W4BspfK1kpKK2Cczs6BD9cVErirlfE2IA4Kpj2n7fns4OaDxkOFn+bYq8x6i6kfuRzqs9fhETFwaUoLZmQ+Egefm3irSmdeIQ1UJrFoksajz53xjPo8Ov2yd+AFKlbJxfvLn2pStRKRERERETHFgbARERERERU6ZzUtjU+eH02GjWsX+J+IjZC9YNRf11RR8X+qRPEUsYLVc3hh76+Fs2bYMGLE0rcJ9GYWz86FRTXSelRgFYGELufiMAYExcCqyCsRbCPkeigVwGigp/jx0s79vnoc2tlH1HnEmiIN1A6KhM8LHb94lSGr35oWQkCYO+GKtFx8WmycWqiXuKyfPgfNkjuYqK/LxoSR55P/G8jYuGcSWjxq6ZJnDM1GjXMx/I35+Gkdm1SXQoREREREVEcBsBERERERFQptWzRDMuXvogWzZsUu4/f0RuzzR+TLAg6Yf3QE/BDYgnCzWLHHpcgL7cWlsybknSXsk/EwBtSndR5RAS2B1e8INjbDntt/j4C13YCG4F4qZ1STrC/vUbbwVm0A9iI8boxNaA0lHaC49qOYgeRPx3j79PhRKhRA48JQPxvceUR+V051O+s/9GAksL1yPPGuAmej8itXQtLX3keebk1ER8kJ/son4C/xa+aYvlb89C8WfH/bSIiIiIiIkolBsBERERERFRpNcyvhw9en412bVpFNno5U3RHa/TIYhuIRo84juqeDbaquIbGZEdBZ2Sk47U5E9GsaaND7hs35jbJub5F6/AmQ8fV6YfXWml7LhEoATQ0gnnCAJTSkbWTtY46rkAE0I4DJ+RAJLZmBRsc24eCH6hF3+NE46BLvC4v1E5N5JlspRVEYu9E0cpSUWnMePDgu7JfQzeZf2vNmjbGopefQ0ZGepmf/3C1O6E1PnjjZTTML3k6ARERERERUSoxACYiIiIiokqtTl5tvLt4Bv7nlBPthqjMzHbIRjp4jTGRYMnLK4PuXm9EsmuM1/0b6aAFku8Enj31rzi1fbukajfGhXjjnu3I5+QUX4dXK2LHWIsxUMrreHQNTDgMkTAgNvBVSnuv0jHBm+2gFogxcMMulFJwHBsWh0Ihe2wxwXjpyFrCKqZrNZlYNfXr/QKVKgAWew9V1C/04Y6ALkuxv3sCSXox4tJVm+wI8NNOOREvPj+uVMcuL6d3OA3vLp2DOnm5qS6FiIiIiIioRAyAiYiIiIio0svJroE3FzyP8885o0iHog1Bi4a3YiRYtzQ6XlNKBYHo4YRrk8Y+iG4Xnp30/nYEdNl1T6qSQjOBt0KvPaf27okrBgYC5YRgTKQb2r+P2tHQDmAkDCNhuCYMiIJxAVds7fYeO9499sPk5FWe8JeSZbu1keTav6V3qDWAo/32oi4Y98SfyqWOZJ3fpRPeWzoHOdk1UloHERERERFRMhgAExERERFRlZCZWR1L5k7GZd0vCLYp2IA3CDOjxxt7Iac/FtrPLI0x3jrAXrej3z2MkiPCO0YORv+rLitVzRJzxLII0gQaBkoia5xGX3v0eGjXde09MC5ctxDGuNAhB8rRgFbBV+MKjAs4Og1ahaBVCH5YrpQDUd5ayrCd0yrontYJHgkqTmn4W/7rwZaaKCjRlXbdX5v5Rj5IUF5VliYABoDB116F224ZUk7VlOzS7hdiyfxpKTk3ERERERHR4WAATEREREREVcqc559C/yt6QhkBojpZg6AXUcGusj2xSmu4YrzuX+UFw/Z44n8tYTxw70u7YvT/jix1rcaNDrmSi9IOFZj6YXZ02GuMierqjeqEFheAQCvxRjlrr5PXgYgNcZV3T4L1k71uXxGBVjZUNiJQWkHpqFWUDzEuO9k1lctPJQl8i6iswW9AFf3gQvkobQAMAA//8U5ccvEFh96xDF0/oA/mvDC+Qs9JRERERER0pBgAExERERFRlTPlmUcw7Iar4E+pNcbYjlcRQNvQV2sd0xWrXQn2tc85QfBpFKI6WyNr9gpcnHn6KZgx+S+HVaeR0odcyaxDHHT9+h3BGoCyXZsixgvXFETZTmDXABoaSgClBFrbryIuRFwoHRkLrbWDYGy1MnB0GsQoKDgQAxgIRJmE11aJ+mxRmSqBiL33UhF/ghfXja2K2V6Ecb1R4uXrcD8bMHfGBHQ643/Ktphi3DFyGCY8+VCFnIuIiIiIiKgsMQAmIiIiIqIq6cnH7sOf7h0JiAmCXKWUzUG9dW79UFNEgtG2fijsB8Z+mGq/Skz3Y+uWv8L8mRMOu0Zjyi9Ii/ljTiQYax21EfCuV0HgumG44QKYsAvXdWOCZtd1AWXvozFuTKe0iMBxnODeOY7tINZFOodjy6lE4WulkGT4WiaKW3daitketUcFvm+H0wHse2X2JLRu2aIMq4n3xKP348H7by/XcxAREREREZUXBsBERERERFRljRo5BJOf+lPwc3SwGxMKq8jg3WCdYOWvd+oFwxI7nrdenTy8Pu851MzJPuz6DqcDOBkqKqcTEaiYEDtyTmVnRUOMgYKJvFBsAOdoDR0d4nqXXzQgBuCFwwIxEtUtHc1E1RB5TTIdzWWr+FHeKVGJSimODfortn/7SALgmjnZeH3BdNSrm1eGFUVMHvcYRgwZUC7HJiIiIiIiqggMgImIiIiIqEobcNVlmD1lTBD6Rovu7hWJjDk2xnhhr0aQBPv7C5CZWR2L501Fo4b5R1TbkYRcyYiOexN14dp7oiOhtwjEuDCuCw0gHA4jHDZQcOyIZwDK0bFrKXvXEdnmAKJjRvgGxy9aX3l3lIqKLOIMIDKEOvWpq/1dEkRH5UE3urc2c/wj7ihxj0jXenGvS3Tc0pynYhzphyMaN8zHkvnTkJlZvYwqsl6cNg4Drr68TI9JRERERERU0RgAExERERFRlder+wVY9OKEoNM3ErTFdqMCCEYX+9v876P3nzt9HE5qe/wR11We+Wd0XGei/n9RRux6vf6+IgbaAVwTBmDghEJQykEoFIq5R35QHpwv6p4qpby1gqP/pIwfBX2si70dBtHjmcWupgwT9X/R98/ea7tn7MM/xuEGwJVDWYxHP6ldG7w84/BHtEfLyEjHsoUvoFfPrmVyPCIiIiIiolRiAExEREREREeFC889E28veA5ZNTKCjlR/7dpofoBpJBKfCgSiFUQrTHr6YZx/zpllUlN5dADb9Yy97tKoB6CjrtV4XaZ26nOwLrKIbZqNGpENMXBNIQqNC+1oeC+L6Zq2ga+OCswNRPzA0u9vVQh+Em9kNBDVrVr8vSiue/nQ9yFqrPUh1rctH4lrjA9yE1yP9574708wnTtmX4l5fdHO7Mg53OBRtI74c0eHyP7vSQqC4TL6sMD5XTph8rjHjugYNbKy8OZrs9DlrDPKpCYiIiIiIqJUU8KPaBMRERER0VHky39/g25XDMH2HbsARI9CjnT9+tttAOoGQef9d96E++4cERxrxYcf4uYRN6Ft27aHVcvefftRWFh4hFdUlkpYjzeYU1wW5+GfmVSytLQ0ZB3m+OZ9+/bh4IEDWPb2W8G20Y8+hceeKH03cO1aNfHmazNxUrs2h1ULERERERFRZRRKdQFERERERERl6aS2rfHBkhm4sNcgbPxlS+z6t1H7+d2srmvHIg/oe2lM+Otr27YtXpw7p2KKJ6JD+nrNGtz6u5Ex2/54z61Yu24DXnl1adLHadSgPt54dSZaHte8jCskIiIiIiJKLY6AJiIiIiKio07LFs2w/PWZaNq4IaBUMPbYGBN0/kaPNz7v7DMxddwjqS6biI7ArKlPodPp/xM3Njt6DLb/fYtfNcXyt+Yz/CUiIiIioqMSA2AiIiIiIjoqNWncAMuXzkS7Ni1hjABR66ZG1sAVtDuhFea9MDaFlRJRWXnlxUlo3apFwuf8ELjdCa3xwRsvo2GD+hVZGhERERERUYVhAExEREREREet+nXz8M7C5/CbU08KRj5Hy69bG0vmTkSNrMwUVUhEZalmTjaWLngB9ermJXz+f049Ge8tm4s6ebkVXBkREREREVHFYQBMRERERERHtZzsGnhz/iScdcavASWAtxJwTnYWls57Hvn16qS2QCIqU40b5uP1V6YjM7N6zPbzu3TCW4tmISe7RooqIyIiIiIiqhihVBdARERERERU3jKrV8cb86fg8oE3Y+nbH0BBY970p9CmdeJRsVXF7NmzsX79+phtd955J9LT02O2PfLIIzDGBD/n5+dj8ODBFVIjlZ+33noLq1evRp06ddCrVy9kZ2enuqRK46R2bTBv5gR07309AODS7hdh7ozxKa6KiIiIiIioYijxF8EhIiIiIiI6BgweeS+6nnsWrrys2yH3XfHhh5jwzHi8OHdOsfuEw+GYn5VScBzniOtMxgUXXIC//e1vMdu2b9+OWrVqxWwLhUJwXTf4uX379li1alWF1EjlY9SoURgzZkzwc8uWLfF///d/qF69egmvOjp8vWYNbv3dSCx7681D7vvygiV4653lmDrh8QqojIiIiIiIqHLgCGgiIiIiIjqmTB37cFLhbzJ+/PFHpKWlxTw6depUJscmKsncuXNjfv7222/x2WefpaiayqvP5T0Y/hIRERER0TGHATARERERERFRFZOVlRW3jSOgiYiIiIiICOAawEREREREVAY+eO99TJo4MdVllLmdO3ciLS0t1WUQxRk9ejSuu+467Nu3DwBwww03oH379imuquJs2bIF1/S9KtVllLkLL7oI1w+6IdVlEBERERFRFccAmIiIiIiIjtg553bBnJdewvr//hcP/OlPgFKpLqlMfPnl/+Gdt95OdRllTh0l78+x7Morr0TXrl2xfv161KtXDw0aNEh1SRUqOzsbv7v11lSXUWYmTpiAHTt24Op+16S6FCIiIiIiOgowACYiIiIiojLx5NNj0bf3Ffjggw9w1z13p7qcMhEOF+K9v72b6jLKXHp6eqpLoDKQk5NzTHX9RktPT8fpZ5ye6jLKxIL5r+C///0vXl28CBkZGakuh4iIiIiIjgIMgImIiIiIqExkZGRg2swZuKznJWjWrCmuuoadbL69e/fi9ttvj9nWrl073HLLLQn3nzZtGj755JOYbX/4wx/QsGHDMqmnRo0aAICtW7di8uTJWLp0KX744QeICBo2bIhzzjkHw4cPR7NmzZI63q5du/Diiy/inXfewdq1a7FlyxaEQiE0bdoUnTp1Qv/+/XHiiSeWSe0A4LouFi5ciDfeeAOrVq3Cli1bUFBQgJo1a6Jly5Y444wzcOmll6Jdu3YJX//dd99h8eLF+Oijj/Dvf7pZb9sAACAASURBVP8bmzdvxt69e1GjRg00btwYHTp0QL9+/dCxY8dia1i2bBlee+214OeRI0fihBNOgOu6mDNnDubOnYtvvvkGe/fuRb169XDaaaehf//+OOecc4LXHDx4EDNnzsSCBQuwbt067NmzB3Xr1sVvfvMbDB48uMTzjx07Fv/5z39itj355JOoXr163L6bNm3C7Nmz8cEHH2Dt2rXYuXMntNbIzc1F69atcfrpp+Piiy/GCSecUOz5Vq5ciSVLluCzzz7D119/je3bt6OwsBA5OTlo2bIlzjrrLFx77bVo3rx5scfwvf3221i4cCE+//xzbNy4Efv37w/u/UknnYTzzz8fF110ETIzMw95rKru7ytW4NGHH8b8hQuQm5ub6nKIiIiIiOhoIURERERERGVow/r18uv2p8iKDz9MdSlH7MPly+XqPn2Lff6HH34QADGPjh07xu23efPmuP26du1a7HH79esXt/+XX34Zt9/5558ft9/27dvj9nMcJ2afXr16yccffywNGjSIe73/SE9Pl5kzZx7yHk2ePFlyc3OLPQ4AUUrJ4MGDZf/+/Yc83qG8//770rJlyxLP5z+mT58e89rNmzfLxRdfLEqppF5/5ZVXyp49exLW8eCDD8bs+8ADD8imTZvk9NNPL/GYI0aMEBGRtWvXStu2bUvc95577in2PiT73k+ePFmysrKSut4zzzxTCgsLY17/j3/8Q04++eSkXp+WliYPPfRQsTVv3LhRzj777KSOlZOTI3PmzEl4nDX/+Y90u/CiYs9TVaz5z3/k1JNOlpWfrUx1KUREREREdJTRhwqIiYiIiIiISqNZ8+aY8vzzuGXETfh6zZpUl0MJbN68GZdeeil+/vnnYvc5ePAgrr/+enz88cfF7nPvvfdi6NCh2LZtW4nnExFMnToVnTp1ws6dOw+77gULFuDCCy/Et99+e8h9tda44IILYrbl5eXhu+++g4gkdb558+ahT58+Se07f/589O7dG//4xz9K3G/ChAm44447cMkll+Df//53ifs++uijmDt3blLnT2ThwoUYOnQo9u7dm9T+DRs2RCgUOyisUaNGWJPkv+PCwkLcd999GDNmTNxz4XAY3bt3x/Lly5M61q5du4rt4D4abNy4EQP7D8Bjjz+OU087NdXlEBERERHRUYYBMBERERERlblTTzsVjz3+OK4dMBAbN25MdTlUxIoVK/DLL78AAJRSqFmzZsL9wuEw/vCHPyR87rXXXsMjjzyS8LmMjAwopeK2r1y5stix14eybt06XHfddSgsLIx7znGcuHWNL7roIjRq1Chmm1IK9957b8zr2rdvj6uuugoDBgzAySefHHfspUuX4q233jpkfatXr8aKFSuCn3NycqB14j+5n3jiiZjxzTk5OQnvF4CEYWqyHn744bhtbdq0wVVXXYVevXqhbdu2Mee96aab4vZv3LgxrrvuuuDnzMxMdO7cGQMGDEDfvn3j7jEAjB49Gtu3b4/Z9sYbb+Czzz6L2Va9enV069YN11xzDc4//3zk5OQEz51zzjllOja8MtmzezcG9uuP62+4ARd165rqcoiIiIiI6CjEAJiIiIiIiMrFRd264oZBN2Bgv/7Ys3t3qsuhBO677z5s2bIFO3bswC+//IIrrrgibp/33nsPe/bsidkmIrjrrrvi9r3yyiuxfv167N+/H/v27cMLL7wQrDfsmzlzJt55551S1/rwww9jd5HfoyZNmuD111/HgQMHcODAAXz//feYNGkSzj77bNxwww0Jj9O3b1/07t0bEydOxMaNG7Fq1Sq89NJLmDFjBr744ou4tZoB4NVXX026zo4dO+Krr77Czp07sWPHjoShqu+cc87BN998E+x7/fXXx+2zcuXKw+qaNsZg1apVMdtOPPFEfPXVV3jppZewYMECfPXVV1i/fj1Gjx6NHj16oEuXLgmPdc8996Bnz55YuHAhtm7dig8//BAzZszAnDlzsHbtWnTu3Dlm/7179+Ltt9+O2VY0/AWA6dOnY9myZZg9ezbeeecdbN26Fa+99hp69eqFW2+9tdTXXFUMGTQYp5xyCm4cMTzVpRARERER0VGKATAREREREZWboTfeiFNOOQVDBg1OdSlUxKBBg/Dggw8iNzcXAFC3bl288MILwc8+13Wxdu3amG3vvfcevv7665htp5xyCl566SU0b94cgO0CHjhwIJ566qm4c48fP75Ute7btw8vvvhizDbHcbBkyRJcfPHFwdjiJk2aYOjQofjggw9w5ZVXJjyW1hrz58/HsGHDUKdOnbjnR40aFbet6PUXJzMzE4sWLULbtm0BANnZ2XjqqafQoEGDuH3r1KmDRYsWoVWrVgBsF/CECRPi7r+IYMOGDUmdv+jrio66/umnn/D999/HbGvWrBn+8Ic/YPHixcUeq3nz5li0aBEuu+wyZGRkxDxXvXr1hF3dRe+ZMSZun6LjskOhEC655BIsWLAAl112WbH1VGWjbr8DaWlpePyJv6S6FCIiIiIiOooxACYiIiIionL1+BN/QVpaGkbefHijf6l8JOpMzczMTNgFumPHjpif33///bh9hgwZAsdx4rb3798fWVlZMdvefvttuK6bdK2ffPIJDh48GLPtwgsvTDiy+UjVq1cP1apVi9lW9PqL06NHD9SrVy9mWygUSnhPr7zyypiRx4ANzTt16hS3765du5I6fzTHcfCrX/0qZtv27dvRvn173HfffWU6mr1JkyZx24reMz/ojvbkk0/i7LPPxtKlS5Nel7kqe+bpp7F69WpMnDI51aUQEREREdFRjgEwERERERGVu4lTJmPt2rUYN3ZsqkshAOnp6Wjfvn3C5xo2bBi3rWhYu3r16rh9fvOb3xR7rpNOOilm2969e7F+/fpky014vkRBabI2btyIKVOmYNiwYTjvvPNw8skno3nz5mjQoAFq166NgoKCmP2TDSd//etfJ9yen58ft+20005Let/ShOXREo3B3rVrFx5++GE0bdoUffv2xccff5zUsb766iuMGTMG/fr1w1lnnYW2bduiadOmqF+/Pi666KK4/Yvesx49eqBu3bpx+3344Yfo3r07WrVqhb/+9a9xY76PFq8vXoKXZr+IGbNmITMzM9XlEBERERHRUS6U6gKIiIiIiOjol5mZiRmzZuHSHj3QosVx6N6zR6pLOqY1btwYWif+PHB6evohX79t27a4bfXr1y92/0TPbdq0CS1btjzkuYo7X6NGjZJ6bbQdO3bg97//PWbMmJFwJPGRKq6moh3FAOI6hUva93Ddeeed+Oc//5lwDePCwkK8/PLLePnll9G1a1c8++yzcR3DgA1+R4wYgeXLlx9RLbVq1cLcuXNxySWXxK0pDQDr1q3D7bffjoceeggPPfQQRowYcUTnq0w+/eQT/PH++zF3/nzUqRs/dpyIiIiIiKissQOYiIiIiIgqRJ26dTBj9mz88f778eknn6S6nEpt//795Xr8I+1APHDgQNy2ROOfff4avdFKE8AmOl9pg9IDBw6gS5cumD59esJzZ2ZmomHDhmjRogWUUqU6tq969epJ71uWQW9x0tLS8Morr+Dpp59OuN6x780338Tpp5+O//znPzHb16xZg06dOhUb/tasWRONGzdG48aNk6rn3HPPxWeffYbu3bsXu8/27dtx0003JVxXuCpa9+06jBh2IyZMmojjWh6X6nKIiIiIiOgYwQCYiIiIiIgqzHEtj8OESRMxYtiNWPftulSXk1IljRVO1PFalorr/k1WzZo147bt3Lmz2P0TraGbm5ub9Pmys7OTOmZJxo8fjy+++CJmW1ZWFp544gn88MMP2Lt3L3766SesW7fusMPZI72v5UFrjVtuuQUbNmzAuHHjEq7FCwC//PILBg0aFLPtzjvvjHtfjzvuOMydOxc7duzAjh078MMPP2DevHlJ19O6dWssWbIE//rXv9CvXz+kpaUl3O+ZZ57B22+/nfRxK6Mtm7dgYL9+GP3gg+jQsWOqyyEiIiIiomNI5fvrlIiIiIiIjmodOnbE6AcfxMB+/bBl85ZUl1MhEnWUbtlS/LUX7cSsbFq3bh237auvvip2/zVr1sT8rLVGkyZNkj5fonHJidYFLsmiRYvitk2dOhW33XZbTAdrQUEBwuFwqY5dFWRlZeHmm2/G119/jfnz56NNmzZx+3z88cf473//C8DehzfffDPm+bS0NLz77rvo06dPzIcA9u7dW+p6fv3rX2PWrFlYv349brrppoRd4jNnziz1cSuLAwcOYGD//uhz1VUceU9ERERERBWOATAREREREVW47j17oO/VV2Ng//4Jx/sebRKNXF63bl3Ca//oo4+wadOmiijrsJ111llx2xYuXJhw33/+85/46aefYradeOKJyMnJSfp8p512Wty2V199tcRR2UU7rH/88ce4fbp16xa3bfXq1XBdN+naqhqlFHr37o1Vq1bhvPPOi3t+/fr1AOwazYWFhTHPtW3bFk2bNo17TdHO6tJo1KgRnnnmGSxbtqzYWqqim4YPR6tWrTDy97emuhQiIiIiIjoGMQAmIiIiIqKU+N2tI9GqVSvcNHx4qkspd9WrV0etWrVitu3cuRNjx46N2bZt27YqsfZp9+7d48ZAz507F6+++mrMtp07dya8nquvvrpU5zv55JNRv379mG0bN27EjTfeiIKCgpjtxhi88cYb6NixY0wnb6Kxzj/88EPMz67r4u677y5VbZWVMQZjxozB5s2bEz6fnp6Ozp07x2331zFOdL82btwY1x29efNmjBkz5pD1LF26FO+9916xo8/PPvvsuC7g0qypXJncd8//Yt/efRj7zLhUl0JERERERMeo+BlLREREREREFWTsM+NwdZ++uO+e/8VDjz6S6nLKVefOnbFkyZKYbXfffTfefvtttG/fHlu3bsWSJUuwdevWFFWYvKysLPzpT3/CyJEjg23GGPTq1Qvnnnsu2rVrh127dmHZsmVxAWReXh5uvPHGUp0vFAph6NChePDBB2O2z5gxA++++y7OPfdcZGRkYOPGjfj0008TdlCfcMIJcaOoBw4ciD/+8Y+oX78+1q5di7Fjx2LlypWlqq2yMsZg1KhRuOeee9CpUyd06dIFp556KvLz8+G6LlauXBn3AYRq1aqhXbt2AOzY7by8vJjfx02bNuGaa67BsGHD4DgOVq1ahcceeyypjvWPPvoIDz/8MBo0aIBu3bqhY8eOaNWqFXJycrBp0yZMmjQpLlxO1Pld2U2dMgWffvopFryauCOeiIiIiIioIjAAJiIiIiKilJry3FRcflkvTJ0yBYOHDEl1OeVmxIgRcQEwAPztb3/D3/72t5htDRo0wM8//1xRpR2WW265BYsXL8Y777wTs/29997De++9l/A1Sim88MILcd3Qybjrrrswd+5cfPPNNzHbf/zxx6TWiu3Tp0/cmOpVq1ahV69ecfu2bt067jxVleu6WL58OZYvX37IfQcMGBB0diulcMUVV2DSpEkx+8ybNw/z5s2L2Zaeno78/Hx89913hzzHzz//jGnTpmHatGkl7peeno7Bgwcf8niVyVtvvImpk6fg1cWLUCM7O9XlEBERERHRMYwjoImIiIiIKKVqZGdjxuxZmDp5Ct56481Ul1MqicbZap34z6zf/va3SXW+tmzZEitXrkTt2rWPuL7ypJTCa6+9hmuuuSap/TMzMzFv3jx07979sM6XlZWFZcuW4fjjjz+s1/fp0wddu3Y95H533nlnwqD+aNepUyf89a9/jdk2evRoNG7cuMTXpaWlYe7cubjvvvvKrJa0tDRMnz4dLVu2LLNjlrfPV36Ou0eNwgszZyA/Pz/V5RARERER0TGOATAREREREaVcfn4+Xpg5A3ePGoXPV36e6nKStmfPnrhtOTk5xe7/7LPPYvz48WjSpEncc7m5ubj11luxcuVK5Ofn46KLLirTWstDZmYmZs+ejTlz5qBjx45QSsXtU7duXQwfPhxr1qxB7969j+h8LVq0wL/+9S88+uijOO644xLuo7VGly5d8Prrr8esKau1xquvvorbbrst4dqyxx9/PObOnYvHH38crVq1wtlnn31Etaaa4zh4/PHH0blzZziOU+x+7du3x7hx4/D+++/H/e7Wr18fH3/8MS655JK491ZrjXPOOQeffvopLr30UvTt2xdZWVnFnqd3794YNGhQieFodnY2+vfvjy+++AJXXXVVkleaet9t2IChgwZh3ITxOL5Nm1SXQ0REREREBCWJPrJORERERESUAn9fsQIjb74Fry1ZgkaNG6W6HKz48ENMeGY8Xpw7J+Hzr7zyCq644oqYbQMHDsQLL7xwyGN/8803+P777+G6LvLz89GuXbuYwLIq2rZtG/79739j586dyMrKQn5+Po4//viEwXBZ+Omnn7Bhwwbs2LEDoVAIubm5OP7440sM4QFg//79WLVqFbZt24bs7Gw0a9YMzZo1K5caK4Pdu3fj22+/xdatW7F//35Uq1YNtWrVQps2bYKRz4eydetWfPnll9i3bx9q166N1q1bIy8vr9S1iAi+++47/PDDD9izZw9c10VWVhYaN26M4447rtgO+mhfr1mDW383EsveSv3EgJ07d6Lnxd1x6+9/j8uvOLIPOBAREREREZWVqv2/LhARERER0VGlU+fOuGPUnRjYrx8WLHot6XAqFcLhcNz6qABw2mmnJfX61q1bo3Xr1mVdVkrl5uaic+fOFXa+Ro0aoVGj0n9QoHr16jjjjDPKoaLKKTs7G6eeeuoRHSMvLw9dunQ54lqUUmjevDmaN29+xMeqDAZddz169OzJ8JeIiIiIiCoVBsBERERERFSpXHXNNfj++x8w6LrrMX/hglSXE1ixYgX+/ve/o3HjxtiyZQvmz5+PFStWxOyjlMLFF1+cogqJqCINHzYMdevVxai770p1KURERERERDEYABMRERERUaUz6u670Knj6ZgyaRKGDBuW6nIAAGvWrMHdd99d4j49evRAq1atKqgiIkqVN994A8vf/wCfrvws1aUQERERERHFOfTiOkRERERERBXs8cf+jAYNG1aa8DcZ9evXx4QJE1JdBhFVgK7duuHsLufgjttuS3UpREREREREcRgAExERERFRpbJg/itYsngxnps+LdWlJK1Dhw746KOP0Lhx41SXQkQV5NlJk7Bj+w786YHRqS6FiIiIiIgoBkdAExERERFRpfH3FSvw6MMPY/7CBahZs2aqy4nRoUMHDBs2DN9//z3279+PmjVromXLlujWrRsuuOCCVJdHRCkw5bmpuPyyXpj23PO4ftANqS6HiIiIiIgIAANgIiIiIiKqJL5eswa3jLgJz02fjmbNm6e6nDgnn3wyJk6cmOoyiKgSqZGdjRmzZ+GynpegUaNGuKhb11SXRERERERExACYiIiIiIhSb+PGjbh2wEA89vjjOPW0U1NdDhFR0vLz8/HCzBm4uk9f1K1Xj/8NIyIiIiKilOMawERERERElFJ7du/GwH79MWjIYHbPEVGVdHybNhg3YTyGDhqE7zZsSHU5RERERER0jGMATEREREREKTVk0GB06NABQ4YOTXUpRESHrVPnzrjn3nsxoF9/bNu2LdXlEBERERHRMYwBMBERERERpczIm29BWloaHnr0kVSXQkR0xC6/ojd6X3EFrh8wEAcOHEh1OUREREREdIxiAExERERERCkx9smnsHbtWkycMjnVpRARlZmRv78VzX/1K9w0fHiqSyEiIiIiomMUA2AiIiIiIqpwry9egpfnzMGMWbOQmZmZ6nKIiMrU2GfGobCgEKNuvyPVpRARERER0TGIATAREREREVWoTz/5BH+8/37MmD0bderWSXU5RETlYuKUyVi9ejWeHT8h1aUQEREREdExhgEwERERERFVmHXfrsOIYTdiwqSJOK7lcakuh4io3GRmZmLGrFmYNWMGXl+8JNXlEBERERHRMSSU6gKIiIiIiOjYsGXzFgzs1w+jH3wQHTp2THU5STl48CC++uorXNP3qoTP79q1Czk5OcW+fsfOXeVVWiWiYr5VAKToLt4GpSLP+a8S8XdQ8S8o6/qiaow+qwSnK8vzVg5KaXvjlQYggAhETPRF+3tCKfvV7h9130QgIt5ryu4e1apZ/L+dPXv2IDMzE1rHf25937592LtnT5nVUZ7q1K2DGbNno+8VV6BuvbpV5r99RERERERUtTEAJiIiIiKicrdv3z4M7N8fV/e7Bt179kh1OUlr1KgxCg4eRNff/hbHH3983PNDBg3Gk2OfQo0aNeKeKygoQM8rBx3R+aUyB5KOhlIaWmsYUdA6BNGAMoCIQDkaxgBKwjCuC8dxoJwQBNqGiQCUMXDdAgACKA2lFGAMjFtQNLZFXJAb85SCUgpijP1evHBXKyjtQETZe6kUAO1loQIYA8CFAmD8QwkAI1H3XqAkEl5LXFBdTF0SSb2Vt48o/0q8n6PeXxEDDR2zTUHF/Q4oKBvgeseGCJTSsdvsVUIyMhGqWReh7LpQWqNw1xaYnb/A7N8LgYFWjn1JtXQgPRNOZg2gWg6caukQCUMd2IvCvTsh+/dCDu6BkTAEsK8rg1/NNxfNLva5flddjeemT0NGRkbcc08/NRYntGlz5AVUkONaHocJkyZixLAbMXf+fE4/ICIiIiKicqdE4j72S0REREREVKYG9uuP2rVrY+wz41JdSqm9vngJRj/wABYvfR3169ePee78LudiynPPocVxLeJet3fvPtRpdkqpz1fZ/0QLglUnBBENwECH0iDQXtjpN5BqhF0XSlwAgHbSYKBsRyoAKAMpLIS4hRAAobRqEDEIFxQgpAyMMbEnjQpa/SBVa53wfokIlFK2e1Q5ECiIhL3AVMEIoJW/rwsNQLSCiMBRGiYcjmpVFigjUWV4oaxXhFLxAbD4nbLKFqu81/m166DL1u4bcw1epqwkch3RlFKRAN3/3mu7FhF7zVoBaVlIq9MATl4jpKVloHDHVhzcvAHYvQXGNRCtIToNoawcODVy4WTXgq6ehZBScA/sR3jPNri7NiO8bxcQLoQKuxANiFJQJrZB+HBt/XE1MjOrx23ft28fTm7bDt9uWB/33OOP/Rlrv/kGU55/7sgLqGCvL16CRx56CK+89iry8/NTXQ4RERERER3FuAYwERERERGVq1G334HCwsIqGf4CQPeePdCnbx8MvSG+mzcvLw9bt25J+DojJuH2ovwAMC4IrKQEAvGCVOWlqCIGWilorxNXKwVjwoAYwEgwhlhrx4bE2uv0FQNAQTsaxrhww2EABq5rYBNNJOw0Vd55TJF7Z8cUR0JZEUCMC1dcGDFB2OtoFXUsDQMF8QJdI166qbyTx70nXl3ecyoo0guJRaC0N3bZG6ss/uhl76sxNuAWY+z+ABxtu6mV9oPrxPffeK/xzxUdBtvuYHtNTlYu0mrWh5OWBbNvH8K7NsPs3wW4YSAUgsqogWq185BeJx/VcusjPasWlFEo2LUVB7b+hIKt/w/u7p1AYSEAY8NfaCjxgmtE7o8dKV3kLkW9d+Jdu4HAwHZbC4r/sMPWrVvRsFGjuO0L5r+CD95/H+MmjE98cyq57j17YMC112Jgv/7Ys3t3qsshIiIiIqKjGANgIiIiIiIqNxMnPItVq1ZhynNTU13KEblj1CjUqVsHd915Z8z2vLw8bNu2LeFrRCp/N+/h0Fp7S8oqv8EV8GJQ13VtuCkAoG2XrRJo5dgOYSCSlRoXSmwQ6o8iFglDQ7zu0ujVghOnoSqoxw98Y4N0EQMo2xBru4VVgvBU/LnP3jFtuAxlxzEriT2fEvuHtIbXRZzoPZbY8FppBehI16zyOqWDUwtgXBMZP+2FyMrR9qsXePvXGd0VrLyg2XYCK0haOpys2qiWVx86MwduwR4UbP9/KNy9DTACZOYgVLMu0us0RrX6LZBWsx7ghFC4ZzsObt6Agk0/ILxtI3BgN0QKvf/VQAFeOA2lbIirlA3OvbHa8W9RZIy2Ut5+fvivbMd1cR+S2LZ1K3Jzc2O2/X3FCjwxZgymz5yRcCx0VXHjiOHo0KEDhgwanOpSiIiIiIjoKMYAmIiIiIiIysVbb7yJac8/jxmzZ6FGdnaqyzliT48fj5WfrcScF18MtuXl5WHrlq0J948ZYVxEVer4jaH8wFF79RtoHYLWdsyy1iE4ThoAHTWqWAdRrjHGhsfevVEK0I4ND8W4cOxM5ISnDu5XzBK8AhN27Rq9gqCDVkWSVkRS6qig1But7F+LX69SkfOX5r1R4nfCRtYNjtwrBQlaXlWCTtmoDmbXBNdly/fCUgUYSBDyBtflb7dDrm1gnFEDoVoNobNqQ7mFcHduhrt7C5Qbhk7PgqqVj1CdpkjLbQKk10C40MDdvhkHN61H4ZbvYfZugxM+AGXCEC+gj3QZw47E9k4PFbks/8JsOAxAKyhH2+e0htIOtBOCdkJQTjWotAwYU3wHcF6dvODnr9eswa23/A7PTZ+GunXrJv2+VFYPPfoIMrMyMfLmW1JdChERERERHaUYABMRERERUZn7fOXnuHvUKMyYNfOoWesyKysLz02fhifG/AWfr/wcAJCbl4tt24oPgItfH7aK8kNSv+PWW9NXaccGkMH1CuCNOFbKhoD+mrwKAmPcYAwylIIxYsche2FjwnukvFbeqG5fv1s34Tq6fijrJcb+ZGd4Xbs2sxSI14kMAIgKJNXhvE1eEi3BkOOo9ztqTd+io5vjCGC8bmpxTVCveJ3M/uuU0nC8ewqloNIzUa1mHVTLrQetNQp3bkPhji0QAZyc2kir2wjpdRsiVKMmBGGoXRtR+Mt6FG79AWbPdqDwIIy4cAEY0dCioRHbYQ0AWgy019OtvZHVEkqDcUKAE4IKVYNKSwdC6dDVqkOlVYeulgknPQcqIwdO9Rw4Y6eI3AAAIABJREFU6TVgihsBvWUr8vLqAAA2btyI6wYMxJ//MgZtTjjhMN6Uymn8s89iw/r1ePIvT6S6FCIiIiIiOgqFUl0AEREREREdXb7bsAFDBw3CuAnjcXybNqkup0w1bdoUY58Zh+HDhuH1ZUuRl5eHDes3JNzX75yMdMIeHfzQTrTjrXWrva5aF6JDNtw0LsSE4Tga0A6UDsH498IIxBTa0FU5cJw0uOECG3AagdLKj05jzms7TmNHHxs3ErIrJ9J1bMc0K2+oswBKA8p/P+AFv34XsB9sxh5bvK/FdSQX5TfB2p5nv9NXoJQElxI5F7zKIjUAsadS3jH8oNs/R7CvsddijIEKhSCh6ghl10VarfoIp1WHu3srwnt3wnEcONn1obNrI5SRBagQ3P274O7eCnfHZhQc2A1tCr2QWUMrCe68qMi6ysGtVBripHkfBrDhv/3egVJOsN2fgK209sJr222tFbyAHCV3AOfmYs/u3RjYrz+GDBuG884/P6n3oarIyMjAtJkzcFnPS9CseXNcfkXvVJdERERERERHEQbARERERERUZrZt24YB/frjnnvvRafOnVNdTrk4s1MnDBk6FMOGDMW1112HlZ+tTLhfdLhVYrdnVaEV4NjAVyMEEUCryHhnKAc2onSDjlQoDSUqeL0SgTEFMGI7g5Xy1oE1BnBN7DKyouGHsjZIVEGgDnhr9WodGYuMqHHKsKOIlVJQRiDKtcvYGhu6+kULJFhD2BjbMWyiAlfxO4WTlKDfu9j9JOZpVeTFKvJkEA4re1XemGilBUpcKBWCo9OB7DyEcvORlpmFwoICmIID0Gnp0DVqQ2flAKE0qPB+mJ0/o3D3FsienXALDtog3p8NJgZGFLRSMBAo5cBxIvdGnDQoJwTArk9sg3XHdgBrxwbnWtn3xru/cF2Icb1024UYA+PaDwgY4ya8P9u2bUXdevUwZNBgnHraqbhh8KCk7n9Vk5ubi5mzZ+GKXpejfn79o/a/mUREREREVPEYABMRERERUZk4cOAArh8wED0vueSo72YbNGQw/u+LL7Bk8SLs3bs34T7+GsDRoWVVJiLQoiCwoa3WDowx0I4T6XT2Bi67xkD7nbxK2a5hAVw3bAPHYC1fgRsOQ4sLf91cAFH9rgg2BPfQG+8c6Z5VwU4iBojkwUGnLxwbVNsJ0ArQCLqFozu1/Uek6zb5DuCoUot8E3cpRW8s/NZhgX89US234ofWdp1fUYBRCnDFdtqG0oDMTKTXqoNQjdoQ5QDufuj0dDiZmVBpGXak9L6d2LdjE9w92xHevweOe9B7fxCM6bajuh1ox7H30bHd29ob3w0oKO3YNX69e6m1vx60sq/3xnvbt9NAjAvjve8irrfWseuNCC9+BPRn//wX0jMy8OcxY0p1/6uaZs2bY/Jzz2HQdddhxouzceKJJ6a6JCIiIiIiOgowACYiIiIiojJx6y2/Q0FhIc466yz84+N/pLqccnd1v3648/bbig2xgkG6SmyyVoVFh7teYhh5wIbDjuPAwK5Zq7xZxUqHbGcoYLt/xd4L5bWcKgAObJhb3KK7ds1h2ABUYrupYzqrvZDZH8Uc87wAxntHFJTtctUaogxgAB21b8zXcnzbEh1aILFrFXs7Km90tQAwythRy04IOpQGZNSAU7M+QrXygeo5cMMFcDJcOFINgjAKD+yH7NkOd9dmhPfvgik4iJDSUE4ILmz3rtIaSjn2HXYcQDleA7d9DlFhuEBBe++VuGGYcGHQ1estXgyYsB0DDnjBr8QE6fZoJviQRFFfrv4Sv2zciH79B2Dsk0+V1S2v1Fq2bInr+g/Aq4sXo3GTxqkuh4iIiIiIqjgGwEREREREdMTWrl2LMzt3wpmdO+Gbtd+kupwKM/Daa/Hjjz8mfE6MQJQfmsauMVuVBB22joaBiox31sqOgBY7Rtl46wC7biEcJ+SNLPaeB+y4YjEQMRAFhBzHjgY2bsJRy3Yss/F/AJSCmGBVXwgEjrZBsj/6OVrQ1Yuo9XyNHzYDtmNYoLyR0Vrr4Hz+COTSjoA+UhqIBOH+r4xXrgFsMBsKwcnIhM7IAdIzEcquDSenAULZtWG0XetYSQjuwQKYvTsQ3vn/2bu3LTmuI83zf7PtEQAPJYo6lVSlru6+0Ky57J5HqKea1e85a+ZqZqqqS6UjzwSRGb7N+sL29vDITIAAkQES4vdbKwlkHN09UhfQl5/ZX+DZF9jpOURwePIezkJYcDw8rfcyI+ccaG9kBnMTMwmNIHvf2tLEWkF6nGA91UtkwNgZbNErdHfHcoT/VtuR52cZOcZ/P+D//B//g2+efcOHH354jcv8g/Tf/vt/B+DzLz7ntygAFhERERGRN6MAWERERERE3tjvfvc7fve7333fh/GDUmHieZxvZmL+0qf8MO1mGptZjX7ejQSu83J6Br4LXb0t5KitGkH0lXktqlE8A95gH5Bv46RHoOvuBDWq2aB2EY/7Zkg7x0L7LhCefyaJYzScmIG8tzqlyO399m3ULVB+65l9MBfyztasmVMX0WlPntI+/CWHj39N+/jvsQ8/5vjhz+H992g9uP3ir/jtyunrb1i/+iP55SfE82cAtQ/YnuLHIx6NtBhjtGfzOCAN7yfITq6jxZtB7x3y/PnlDG7H51cN60ZajunevjWxY4ywNvPR0p49bF7YAP7nf/7n611iERERERGRHwEFwCIiIiIiIlfQI2os8hZydqB9z0f1qs6BbETSlgW32vXbs+N+oMcID62RZliMkNbr+6iIlwo0c4SGQY/OsjTy9lkFh51twjBUeJiAeYXHWws3RvM48mIncIXJMYLMGItsdzt0ScIaNkPjTCw7PZPFvcYXR1RAafP1gMWxnvXab+OSAzP8nedFVhCeDt4advyA9vGvefqb/0r+7B84/PwfObz/EyKS/unv6bfPWb/6jPzyL+TNF0Qkdjhio33r6RBB5Gnbjxw9sOyQtas3gei99g3309aSntdzG20+j5EK6G2E6zWNO8c+4drLvI3ovvDiEdAiIiIiIiLyZhQAi4iIiIiIXEGFitWarezyXQl/K6ubk5/NncjaO2vb7l+vIBbDm9ce5N3kYvcGGBmJWxLRiVhh7ApOnMAx+jaO+SHGuQnMLvCF88hnm8txt5e4v0t43rW9VmQVicc4a2tt2wO8ve7u1b6/4d3jWMKwpcF7H7J89Av8Jz/HP/oVx49+BYcn2LMvyJtnxBd/5vT5n+CbL8g8QeQIdxPyNMY4rzBGccdan4mNoHz21bex39R950b2udEO9/cxn5935u6Xn9X2XLufCYuIiIiIiMijUAAsIiIiIiJyBZlJGJfB2DuXeNk23rlBhaXWgIY5ePMKg83JcBZ/Ug3SsffV3cnTLWTgNvfY1ijgCly5SFer7WtbqLuPGy/CxTuX0V76jVXrd/ck9/N3SY2SJs8htuU+3Lz/fm/TObyuEDgPRzg8JQ/v0SPJ599w+vzP3P7134hP/id88Sf6zTPMkuyBZRBjz3JEH6Oyq7Ht4w321wKotvfFu59/jmcTHOZHeQ7NHwp69+6O91YDWERERERE5DoUAIuIiIiIiFxBBW6BN8cy6f1tjhJ+M1uAZ0ZaNXozRpBtXqloa7AcoB0xNyw66QtuhmfSTzf0dY4a7iMEXjAz+nqqQc9Z1yRH5Xhr8wJ2J5bM81/H/fPuy0bqZcv03B6ebewKLHcvMIJQd+jbeGnHrJGxfq/h72w91wDnjp1u4flX5LPP8fc/pd8+g9Nz4rP/IP78b5w++xOnrz4h1hvaGL0N9RnWcG3qvKNGW2fOkdO5azrbecdv2vne0f5OOzezc6y5ntf8VYLg7TNJau+wiIiIiIiIPDoFwCIiIiIiIlcQcW45OnNU8Q+vAfyi0b0J1dJlNEK9gmBrC+mOHY60p+/RlieEVZCYPkZDx8riRgeyn+jr2CPrdQ0s+8V724weRyt47v3NWQOej72I0Ldu8ItObDeWOremambi5hct49n4tRGUJpDZL1rD35eKSJNYV/Kbrzh98Wfs8ISWhi8L8fwr1s/+yM2nf+D09edwe0tztl3JQRAYlll7jrFq/eYMiGfLeYaxvv3swtiNjG9tX6ICdHcfK5kfGu88di9H3guHz0E8u/cRERERERGRx6QAWERERERE5Aoio8JGr3DUxs7c/AGGwHdZLfIlRmCbkRX8Wu3vTV+qFewLeXgPO76HH444RvYbTrc3mC+03llvxwzltgCjDexGrrFrGu/e3EfMG/NA5kPODd5dTfj8d6j3353DNr05zwGzJaPFOsqwJLk4xAyKA7cKR22GxvM1XzDa+JocsDR6BvnsC05//XfsdEs8+xxvjfXmG/rnf+H0xV/g9A1m1ey1GR2Pxi5AVhR8rlNvp2Pjne6au31za4CbW+23PpeH2d5o91lUi/r+LxjMv9caaTWARURERERErkEBsIiIiIiIyBVEJK0ttXeVXbuVF3ZWvxcPhZpBbgFpjrTUzAgDc6cdnrA8/YD23odwfB/e+zvae+9XCHj7DYt/RWQSbcF8wdoBY4xeJirXNSMfaNjWrXbvItkMe+2BAD1zu/mhuy+CZDv3iHOUsj3rvCLiYlQ0Zt/rZ7Ubbo2b0fuJ/PJTbp9/jX3+H/XZ9aQ//xpbb7Bc69FmpI+gNcc1tbral5fHt/OFy7A2d3Oy97fPvb13r1WOhnFu6f0u7LXLX3yYj9cOYBERERERketQACwiIiIiInIFESNGncHZHMGbwbbX9gXjl79PmVkjnptX3jrHO8//mmHLAVueEr7QnryHv/ch7YOPAFifNTw6nJ7TvQJBG43ajA4R28jlma7eHRNco4vzMqy9EyDun/cyRoW7Gbu4eYzjdvetoT0DzRlM2gioMx/uxr4Ntv1Zx+UE3qGvN9jNl2RCs9oxTQTpTh+PtwzYHbtxL1MniPNU8i1zrzHRd0c6373m59B3foi5HSu79i9m2+O2AHp8ru9CG15ERERERORdpABYRERERETkCmq/qdPMwGIEwrvA7Irh7+sEpHeZGWm76NGMtAoa6/gBN8KSZrWH1g9HzI9YA2+NDvTojJW6YwRxjhZw34W/VuFs5m4HLbvgeYaNl03ROq+xJTjywYA22SY/V0DKbox0xNaSjbUCafPztfJxTGZWeehun/BblTN2NxLDrBFZ19XCxg7eE0arczXwTMiO5y6YnXOv70TAF9dtnF8Q9x5x9+doC3R3wXC9xH5P8/1P5W7Qrx3AIiIiIiIi16EAWERERERE5Arm/t+MlViz9spakJYQ+eijhb9rm3gO+q2GaYWNjo1QcUR63sisrbINoAf0FTLItZOnW7I9I28DTrfkekOuNwQdIitQjk7Geufd6zV9jMfebp1rarex0ePv2BaK1kToB8Lf3Yzt2mW81YyrSUuNSN6ulVsd4wOh+Qw4K8q/fO23zWwEszNQ366Lb6O0tzHYd5+cr37Q+0i23vMyOJ4N3uT8M1f58nnHdYXD90P7bV3wFgBrBLSIiIiIiMg1KAAWERERERG5ghjjb2scbjVeL9uSj5Ml3h2NvN/p+ir2j4wZ9hl1zOP7pTUiK3iMiNo36430RiwHaE72E2bO+vwb8vY5ebql395WqGyQkVsTt1YA12vPPbzzcm3nNNuio/86j/U8xhkeauXOm+ef+2B3hrk1FtrItbO/VPtdtdvxfV/t3zqI+zdt6farff+6P2UXj876T3I3qK2fMfM5Hvzyp/mlo53NcHcMBcAiIiIiIiLXogBYRERERETkCmrk82z9ApZbA9W9EdG/e2v3JQHbQ7taX2a2Rmt1q5Nuo+GZI5TNsRc38eZEX+H2hj7HNz9vFeqtt6MN/Jy8+Rpuv8FOt1h06L1GPEdWWDgzVUu2Yquf273jTOZhnQ9wd5e94Lz2ZVcbj835jY+26thDvL3WA+OMzYx+P/d8y/LOn9fnD77VLgK2OVU6iRnYA23G9PPn7s5obgM6uY0+TxQAi4iIiIiIXIsCYBERERERkSuITNLAshqPEYGZY/Q7Qef3a4ajhtdxGiPEM8wc9zaC0fPeXdZbIpLwVnto+4ovR7yv5HrLevM1/fkzvHd6P5HRR4RYA6Zz1xk9B9YvOMCtynsOdF8nh92KwvNJ89rn+YXqs7FxHNVyPo8y3r3fvqb81vwwflZqPPjFfzZzHHddax/N9/q0p+33DHa/mPAD+p+BiIiIiIjI3xQFwCIiIiIiIlcQEWSvnbdujdpnWw3IOQJ55JoXHooXv63F+5C7z3lox+35Deco5iQycat/KlpzsFZtTatRzJ6QPaDfkN+AxUr4N3QzPI3sK7E+h3WlaqNJ5mg7z+Mwqz2/OdvA95vQkYFfXI28DH93zeVvta0BrmazuxNkNZhrTvRLmtOzt/2qb/YmfoCN2P1O5XFTMJrWydby3drs4+c7M6vVzf0x3DVePInob+00REREREREfkwUAIuIiIiIiFxB9qB5IxMie419ziQjyVxp50rqFoyed+OOex6xIvnyUdMzAPUKeEl8OYBVm7NncMDpPUiCoOPWSDrrzXPcvRqgARG3GEGsnTAjcgUCi3F+fnl+FRqev5+hb+WLuT/EXYl3N6r5BaFsbC+S9x6TmbgZGRUquy/0ftqa2u5+MRJ6y0CvmP/WtXjxfdN3GRn+Rl7ydn7xdxvX6fxLDrNZff+XHapPHKoAi4iIiIiIXIUCYBERERERkSuIDDKDdIc+9qQahBngW4OSnpdB5/CY4e+raG2pkdW+YL4N/IVMjm2h9w4k0TutNdLOAXbva+337StBH6/XIA2L9V4DdP59P3a5Ri07afmt5345RjgfvO98Q33VY6NC1pwNVR9N5M6yLBevdR4BnfsS7Au9akj7XcLcNw19X9j+/o4cvnUytc153dsu6fog9qOgtQNYRERERETkOhQAi4iIiIiIXEHEebdtukMEfa2R0Ps0cT9ceB+Qvk1zV2uE0RYnssJZw7YWZ0THjWrHBpVm5/YCGIGxkhF4W+jRMWs15jcCImmt0ceTtvHPY1Tw3DNseQ6WJ7tzSV52jbawc/ffHOOjAcLYWsb73b99BtsPhMrJw/tq74+Lvn98rxK6ZtZ+5P3LvOxn4e77vug93vS4XkfuXs64/Mxmu7la2ecHzv+NiIiIiIiIyONSACwiIiIiInIFEUFGrxHEZhV8LY1cOxkGVmOImXtTx37gtz7iF6tQ1xrm0KPj7UDzZRvbG1n7f2tnq5PmuDmRgWFYdDJPRPTz2ORMjLWeN/a+xi7UzUwsqWsw38gu29DzMdv3+6N+lbA86/XmEOj6HPbBqe/20tpoORd3r+/ne8zG9sXLP9zcftUx3uf7Xr8Bvr8/Hni+v6Sz/CrX7qGfw+05D6xE/rYQeu6AJrPa44YawCIiIiIiIlfi3/4QEREREREReV0RsQ28zbGHNnFsWViWBcOJYFZ/r3IMD7VZ9/fBfG9jXddxKO0clgLWalz1eWRv4M23Y06SyNr5ixnuCxlRe4DjBD4fN5uu823v7OVltmAfaOC+4LZXZvM9duHyeK8ZQs5G8jyudV1x9zEO+5wDf+tbvdJnmXe+Xs/9a/HQ14uv16tcu3nN91+v+/h7z5m/5JBBRlz8PIiIiIiIiMjjUQNYRERERETkCiJiC0nda7+s2wK50nMMQrbxnzGh+LFj4FcbP5y4w9Ja9WQzMF/oRu3IBehBZOLmmDXAMW/V5uxrjX9uNe65NR/BamI49ApSz+9X46Bh7AC2c/D6bSOPv+NVGOH7aKAGI6j2i3bqJrI+iHn/DIbf4Ajue9zRx6/ym92P2iz/ri+1e54DqRHQIiIiIiIiV6EAWERERERE5AqqAQnVau3j7+dRxGaVNSbQ3McY6Os2Ivc7Y81GP9mNdCPTRuBb98XaCTd8HHWMunLzRtpoxc4gc7yuezu/R0L0GgE9A9TMPAexsGuJ3h99PRu5jyH2570Lfveh8zYeeoSS7Wr7mNV6hfp8e/Rvf6CIiIiIiIi8No2AFhERERERuYKkdsxCtV5nvlmhot8PON/C6t8Z/E7ubRyjbW1k88Z6OmFmLKPlCx03x9sC3si5RzdrJHTt1Y1th+4c79u8FueaZSXClvemXc9A/G7Y6skIn9/wnKk9w/ux1pm5Bb37azJD4P3t9qgfzI+78Xp3NHSoASwiIiIiInIVCoBFRERERESuYAu3RlCadNx3waIZ5qNtO9rCjzqm99ukkeMYRkyK0QDD24E06Blb/FlTmxu5/TNytHYzyehkBsuyjKZw4q1aw5k5zu9+yxe4SHhnTuyPnAtaju71toMWyCR6XIyBDpKcO4vHffmooe2PN/B8qE099y+LiIiIiIjI49IIaBERERERkSuICCI6lolZo6eRccL9UGGYG9mrEWs+9tQGXDMknCGcm9X7z9aveTWBvfYR44bhjCHR9L5i3nA3ws6N3RzhbwXajs3durES61r7hJmjn++EgJmjeDz2JF/tpOu9zEYo722Mua7b3X0LqolzCB85RlUntUH4OwX0CjhfNkZbAbCIiIiIiMh1qAEsIiIiIiJyBftwq4Y+W40ittm4NdzbeMAIyR4IGK+zh/YcvJK193YLNw161GjnHMHoNr56P8Y6kxx7gec5retK9F7jlV8y3nc/ank/EvjatvfdXebzDmC2wNrM8HZnNPbbbGf/DXiVz/Vtfe4iIiIiIiI/NgqARUREREREriATWluqHZuBjTA1o2NENUq9YdbIEaCaO97axes8ZvA4R0/nlr56Zc9usB9NbQk5jzNwd9yXbafxlqFGAo1Mr53HGbUXOFYyYxeunl/77nltx3StLHAX+JpVr3l+f9H+HW3drBo2EVHjsW0E3823APzVKNz8NqkdwCIiIiIiIlehAFhEREREROQKevQKFzF6JJkdoMZCW4W9mYww1kk3omJUMq8TiM5WprlDq32/5r4Fu3NsdXMnox7be8d8IX0eV90eUedTAev5NchOzvu4H/heHMe47e00QWvEdr1XUht/4yKAPrezd8c7Dq2C4pe9/gyR59ePN9x81c9TI6BFRERERESuQwGwiIiIiIjIFUTvZCbeWrV6vVXoSYWfbk7Ybv/ufJ6BN7/Ys/uYzB3cCUbr1xvYPtwNMmtcdUbQWgOcyGrDmtW+YovAyF2zt8ZCEwERo2l8toW+QMNoGJ7gV89JRwt5BLsZuY3cniF0Hf/l52BmWzvYzGpf8LUP9R33uj+vCoBFRERERESuQ/9+FRERERERuYKkmrYJI2BNiGqhzke4VQiLj0h0Pm4856GdwK99HDOUS7ARciacW8jUzt9OQnNaO0B0ItaaDO2NCOpY52v2m21UsmPV+O2nGhlNkj5HRZ+DVsZ7JtBt90UFq9fasFvripOwGK3fallHTwyn92oru/vuOeN4E3yEwgljVLc8lkgFwCIiIiIiItewfN8HICIiIiIi8rcoYowaHnmuu5O5AjNgdObE4cysBDTPo4cNdmOJr8fMWVojbRd8kvQI0pxmDZbzPx1tBMruTl87uNH7CbMOERcN0IeO/e4o6PrLlU5ur3Jf3Gupr7uDGW02s+8c67wtMyvMH39/8afx4x35DN9tjPfbGf0tIiIiIiLy46MAWERERERE5Aqid5ghIjDSXWrrbwAOeW5B1pjhuj+t2qfjWY/Sjs0xvjndtnHIW+M4qxdL2thJbLgvWFvI1giSxbz2F49dxpk1Tto8sZ4VDEfU6OgXhMAZl2OU30afdtszPP+es51t9eccDT2OeTaBKwCu0dERc7Tx/tPIO3/+eH3XILeHrp2IiIiIiMg1aAS0iIiIiIjIFURUIFr7fm20fUeYGAnZyexUEbVC4jkRN7OGFW/h5XcM2C6fN3b+Vqq55ZaXY6eTiNFSrju3nb8RQUYn+jpaseCt1R7X6NjYETxfk3E+sWsF+/cwQnm/l7aa1nYx7nnuoZ2P2x9vjMfb7mv3yvzYw9832VGd5moAi4iIiIiIXIkCYBERERERkSuIjK01GrmyriutLXgb/wzLhDi3f82c1tq4q5qp90PH17N/vpmBj5HGs3k5Uuek4+5ExO79HLMFAzxqh7Db9sKY+QhPa69uX9dtPPR40PktmKf83QPD7+pF1zAi6ghjBvT1NcPhuRu4974Lht/igf/APcbnGLqgIiIiIiIiV6EAWERERERE5Aqid8wCqMB12yGbABX8emsYXqOia0EtRqP5YZe2JjbakhdN1pe/OxBYBplRgW07//PP24K1hrUFs4XFDkSAk0AncZbjOAYz1ujAiX464eZjmnUAKxkV/GJ1nrXruMYnN7cxUDrJ7BjxRoH2d5PM671/bzMjMrDmNYo4ahT2DHzdfRvDfW4Nz9eKt3wOPyxv2khPHLM29mSLiIiIiIjIY9MOYBERERERkSuYu3XJcyi6rrcjDA2MhHDA8LZQ22YNrMLFuXfWsNpX20eTNitUBuPeiOd65/rObIwwHsGn2dhJ7CTn1msY4FYh7jhud4OswDMBN8divmfgDhEr2QPL2i/s5gSxHUVE1HN8N2+67nngaj0UCj92OJjkeQ0zl0c1rhk29iGfdwNf95jePW/S/L0b/qcCYBERERERkatQACwiIiIiInIFvfcKRzMqIQWW5QjMcLdTkWmFwVVATTDflgHnLrjFZkj7ohbw5feZiblRo5yr/WvugI9cOrchzZlg0StWNq/AmgpEc4xIJqF5I3MdTeYaC20xxiOP993GSGduu42/3VsIAkf2mNHxMWp7JOp1vj3Aak9xjpAeGzHwdq2Th8PqH4c3Hfu8Pb+NceQK1EVERERERK5CI6BFRERERESuoHbGjiB3H5yZj2CWbc9vREB2tnasnXfXmhkBuLdRX311823T5jHU8+drzZHUFnFuLHPe23seOz1GWWevo7YKhslOZL+3ZzdHOMz2at+/fdgYY78v7FrP7w/mAAAgAElEQVSpbtuA5+26Rx/PZfssf6weZXezG+m2jUNfd5+DiIiIiIiIPB41gEVERERERK4gI8gIzGvecO07XTFvI2ftxFbozRqj7A7WamewO/S+hcTVADa2HPJbs+DR/m2tmsT1Npi3MQa6QmqIar3GbMC2et4W6CbRVyw7mRDRt92++73EwAj2YhuxDGD5/fY8c0a/aedgve4YD8htx2/vHcgaZJ3jM7AxGhrjMTLQd813Dn7n8+YvGoxrSJXJzy1sEREREREReXRqAIuIiIiIiFxBbPXbwIitvDubs0bt6M0xHroKuIZvE59H43e0UGMGqfbwdtr7agR07prEztwHXLuHzc67gItVQH1xDh2iUxn03A9MncMIrefzY4yotm1PcY4Y+nv8x2eC5Xz/0XQ2IzIuAmwzu7gWcxz2OcyeZ/Lj8Uat3zm+HC6uqXsbv+gwfwFBREREREREHpsawCIiIiIiIldQY4ZjzhSuMHY0f2cIa54VENuCUWFk753WGltY6VZhcUSNazYHC769jlohb2bi1qqBvMzbz4+poHO87rKw9qS1847ges/zOGQzo/cT1mfI+wN3Ly0f241nKJk52trn89uPw563ba/1DpzyY3iUkc9745cF3B3zRicVAIuIiIiIiFyJAmAREREREZErGGVYkiB7p7Fv41Y4W87BI0Brjd6rXduWI9FP533AzbGIMU764YBu9FkryLRzZpkGgWPbHl+vUdCZ9B6A4RjuhmXQR/CbEbjDulZA7VjFxrbbMXwnLNzvA/7ezUOz+Z9q/5I5wsgKxLdTGA1rc9/OK/MdCbsfyaOGv2P19Lb7Fxs7qV/hdxhERERERETkO/lxza8SERERERF5SyL7Rfu0WqVBjuZjzjYvtVc3R2IcEbRWe4J77zUud7Lzl12Mbt49ZBcyJ0kbY4wr7LRzw3X3ohGxjYiuluZ8jXNI5yMg3kJRrtASvYLzdRpjr3HcfAS8naQTuY5dzTGftH0e+/A3I96Jc34Tj3V+81cUtuHiZnXNR9PdzM5j0kVERERERORRKQAWERERERG5gjnedrZ9M+f+3DHWefxrzPwAGA2DSBYqaPTW8HYgoyI03xqpNvYGn8Pf/S7bvWYHEh+BsWNZo6XNO0lyik63E2Yrh8XpC5h1+giQLQInOUVizWseNEFG1i7j89mSBDXv+ofalc06fCD3teAwzBoZkGEXIW9GYthoq2atZObdCL5f14t+hh6DzTnjgLd23of9t3cZRUREREREfhAUAIuIiIiIiFxBxH58cCdzJdZq2hI5ds6eO5KRCZac+kpsYVwFr0m1gWdzcmltG98M55HLc3etYdt4490mWxLj1CHtSPTk4IZ3w9sTTgEeB8KejmOrdmySWIzWMmC+DZW+aCBfRtI/RCO8ZgbzuyNOmGOzL77cR3BZITF+Di//llwz0E6gfodhXMtIIhLH6b1f7X1FRERERER+zLQDWERERERE5AoqAHYgtoXASdZO3uxVBB6ZmLlDxggXrYLWGVBmYtbGWOa7zdsKYz3n34E87xruWwu5bSOhl8NCHVmQ2bDjh7Sf/QyefkB79ozTl59ALBA3JCuJs7jRM8kIGK/5oDwf1fflYuUv3AvJq8M7Q91x2z7VvWjC2sh/90Hx35arhr9WX+Zegfr82R7X/2+xSS0iIiIiIvJDoABYRERERETkCiLPI5ErOEzMqqHrY8fsth/Vjd4DetLcyYxt9PPczzvDyiDIvlbDd5ZxYWsH59j1m9QuX2Cuv61dwOPYlmXh5ulHfPS7/4Pjr/8rp8MHHG++4Nm//d98/S//D/bs67EvGMjAzSqPJu/M7o0a8ZuXjeC34k7aG3Z534uOxnbLjR9qUSfnkdu1q9nuh8LvuGuHr0aNfk638QsMjSArDM7Ran/ZLxOIiIiIiIjId6YR0CIiIiIiIlewD9gccJzMTkTQeyf6ee+q+UJrC81HMJy1BzgjcK9nZyYRvYLfNhcI27l1aw52HllcAfQ5I63Rx0mYY7bQ/cgHv/3fWP7+v2DLU95rC+vhKe/94//O+z/9BRmGR4WfQQXR83j34TWMsO8dCkVnyLv9/U4YDFyE7nVnH+O85XVcBM1GdeDdwNQAFhERERERuRYFwCIiIiIiIlcQu3ZjWH2ZGRYrixltmWOFg77eEpFEeI3NZQVWzCHxbUx0tSfnyGcwHLyNPatW43ZHU9fMSas2sJmPHbY1BKpnJ1vjg1/9Fm/vkR/8He2nH9KOHxDHp9jHv8TzVOcQUWFvrNA70U9A1DDfrL3EATXr9xXM0C921yUNwry+vLYP33seD4SvBt3mpmLwWqNcf4732B+W1QtVuA5gNv5RfN4LbGZb+3f7/HrnXKPev9qL/kn9www29wH+m3nZuc83G5+F1S831M/S+JnFz7eJiIiIiIjIo9MIaBERERERkSt4KNzaxjTHSo5/jnlr417Dmo8Ry7Z7fE0rrtats49Htz/nHmHm/l8fQbCNZnDtXzVgjaBZEtkxcoyLPpL2AfHUaadvWNagA3ao3cTreqKNYHmpVBrmPmNe8zeLzS5HNQOWvtWIMx27E/bWdTi/S3IOdm2EskkFjhdToOdjHsg7z+3ec9N3Npu3lvO43VvbjiF73x/Fi07yBbd/fx63bfuyc989xhfwaqPn+KUEqLZ4cHeftYiIiIiIiDwWNYBFRERERESuIF4Qbm0NzKiRzBXM2RhLvM1zHg+GzNoB3NqhAlIz3NsI0yrkxRq4Q6uWMOb1/QiBKxSuFzSrBqxl8tWff0/EDdlv6M8/43gMenZOn/8Ji6CZV4szFiL6g6H26/+jsnbCnsNAO5/3+N68cW7cXoapd1u9jyG3y375wtve5dmC1sjiV2f1Cw3W2vazaK0a6ZAQnfiBNqVFRERERETedWoAi4iIiIiIXEGFrHdus3OoWIXaakfarrWbmaPOCpcB8dhBm1mjoEeAXIGqk1uLtd7L0nCH9BrXmyRG4AmR4JE8+4//lyfvf0j7VbK2Iy0gPvsTt+st1g7EGhAd80acxg7heTIjx/P9ub3Cdan25zj0EXxX4Dsby+MatP1u3hFkc27ong/hfJFzd4Q+vub7MJ9n41kZgOFbOM72mN3wZ6rpnJi1O/nvy1qw/sD9b/v3r3fx6tWC65eck1ldgXHN5y7riPoMe3T61qYWERERERGRx6QAWERERERE5Aq21uhOznCTCojdq+EavdOaE9ExW2o8cwZmSdJorULQ3IWmYFvE6G3sCWYUi8nx2iMiNiOjwuOMCjPdIG++4ut//b+wv/4r/dkX2OocP/oJTz76Oes3X/D8q88w1hGqjuMekescKb2dG3nnlnH7bpRyhYLnZ1aT17aG6NzLm1m7YrOvFY5DPSaiGs4REElaXLz+HA19Hu68z3/PoXH9pUZq52w1z/cZIbSZEbFu4Wnvax13JdD1ei9KvO/e/30UXbfj5DUnUp9HkNdzt99GuPewezfNYH6OHLca5m2Z1ULHRphOtct/gKOyRURERERE/hYoABYREREREbmCB3eu7m/LAJxmTk2EXkdTEiwbRBIkbk72qPCYRvMaCx0ZW5S6H11ck5UrUI2M7VjMDNIwhzAnDbwtEEF+/hn55adkrjzv3/DkF//E8ovfcDjdwFc33HBiydx297oZvj+VsTv3oTxvf2w5dxMzHmw1sjp3r1vBax13aws1trp2BPcR/rbWSK9gsvd+ETw+cNGZPWGzNm4xsifWAK+dzKTtitdJj6B5I+m7kNmqPv2y8Hee2/be75p5FRyI3fd3bOn6eNY+6AfCEstkaY0A3BdmyzuzY+1A1w5gERERERGRq1AALCIiIiIicgX5QLjleRkMR65kYwScjuHVHN5GOs/WbQdaBZIj+HWbfUrIHEFq1nPNG4njYxJxPSaICFpbtjDOvOHeWG+f0eOWhSS+/Jx1+QPLz3/D8tHfc3r2NfROcsLCtoD0RdHdi8LYsDrm87zl3FrLCbvQt0LaOfI500beOkY1z9HCGImDG05CRrWbvVXQnrkfWL1dR5stZBvXmsvgcj8COjO343L3kd/nFok+dK4VhN7ZlWwA9/cnP5qcf+S92767GMf9wJjneQHmee5GlkPtoq7wvPZPM/Zem82x3qPxrQBYRERERETkKhQAi4iIiIiIXMEMDuEFbWCYySyMYMwyCUvcvULgTGCMOaZ2BUfNR2bEntUabkvt6Y0OGO7LGBk92q85Rim7k2Pf7ty7m72Tp+dYdiLB8obTJ3/E2lP8Jz/BT7/i+G//k9PiIwp8tdBuH47GaM+em8Jz32+F1UaMcx6dZrMRXCfenAwDNywhfVyyUTkeMTAZNao6sQom53xse+C4ttvOe3q33cN2blUbjN21VLV6a1LHZZn7zuf7ws/7jrsh+UPPe7jVfPdBu9Phgb+/ll3g+7LXuHNtfXdz3WD1MxiB+fi/HiJqVPgYWV4/ryIiIiIiIvLYHvhVXhEREREREXlTMwB+aRiYAVEjhjNrR6+P0bk55iLbbJ1mEj1GAMm43zFfCG8VsrYFWxbCIIwRCsfWVl0jsLEk18zw1sgIcr1lceiZhANxQ//zv5Bff83yd7/CPv4YrBqdAJHJQx3g/bnOPbrs9hVvj8msCdjmhPs5LE8fjd8xbjkd5t5dxg7k9BEgN+ZI4SCJ3I+Ynv/UfTg8NWrMtLc5kji52+btvW/7g5PR/p0h8beGq8GrNH7n++7f/9se89Dj9rfPv48r+Ppfaa/wmMv3P7ehHdwxa8T4zOf1dG+7x7cx9vyKrWgREREREZEfMQXAIiIiIiIiV9AjvrUJajYakhH42AMcEdVkNcP9WEkujs3wNsE88cVZjk+x5VCt1QS3htEgHcsgrfbe2gjlvB3AE4sk/ADeiNvnNR66V5OWNNbTibz5ipu//BseJ5Zf/Cfaez9h4TTCvfbyFbhjh2zgFUq7b61ms/F9m2OujaUdMV9Ia+DjeN2x5hUUJ9i8ll67g5O+BZLYaAhv46HrsqW9IIbNavYaXmOjR9t3/7kAFY7naBdH/5Zzvnv+r/7o8mqhMWnU7wrkOYzeTjq39cQvC5Vf+NJ5bkS/2hPOD68fzdia1J5g9DFu2yBXetxi7gQzZF9f6/hERERERETk1SgAFhERERERuYLXaTdmVGOztXbRrrQ5KhnD3TCv5m1ENV7DDGyhWaswde4OdqvcGDAfYebYdZs5WpruGEn0Wxyj99h2tS7uBNCffcE3f/0PDg2OH/89fXkfonOwyxHID3Ibu41ttIG9jslye65ZNUOtNcwabWm05kTGdrzbzmADrIPNscxtXOdxDanA1qldyx7jz616PBLh9BEoVxP44lqPzy0za8fy2FNb4XXtUcacyzHJ9sCXj6+H7ptf9y4Yr/1P9KxzrvW7uV2m18pw736Qr5Jb22UjGOb184u3dlvG7manRzWEzWoxdcRKdI2AFhERERERuQbtABYREREREbmCF+1z3d+eY6fstld2hJkRvQbozjC3B1kVYTDHlkY7PAFfmKXNLSwdI5edtoWo0TtpjcWXaoZ6o/kCvZPrCaJvAehs2nZWlpMRn/6F54uxfPRbDj/7Leuf/z+IW9KWe1nhPL8tuDYjo4M7NMfNK+DOrF3GHZpBejV6s3eo3vBYj5yY1+jnGBenwl/HrK6Fb/tvR6o7m69WAW+dT7s3sjojajy2jeMZSfIcWz0/p9ba9t5mzvYhbS/3uk3f3fMSttbvvT2+4yrcnbe8nW5ud72s6fsqLeDtM7vz+FfZP3wePe3jlxRajcoeI6B97JoGw9qxWuDRyewVqIuIiIiIiMijUwAsIiIiIiJyBTEaj5fyIgS2sbM2MyHAFyosHY+NGKOgm5M52pLmwDJ28lar1s1qryrV9HUSG01awwnPGg1tRmRWSOdG3N5gsZJjFG9EELnSgOz13ha33H7yH7QnH3H8yU9Zn/+C/uWfzyOZ77gIDW0c72jNGr5VVM1ivF8n13otp4JhazWymi0gr2Nzr5HWfV0hsl7aFiAhKnDus51qra5htwd7tXNP7vws/E447+5EJmsPWvP9tOP5iAfP//WNoPfixV8evOa9x7+5F+0Wfi2tjeeNxnk74Ob0GLurbbSvoxOndfxvRERERERERB6bAmAREREREZEryJxt1X2QNlq2dnmbu207W7dbx3xd90b2JHOlecPbscYrp0FzmjWqZDkC4OwVKXaI2+c0Nzxr7+4cl9wOB8Dop1M9EOi91wjqqAbsghFuRK4cbjs3f/09T379nzn+8h85rbfk15+OHb77c85tD2+Ft4615dwGztkENSz7CHSrsUx00hJzJ/Fq73qrNnSOUdFW47IzA8/A0om1g9u41skC9OyjaUxdp4u52lkjmH2Opj5f+/kJnT+D2YqdJ3j+DN/cxTu94DG+e/MSY+TzvPTnXyZ4rOP6dg+959zxPErquFdo3mMd7ewRmGe12zNz2wUsIiIiIiIij0sBsIiIiIiIyBX0TPoI+KyN8CtGQ9fnmOFgbqJN5r7aBTOw7ERSO3Mx2vJhtV0Pte/X/YB5I71hywhZ9wdgKwsrebvW4yxxg5UGfsBjJU+3kNWwbWYQax1NX8EMT7BshDvx7HNuP/kj7/3in7Cf/wM3pxvy9A1hSYva/2pj4W6OMcpGVnvZFqDh1mvv62iE1ohqxyyJtG1/beQ45rjBzcAXDKf3W8BxX8Bz7JCNkelWkNwzSXPSkujrCBv3YeUYk72Nq66msEWHEVZnBBa9wmv205nzPEr6jYPXV2m/7h4zgnq/83ZvM/h96D3rGi7kuFZYjp83P+9VHjuVK5GvUNiak2oAi4iIiIiIXIUCYBERERERkSuI6FtNc2uSElv7d2vEGgSGmdMtIU80b/QwrDneDtjRIcZeXXdwJw8NbCHdidZwa1vTNtZOepLtAMdzEJc9WLxhrXE6PcPoI9KsIDUzyBg7eO80T1vcsn7+J54fnvDex79m/flv6X/5F5bb56Q5WIXZeKtxymPvayZknPDWMVvwtlSQOxrCjKav5VrBqxvND/S+kr2zmNPp+NEh6lraaFab+QjRa/evJfR+Sxt7j6MnbdeU3YLLuXeZCifnXt99lJq77y92NU9vuXH7Q+3KGq32NFOfTURu7ff5E1Tt4EZkkusKa7IcFvrrjpgWERERERGRV6IAWERERERE5AqyBzYajjYCxqr2jjG+ZjSMYATEoyG5mNF7H6Oel9roa44trXLOdsCXZewGPmDLQuDbGGnc8FaN3M4Rt4p4jSCz045PSa+AOqNXs3TmonBuuN4RvmBxS//sD9wejhw+/Clx+pr85A9YVAM3bY4srvOsYzawTkSvMc7twKF57fEd12QG4GnVyDWrsdj0Cn394KMn7Re7e2ssdKvz7p2IE8el/pmb0St4xM77k7dNvhVMkx2fweQM5hmfxfgc9sFvBcHjVfaB8lWMn5kfekjqBmP8MxitNRgN4Hnd3etzwzqZffxyQe1YFhERERERkcenAFhEREREROQKqu2bRMKcdGuZxGyk9g4kmUbW+lrIpEfW6GFfCIOlObYcR6PSSF9gOeBmWDvih6cjtKzmbmTHRrhm5tTi3yR7r927xyPZVzyCTo4AdRdQZ5Dp98/HvHLi22fcfPoHPjw+5clPf8k3pxN88ZcaJT1HXZtvgep53PLMhhOzA2bVOGbuDDYbpdqoAByIEQo3Y4TVUY3lyNp5nNUCxsde3HAizsGyuZ9DXRhN5/HphI3x06P9O3Yonzm+uwznPcFvY+duXAS/P9T279aSHuOeM5N0w21eH9ua5BFRY8174Esj/f5+YxEREREREXkcCoBFRERERESuoI8wzMYoZDOD9dwozb6OAHOEYDFaut4AJ0mWw7FC0hjB2uEJLA18wdsB/ADLAXMnemCtwdh7a1iFm9Ehs/awLgvpBqeACNyXamSujL28UIdzDjln6Om5EjS8Oevzr3j2+V958vN/4MnPf8P6/Av6zakaykYFtea199XAWCocbo3YrkcjYq3j8uMIDOs5GUGunTTwthCRjPnPOLXb1y2xQwNGyZgK2Ovoc9uJ3KPT7n06WS3puQd47AW2ubc2bbsGcB6HPcd3A7vdwo/5U3Pxtm+hZfzd5Z2Tj+h4ayPQn43z8+hs9yRP9csIfljYh8MiIiIiIiLyuBQAi4iIiIiIXEFGYvgWkmUmvjRmtGjLYbcLOKEZSaMTHJrjrWFjx+/SDuThCRye0A5PSDOsHUhvo3FpLH6ADKwt1fZdnuBurLHivWNPFrw52Y7E7XPAYDnAGvjIPLNXe7YO+RzuVfDZajdwNw4k8dkfObWFp7/8B/jFPxF//nei3+DeiJliWsN9oRs0G1uBs445W43ATlswWzCDsBN97bgfyeWW5gbphHWo6dYkjo+mcfSVquk2jEb6Sq6xa6ballFWa7j+HkBL347TsgLdCoQrpKzPpV9cB8YYarOoa32/KP1GLC9HcP9Qw19gjMlu2HKoBjCMcN8xGjXrPPHjgYjEMsgeNG+QTprRQwGwiIiIiIjINSgAFhERERERuYJtv+muKZn7UNXH2FySjKC1BXPHM7F2JNsRjk+w5Ui0hi9H7PAe0ZaxS7fRWhvjmh1YK+RMI4NxH7TlCJzAD/iTA9k7HSNbwyJqlLLVaGSjRionedHOvGhqjh24LVbisz/y/PgBx7/7BYf1lptPfk9mP+/MrbIvZk7PFd++t9oTGwvpMxQfYWxro8HrFaKP55vPML0aydWirt29brP5O3cD+zZ+2swqgJyHb1ZBNrHtG46I0cDOsRs4d0HwfGUbzx9B7Z3bH8O70oid17S1XQJu1N5mG1c3AtzGz2SQEYQZ7bBsI6Mj4ns7BxERERERkb9lCoBFRERERESuIPpury5s44XDKqC1NAzHDA7LgSqoLtji0A7Y4Ql2eIodn+DWKrBtC7YcaYenhGWNfZ67VnGsOdFPmDciYwRtWSGrN2gHcj1V0LscyTUx73V7XwlzLMeQ5l37NDPHWF/bbg+A/pz103/l8PSA/fSXPLl9zs2Xn7JkJyywMHDDvNX5XrymVXt3G8OcI3yOCgbNaLNi617Hb42MtQLjTLwlMfYo24jXKyj20d6t3b54h57buQDjfIARB2O9Gq0j4I04t7O3QDtHIGx2Mar5jWQ+3mu9JTNkx2t/s5vRSVo65rbtS26t/i8HG2O7ca/PY6tlv2MnLiIiIiIi8o5QACwiIiIiInIFPYLIpLlDbUSt0c0Y1hxvS+V+maQ7hpO+kK3hy4Ivx4pcExjtYMyxZSHbMlqqN6Nx28ZX4u1AVOSGR9L7SvZOawuJkafa1WvLAYuEBcIcB1hvyN6r/ZrnwNTcIfvlftoZij77nNs//f88+c3vsJ/9mts16TefjVZv1DnbbDsbmYZ7vV+siWcHn1t6Z1he44Vz7JF1dyINn23g0VAOKuBNwNIxX+jRcXOofLL2J/d+r6vr5nU6NgLqnmTUazY/B8i1r9jH5ZgX4PGav5mP9UpvT4W+1Tz38dm1uf9325c86t4AkUR02vFQzx+PCQXAIiIiIiIiV6EAWERERERE5BrcwZ3AcXeaV+vVRvCY1Bhk3Eirhqu3VuOfzaB5jdXNJCxr7POygB+w1rBIojXogWVCdsLAvY0duUFax7JjB8N8IftKv30OEVTXtlqwDSdao7X3iQhiPUH2atuOPa3NFnquZEaFsFHhbvMD61df0D75d44//y8cfvYL1k9uaLc33AKtB+ErnkZahc3WVwwb45YDvOFbeFg7dt2M6LklpLWHODCC3oPmPnbOBu4LEUEfQW/aubVLg1wvU9b9yOkcY4jTa1S35bn1620hYoyjzhgzsgGqtbtvBwN3ws8Xy3eq9Vth9z7yTrPtlxnmY+qXFQysGtzL8oQwJ07PsfVEmLG4k5YkDpl1bUVEREREROTRKQAWERERERG5gsjElyc1KhdqJDMj6HWr5qp5NX692pNmY1QzkJFko9q+voxdvctoXoKN16hw2GeqWaOZrRrF5s6yJIHh7Uje3mwpXj+diHXFc619uO70voIl7XDAciHzULtb+4mMClozo/a6eoXZJDjJzZef4U8/4/DhT+CjX3H66x9qFDQrGUaPwHDaYdcSne1aRiieAcR59DJ39uJmjOC2WsmOQ0aFyVbN4uhAnINItj2zu73GY4RzkrWydsTg1WidI4zrdvfLvc11DPZgfvvC4Hd/CrvzeZeav/tjtTlSfNuDXPt/+2kFq18QiEjMA7P6vJblMB+57XWu/02IiIiIiIjIY1MALCIiIiIicgXGQlueAE5aDYF2P1S4aZVRejvgfqjRuWOtbGTQzDAWsh3J4xO8PRn7fxtQI41nwxgW0muPbWSNMfZWj4sO5odqGC8H+s1z/HCoAdHRsX4LvbPe3GBuNAcITj1Y2hPMnmAt8OZkDzI7GR3ouDFGOictDfqJ53/9d94/Hjn+9Nf00wk+/2MF3lSLFhy3Q7WeMyGXERiO/cCj5dt7H+HyfuRyblfW5m5ga9VCHc1hb42MZWThRjMbgbhdrpvNGvucY+9wBc6+ey+2xPNiB3DU47EKs+tYzi98twE8m762u/9dCn3L5RGbL2PcuJ0/FTcyknZY6Ost5hXykh2LoGfSxu5rd4g0WjP6un4P5yMiIiIiIvK3TwGwiIiIiIjIFawZ1bx1HwHnMsYTV/jYlga+kCNMa2ZEBDYap9EathzBqjFcjVsjeo0iTozWFrAZyo69to1qwkbQloWIsac1OxG35Bhd7N7w45MKKQ9JZqevtxC9AjwC6EAFoOYLyQLLGBEdMYco15TmhFyfc/rsLzx5+gHvffwrvrl9Tpxu8UzsuNBHWLsfJQxG81ajpzNxa9UQHQ1TixzN4NrxazCuQduObY4n3uLirOdEBrXVt5wbukl1pWfbN3fhLXVM7VBNZ6jPZYbU88agaIEAACAASURBVOlbyBt3XvthF03md1Tm/Pmtdrll/SID6bQ29iSPQL33FaMCYFqr0eXU/T5+AqIrABYREREREbkGBcAiIiIiIiJXkIC13e7UBFusWqvLQtoyxj5XCNkjxijnBs2xw4F2PBJYBa4kbjZGO7faHzy3sEaNJbZl3I9jmWT02ivsTtzeQO845/gzK6Ij2wHSWdwgO+vplr7egFUgmxg+mp/gLIeFjBXHuD3d0prVHmKSfPYpN58cefqr/8STX/wTN5/9Hm5v61yjhj3nOO957hG7UcDWcHeSCqmjn0ir0cyB4Qa4Y+asGSOVpFq+VIvYzcfI6TGq+YHsNTPOgXLOoc45xkNXW9VGKD9D/IugGC7CZbgMgbfAd46TNrbXeOckwLhebYF2qPOwwNuBoHYkZ0JrBwDcaj9zZrIcj4TZaI0njhP9llADWERERERE5CoUAIuIiIiIiFxBpmO2bCOIAawdtvajZbVuS6uW5LKQy6FGQJsTpxvASQ/gCWENX5YKUAnggLcD3RJPw9sCOBErZIe+wrKAG8RKxorh1LuOfbs+Q9iVhpE0luP7o2280vstSSdOK60tY3RyG3uGjebLCF1HJJpJfvkZ6+Epy09/w/Lxb+if/Dut1/7enieavUemYbFCroTVeGwf+4/NDZ87eg9tGwfdxlGnGUHSckTZBm4L2EJ6EHGLWyN67TbOsWU4mde7rrmZVfg7dgLPc9r2DHNu/fZ1pbVWwacbncDTmNOoLz/7vAydd+Ok7z123G9WY5RnhDybzfMGe0Fu/CqB8t3R1C9rK2euMMZbk/ULBpWJNzrJghHZ67zNsea4HfHs1QQ3I+n1OqeEdgRbmJO66/p2ej9pB7CIiIiIiMiVKAAWERERERG5ghm6+RiZW63Wsu1PzRqtTGt4W7bHZO8kMXYHt2oLJ1jUHl76DJQBvPYF91vWqMYuNsPdSiezBxGdtizQA48j0SsQzkwsRyBtibmxnirsNG80fwIk9LXGNK99tHcbAbRDhbbV4nWWZSFIvnn2BR+8/3e89+FPed6T27/+noUgcCJr3HNmr5HQ23jlXUN2fD//nlQ72fBx865dzRg/7AZ9hIoGtiyQK5krY9j0RQgcUQ3WCoBH7DuOZ7Z996FptV7HhuGt0fvACOh6oW/9GdmeM/9wg3j8hvC3jae+82jYDdUOo34+lwWnkd62HcxuFf6mt3G6/4u9d2uS7DrS7Jb73icy64IrAQJDsk0a05hM79L/f5N+g2zUapueFpskQFzqlpkRZ7u7HnyfE5FZBeJW2U3r8dXWRFVkRsS5BB7IFd/3bY+3rM9uoL3DFOm5HwxY3o94hHMtiqIoiqIoiqIoSgAXRVEURVEURVE8CluydNu59RBUQUQxg2jkxm/r9NYzjUrA3PONcIQGGuAKGCEjpW4DXAhZiVnqLBKEDVxs1kIPBkoPJ9wIG2gEJmRqs3UgUM+tXEbKzCDovacAJWa9b6D9CnFHt6pkN9wMX1OKqnYQxTyPpdmJ08uvketn9I8/g/UOe/X1vDiW+8VDZj1yu5C8PkVrbvymipQ9GZstz7LXameyNEeI720A42xLxsz/3M5pE86y7Sq739sQVlXGGLmlvKVnVXepmxI6UmfvW8Cx//OH0rrw7prouHh8++f+Ej/iSH9I7mb19dtP/jEZLNLOb7n1haNAQ/uy14CHSFZx9wUQ3CW/NCA6v6Qw5boqPu+XS6PliDOgj+G6i6IoiqIoiqIoCkoAF0VRFEVRFEVRPArumXJVzbpkBNyDEEf7AV0OIIpqyzStj5kmvUzEZtJUJSWuD8cFmsRMUFrWG4ugxKzUbRCeFdBArINxuiFOd0gMNIQImzvAkalMdaQvSDiG59NnjbGqgLZMI8+66Ey/NhYFd8PDGeMEBKoL0oQGxN0t66tvuP7sd+hnv+MOg5sX+GrAyONE8jps6d8IIka6x81V6lYfzNz83bZ4Hdz3RGq+f8/zsynRY8y08SabN2HrhAsq58RvvldK4y2lfb4X6UJVsiI6JbDfF7/b716K1wfCNS7+c//TFnreHttP9uJXH4rhC3RrnJbzP7fnbDL6Ms28v/c7HtsORGizPptZja0QmkJXNDeopeHzvuU2cEOa4qdAdCF6Vptv+n7RRvhgrCvaDqD1P0kURVEURVEURVE8BvXftoqiKIqiKIqiKB6Bc12wTJkYSFNaWwjtIA1tDeb+rtuYv35OlOZLOBHHKW0FFcVVkSkZfQrQ6A1xgRYpf91RbTSZSV07Mdbjfny537tgKkgL1A3CUBRtkpXPkTXRzPSyzjQnAQa4BK13VIIO6Fi5Gytu0LSjixKvX7I+/Yjl4z9w+OjEGCvoMaujhzFOx3up3KlZEQPHc4d2Ct/AU0JuiVKz3DXuC4oS4azDZzVximIPR1Xy2nDOFBPQ+kweX4jQEMHD9+PJ6zuLpueesAfofsw666/vC9WHG773PxvzHmgKWrn3s83YpgDXHxC093Z932GFH8rdn1cDDTDvNUDTXfB62n+0daRncj3M6Ycr1uzhBlnpywLLFXQl/CzRZZCfe1Gc9jOPqSiKoiiKoiiKovgplAAuiqIoiqIoiqJ4BFwEbUJguZXbr6F30DYdb+7pXoq8TRq6DQgjXIhVEAlEFdFGrLcQhrdDmkODAcia8jTCadKIpki/yiSyj906hvlM3oL7QMLzGFWQ6Nk4HYa0A0JHwlF3zDK5CaBtQSVQIgWxCCuC6kJfFoTA3bBxRG8Hp782pF2xPH2OrZ8hL75GzDE9oIdMGM8DmuneBddZgT2dcLYRz91gmXJSLH/ojrcVjQAM80xAy1Y17IbiIJECPQKV2MXtJoEh92s1I7D7fdkk8FYVrTh4EO6Y5GP3BOsD+XveKk6UTfJzTu1uv/SOSuntOAAkzr5Xtr/fN8h5vUQI95li1nvbxttz9+fdq4pWRBTpCuR+dagi/ZB71UHWPreOLod8/Q5DO2IrEYZog94J7VmdrVuRt2MGejjkZ1+VoiiKoiiKoiiK4v1TArgoiqIoiqIoiuIRcI+UvdrQdpiVt/Nne4Vxirrdww0DG7ln65ZJU217kljDswbaAxYnBJpPuWiZiCWc0I4eDkQ74HZH2B0aWY/scQIHsQE+8DEId+YCLxGgwkzlatb8zsrnsBWIPP7tOQJhlqlO7VM6BqKCakvhfHzJ8Zt/of3m9yxPnuOnW+L2e1SCtS00Usyi8zXCcRuZ+rWsgxYk92c3MYsg2qbEjbNFlUznpvhOQZwp2XNKd75Aym8BaLRt4tcNC2it7YL4ndXJ83E9vy3zj2fx6xfy9kGl81vpYNnO6mITeNZtXx73W1vB/u4a561G+nLb+B4i7IFr2ZK4DtKI1tDW585vfoalLYjmY9F7fhmB/Cz3nlXQog03z7TwfE33mblWIdZcA47sE8fesVFcFEVRFEVRFEVR/HpKABdFURRFURRFUTwCLg1dniC9EdLw2HZ647yjG4J4kMndyKpmPwEp+FrTrH52CBspzoDoPSdYpaUk9UziRgzCDAul67Osaj6+Ah9EpMwNaYATs744X9BxT7krDiZZdyzaCYSmHSOTy02zdloRxpq7v+6BhKGzUllUcDfCHRflqnXsdMPxzQuWDz+nPf2U9e4WPb6m96wDDiXlrwYaoLqkjCX2qGzEZdUyOErQpuQMbP5OuCORZlxEMbOLWVzJ6zWFN3vNcqanRYSmZ2GrmhXPEYGqTil7Ie0fOMxduF5I4fvud0vDnhPAFz88y9rNEEt+Zs6yeKsWP7/4wxS55HD0+fGZEo799fMepZhtmRBmpoalgSo+H0caIkvuVKNIy8+FqoI54o5IhwaeL4i2BSdoAsMdUUUlU/GNxtBB036x3VwURVEURVEURVG8T0oAF0VRFEVRFEVRPAbaiNb3RK0ouGVaVTM6OXdtmZu9sadUVTWTv1NmbjXHW6pSLIgjROswHGa9MRGIrbinOOb4mnHzhi7g5L4tsCdLA88DU4VoSGwSOMBXnBMegvRrpGV1sodiFtAbulwRPlhaz6TnVjkcmfhUcr93NbJy+eYFpo3rj39L40tu//ovcHyTh6SdfvUElZYV0mGZsG1Tcpuz6VWRVJmzMHt7NP8+95bnGZMbzBe9ybDLVEdp2hBVVos8XhGkNYZnYNvMUhBvW8FsCeC/sakbvG2G4yJ9vB3MxX6vXD4OZ0G9/efFvcvA8yai88MV86z3X4nztvH+3CmuRfN8xOZ+dFpknCmENcVv733/0sB+fDKT2Aghnp9zzapo3BFdkNbzboigmvfRxgBzho+96trMf/gaFkVRFEVRFEVRFL+YEsBFURRFURRFURSPgCNZoxu+VxnjZ9sXM3HKnt5MWbfnWUfu9iqBjZHp1BiEBBJTxPXDXi/sPoOh4YgEsQ7UTrCeQMHDCVLKOo7MymNhk4hCxnANmYnkcAPARiDeUxw6Kfum4JN2wMNAgxZLnpcb7ut8/czp4oGud6wvv6ItB9qzT1k+PnL69o+0MfJ5YyU093p17tbmJi3QNPeGp3x190wIj2OmqVvPnd7IneO8RLK7WIELCZt6VRvYTDPLlJIeKdsDBcnrtalV3cSxR577drPlbd970eW8P6SbnL40tRd/lMvU7oVw3lK+sgvjWQ2dT5qqeBO+870QQjNd/XYNtEJI1l/PvWCa5nvqFMaSQjgPznEUXTq6LPlFBHdCFG0Nn/3ZW9UzmmLdpE0BHWBv0N4IIyvOcSxKABdFURRFURRFUTwGJYCLoiiKoiiKoigegW3HFkuJGruhJQXYPfl3rvVVNJO0PlJkblu7EVnxvK64OOGCLidUF1xBQ3BVRJV+aHgY690dMU64nqt/Y5PPY8pFbYR7hoBhbuLqTHDms8wc9bu5uRu03ghTQhU0xatEEKJAIE3omgLX7AQ+pmZW8CPry2/R/pTlg4/w29fYq29pvaOtYSYMNyJW9DL9um/kzvdQzcppT2Ht2lOYa0Dv4Cmz3f28dTvZa53dUoQjNNHcDJ7buHKx05xvLZlKns+HTHSfpe3sc760wtv93f46hTvn4O8Difz2Ju5eFz7fMzQIZ4r8eU2a7qnkiCDCUJlCd8p9mWKemQiOcJrOdHVEnktvUyWTieDhSFe0ddpyQJYronUUwTzTw6q55Sse6JKV4SFkVXQI9KzyFu2Een7Cm3Iap3dvExdFURRFURRFURS/mhLARVEURVEURVEUj4CvK366IyJoLfdURVIMh53rn0XlLOJ84AbuA3xkJXRk0jViYKcj4SMlXVvw06AdskE6wjN1fP0E2gEfgxinrF52Q7XtaVgVwRng5MZwgNlIIXrvLIQ9gUuKaPOBrobBLhNFO01bDgRv5y+dIGiLEtJ38YyDvfqWo8Ly+e+5+uQL7o43rKc7OgJ02rLgY82abBzsvLubdcYpNj0g2tUUxHnkPmLKdkddUxcLgOVucNyX76pbtfV2vfO8sEAahG9DvW/rSm0zxHvhf4F32N23ictfOg8U7+8U27nG1ii9LQgL0gSk0TL6TMy6bNiSw7Jfp+0xEZ0BdCdi4DNdHs5ee62t71I3QlJ0awftcxM4Nb4T+L6dDJgT80sJueublc/SFhqBQe4ChyFLyvsmuZNdFEVRFEVRFEVRvH9KABdFURRFURRFUTwCq63IFKK5Ruvotvs763x1E3wxCBu4Wcq0cGSmYLHBsCknbSBh+fwwIhrRNEVuU2TKSw9BbDBsRWVu+p7d7Kyfnn+ykbLQs47a3TAbNM0UMNpSHkdL+aiNEXlGW62yrXeENsRsSkMFUZoqPkWqSJvbs46EYzcvse+uefrRpzz5+DNeffcVYIiPlK6bpL3YzTUbBE7Tjoui2mk6q5rndnDr14RIJpRtxe1iXzdtZ0rWWbHsHsjcW2bWTocFqg23sRVyT7EZF4c1BeplZfP8uc514g2PmDvCXMz/PlDt83juTRXP6wgyX0Oz3jsCD6Fpn7/f9k+ZSH4eOL/V/HKBZxp6JolVQdDc8W2aW8DhiDTMMrGb/6+4zKrwtglbQfet4Hk9ndytnrvXEQ62MmLWcc8k81bt/fD8i6IoiqIoiqIoivdHCeCiKIqiKIqiKIrHIBpCisWYwpS5+5sVwrOS1y0Tq265E0zMxG/+PcyQGPmSkXXSEoGbEQTjdEIPHegElklcUXCDzF4C5GautBR5Atp0Vhgrtp5SpE453cKIucsrmuld0UNKyNYY5vTlMOWsn+WnnQiX3J0VwVTyOvQOKrswDF1QB719yWnpHJ5+yuLOePENGmO+ns9znuleEVqT87U0x2MFHykepbElltFlJpMFaZ7XcY19UxlteT226G2ASmOM00y/Bsq2qTzTt+4EF6lXzpXLzGQxnHeHL9mfsaW+IWPJF1XQWRPddjGax5eV3uHkPRXZt41FNpM8j4MLVz7T5sJ5OzgAbW1PS/tW2d10bkgbKmCh9N6JpngTdNsEbhfC1gNteTw2q821dYKW0phANgntltvHkXXmIdu5gY3xI/8SFUVRFEVRFEVRFL+EEsBFURRFURRFURSPQGQMEnGniTBsxWXJBKSt4JYJUhv46YgKYCMFpK+M9Tg3bTVlsOcOMJzbhoPcsSUW3FakdUJyxzXGSlPBPbJ+2Q3VQNoyD1D3mmBtQsRIyaqKueK2ZsWwDQjF5HbWCCtNhPB11g8L0HK7WIF5TBKRHjoaDrQrJVBokgnfduDkK8vrl6yHj7j6+AuUYP3+L/jI82vimDS2pLLP92uto13AcuPXxpGmC/TrrBa2TMKuoYguNGmENmIM3I6426zkzppjEXA8BTOZVjYUSCnee9Ysm8eeHBYBt4GF5PWY92o4NLF7CVfVcx0zgEjk783d4nwsj8XMaDNpGyJgWVMdsMtpd8fFU/x6ZFW2w9XhQIjgIrlxLJH3BfDV6L1zHCu9LymDPUDznFvLLedwcBSioTR6O2Tl85Y696x3VjIdnGlqCNFMeNspJXB/OhPsWeWd55ifXXOnqWwZ8qIoiqIoiqIoiuI9UwK4KIqiKIqiKIriMdgTvc5ppNglTvhwwgeYYW64W1Y756otx1P+Gd8SsL7L5EsiUp+5e1YvLwfoC6qCr8dMW0ZqYplbvTq3hoGLpGnMLV8lzDH38/ZrjgRnbTNzL3hYZl/FaW1W+UaKUbaKYBFST2bFcMQK44j7igxBaajka/jplvjuX5Evfsfy8Zc0g9ub75B1ZJWwO0hK1K2OOdzmlnGjLVcQHXfBIlJA+oAYM23dcDTTrn1B+kJzy83k1bZW6Dx/iVmDHLQuRHRwT/FL/g6R0lNFiNYQOwFzS9idpfd9V3er+/aZ2s265Ezeast74r4lqOc9bYqFZ8I2UmTbvAZZSZ3Xu83rK6qY+JTtkddABJnPEckd49ayuntZlqy6Blxj/vx8vNqy2jlUCTNWTmjv87OWg8S99/y0joFE1o/T8rhwx+yUQl47KnMPOAJEcTOWZcHGem+LuSiKoiiKoiiKonh/lAAuiqIoiqIoiqJ4BGy9Y717Q2u5U+vDCF9xH6g5zC3fJjIbm1MGp0KVc8rXs+pZHuzDbgg264kFbUuKurtbxCzrfc0Qz0Jll9x4Be5tEWfCNuOZIpqSOn8pf5cskt4nbMPBHbdBpA1FNaVuNhtPgSiATxEcjoQgHkQMDEe0Zc3yzTfYiyfop7+Hj7+g+UrEGyRALROvKcFnrzCBRJ5PinAFFVpfUFdOxxuw3L2NBqEzfysCMY9RGu2Qlci+XdtoKe5nMhrVPMYIPFpuLIcz5kYuKCKNwOfGreTWLnM/eX8Z3fuk7wt4mXXgMpO4559tYniEZUuzCDNijeeNmsnuKXrnPRWde8GQcna+n8+q6m3nmHlPffvsTAnt4fMz6FMMz0rsmTwWaaAt7y1kiljmwPT8IkG6a5/XSPb7lr/r+5ca3Lb7WRRFURRFURRFUbxPSgAXRVEURVEURVE8Aut6oqvg44SRglfEUoZFpn2VFHhhho0VlbOww3xuxPrfLsr13AMWd5ouuBu+3pLFyYqKZPJW87/+naUvu/zMhDAp9rYK4gCz2GVdzN+/fyyzxNcDc8dHSmedknDb/M0656xVTu+ZMjcGBMbwE8s3f8b7Nfr551ytn3M3BjECkazRlj0RnTLc5nXJrdspL21LJy+0RSEGZpbX12ymoOcWMbOSWlPQo5JS2edWrQYSmeptPWueCU9BOhyRvMcqea1C4ix85+7yZcJ1Zn/3656XbUtWQ04e5+PbRjSA4im447w3LHPnOSWspMgdNu/Flpae7yGgnNO998R/zOde3Fvz+eWAue0rkvvUPsiEdwOnpRwXnZ/RQEKImaJWwMZKI2X19sUAn6l1GwM8GOP0tz7ZRVEURVEURVEUxS+kBHBRFEVRFEVRFMUjYOaYDcQMIdDwqQDn/826XPdM025yMWbt75boDOEtAXxP4iJEOF0U1YbZIHwQU/iKKuS8Lx5T9F6+xh7r3XZoG3Za70liYFrCi2PYzOWsN24IzkBM8cjniy6YgrYD2huwZGVx2mQ0OhpGCyWOLzn+9b9zfbjCrp5yePqc48tTVmPr7DImq41FoUUgY+7yktXJyBTVulVbK9IbGoFqJrCz+vmUvyRKbx1awzchKuS+sAjEmKlVmec8taoEIsaC4j4Ikzz7daX3js8a7a1W2S33l4GzWNUpdEkhHZE1zXs6d0sBz4senO85cZa0vTVsinhVzXSypDZGJKXvPB6f7828lb4lt6dAz8cdMwP1lLwheX4RqKS01mj7JvWWdI5OVowjuUeNwHqb1dbacyM4Uq7LlOlm9vP/xSqKoiiKoiiKoih+lBLARVEURVEURVEUj0CMFRknPGzmQc8zvuEjU6ZuSDiYI2FnwRp+rthl97P3X38+qPhe3WzakNMbJCSrpvVASIc+06ZqiEG0ntXFPjJZihMiWf2rDVkC3MBSDWa1sN/fbL2Q0DAF5TzT877wmu83HBOgGdYWIiLFpRhIwz1y83YcOX7zR65+83vkyce021eMm1cISm9KaHroEM33u+qoGTFyG9dnstrD0W2beKsuJtC27DXGEb6nhpss9KUTKoRsMlQQ6Xlv2HZ18/WiB7EliNcTnZVwoy+K+xE4Vzhv18PCUgq3TejqXhmd88BbfTT7vW9TDG8pbQ/fvxxABF1zU1cIpLX8eVNUFfO4+BKB5JTzTHxvorlpx8xQFcBnSl2QWMEUpUMMEIfoWY2tCx5HQgVtHe+H/IC6wzhlVXk44iO/0GCOthS9LvPz45HV2lr/k0RRFEVRFEVRFMVjUP9tqyiKoiiKoiiK4hEwH6QZiynfFPfc6zU7pfjdfrYp3ng77ftDTL9JEDiKi9JsTaG3JYkJCENFMHO6CCOHhWdCV6ewEyIGkYO+tNZYzWYy1WZic3tfuZdAvsc2XHzvQLPmmWG4B2Kz/rk7aCcIWlimb3tj3N5i339F+/RLrj76Ej8O/O4FJ4PWFkIEbedt2kz5LoimflZPoR7jNHeW5xZtgPuYx9Rp8zVcFBeIYWjvKaKloXPDWFrK883Eyybrw0CDNRTXBk2xdUVDZ8X0vCSzPlu1Mz8Is25ZMkU7Je9UsLnhaymLHVDps7bZM+HsMWuuBfNZg60t93RVZtI3U+Q6U9qbCEbm1u8mxs3m3zOB3lQxtxT5wnxPIcLyWAfQLveU8/jQjmHEPAZECBWYAV8fKZHD/d7nyMb6Ez/tRVEURVEURVEUxc+hBHBRFEVRFEVRFMUjEGYgQZvFzz4GEoa7zTrouTV78ZyfKn8fRoKjNVwbut7iNtDsCMbHQPsCkLusZkjrewV1VkBv73renXUy3Yk6vqYcvDy2hxL4fjL44YnErCw2xEFkEGa4xC6XbZwQPYAbojDefAvtgH76Je3Tz+DrG+J4uzVOM7yjIkjr81jm+6rg0ojWQBbEJWVwZE20SttOgJjSXLQjrdGXq7lTS9ZDIyCd0HMFNCLQDF/vwByVxnJ1jY0jIYZ2WFRZx2A7KJGWdc4RWZG8nQTsVdFMSRwSqCjKll4m3z9yCxmRPL557bd74O601rDwKX9z69jd0e3e7PvSMreTs4Z5XTMB3FpjPR6R3uZxe34hwMfcCE6p3URyK5qU0u4rRO5Zmzph0FpDRUE1xe/cZlZt9z4v8dM/8UVRFEVRFEVRFMXPoARwURRFURRFURTFIxBuhFnuAGNbGBhioHO/dddfe/UzP8kCzwndrN0VobWOSsePL4i5Y2sE2ADNhKso+HB01vCGZhXyfgiSEVdBkFBcImX1rFveQ8px3z5f/n0/jXvnITOtHCk4t1S0G+5kqnUY6BEjaFfXuAvj5VfIobM8+wg+/ILx/V8ydRuO2CAAs0FTnYnVhoRAy51hj5S7gaECY0QmeQGZVcoqLaWsdlwy/dtay5plESxiGuGMZsush5a2INpmTbahnju5HmQqd0pdHl6bed8jIsXv9jM9p5kJmVu6eadFBGkNgX0zdxPvbT6eDcwzDUy+x1hPeZ0vpLeIIJJV3W5OhO910D7GfkyZCE5BrK0xtS3hjjF2YZ1p65Eid+4NZ6X32Leh98/IfA6Q1zQMX48/+BkviqIoiqIoiqIofjklgIuiKIqiKIqiKB6BdZ2Vtz7mHq9iw4DAPYWqqMx63p/54udGZgRB2wLhKdSk48syU6IpoqW1rEpuLaWeSNZRz0RmJoHna/o5l7mlU31deTt2HOfjfiCt75/TFH/zeARwkUy6iszccRBjTUmsgHRMBnzzr6geWD74BPcVe/UNYUbXjofRJMCMMU752v1AAySCJjrFZNro3mVWQgfsFcdZfy2ihEqmqDUlJqJ0AXfDbauOltzY5YCSydbhtzRtuNlMCGtuBU8hG7Bv+G6yfBOtMqUsqvP351Yv2+/OXWC3e8/Jy+pEkFu/Ovd9Z1O1yNbE3BDNWu98Sj7HZzezStZNiyq9sIgosQAAIABJREFUNcbYxG1uIxOD8JZfClDJezM/c1kv7riNvH6imDuwpiSPyG3hy/T09mnw/ALAON39zY95URRFURRFURRF8csoAVwURVEURVEURfEIuI+sNLbc+nWLfet3E64bbyWBf4yYA8AC0jvaO+N0g48VUSP6VcpOCXAyxasK0oGRDcfm591ZdFb8pqQ1H7soRgTpLdPDDw5D5qG8C7n805TLcg7TphTFcVIUbtXGuKMtsHHC3XjzzR959vkfaE8/Ik5H7Oa7vL4oGtBUCUYei2c9c1YOTx8rOhO2gOQ+bms9a6AFRDqhLRO9oilNJQVmuOGRid58Dc8N3gzHEpEi1UJzO3isBJLSfZ5j7v9OeTuF+lbbnG+Uj6lq1oYDIT7vR0pricifaZviPebFnC9By43e+dmyWS2trWPhU8ZuXwA4D02H+XxeYPNcwjMlrWSqOCy/QBDMqmobhIwU3TLlOZJpch95zPPcLAKazmC7gjshM9VMvlZRFEVRFEVRFEXx/ikBXBRFURRFURRF8QjEegvjmNIwUrQ2mdW672H7VERwIHRBpBHjNiuf6USMXejGPpCbEtDXKX1FcB+I9u0FIXRWJmvKYwLfpXXLCuZ7B3HeA4a3MsLbr9y/LpwromPKTB8jpeCsQna3lIXjBgLuWuf5p1/C04+x21fEeodowwJUl0ykNkXoU7yuhN0BStAxzcSx9L7XO+f+74IcrtDDAZFOFijndrP7JpEz/YpkNbY2wUeKajwIhKYKplPmGqjSRLAxUjSrIH4h/yE3fWcCOfAUwzMzHB4ElkneWaVskVvMqpIVzWTMN2attKri8z601jKRG5FiOyL/PIV+RCCRwngL6ab4TSEMmU7fNprdAnGZ9zrfW/sC2pBlwbdocOR5SQQSTpgjsaWP8+rKjCiHNNZ1/cmf96IoiqIoiqIoiuKnUwK4KIqiKIqiKIriEZCZAIYUeI3YQpvvha0i2KUR4YgfZ81ubv/qcsCGn4VfPmuKwllJ7bkJfJaSm6zMqt4tpSptgRhzu3Vu2G6v+BP6qyMi6663DV3y9UU0k6n0lIExWHqfsVYhROhxYn35FcdloX/wCe35c8Y3r2l2IqRhAi4+09WNJgvROsoCCGaB2AkHxDLpG1wjS0MPC7KkyIyZFBbpCE7EmHvFeUnDI+XnZrTbTAvPhG24nLd/JcX5Vv28PcV91m9HXkfyCPdt4KzkTvGeW8z5vrnhnD+L7TWz9xmRvE8iQtuur8hsfZ5p5HPod09Zi2S99Pbe5o6In+/POKeA8zNkKahl7g2HE6L5GW8NZ5l103nBPIywFQ09f1aJPQGt7fAevgZRFEVRFEVRFEVRvIsSwEVRFEVRFEVRFI/AGHbR1JzyUCI3d3+1+ZrbvrpcIYerrOU1wxEkAsYRb33fGTYzmm6VvTLd49yYDUe17xIxQqao1hR64fNnSojsAm+e1fmY4odPaxPM2xawquLCTJPmFnBrDbTPZHJKUJOOuqHjDadv/xXRxvL8N8RxxV7+BWLFfWBm9KUjqrhuFduZBlY1VK+xMbLOOUBtzWriiKzoFidaQ/usOlYFGbnLG55VxfOYckI4K7PNlDaFqsesQZZM726yPKupY/4ddsU6E9A6I9E6d3QjjIi8NjrHfIW89iqBY6i0FM4heNhMBW/p7ClcY+4L71vEM6Xtjodn/XV43m9kiui5C7zVU28f1fDt5iGxfYYGIg0/GSIN7SOPXzS3f3EcMLM9eazSMlMePreV/Vf+i1AURVEURVEURVG8ixLARVEURVEURVEUj4D7lHAw630fLuj+SkSJ3tEm2Ok0hZ+jUw6LrZluRdFwlJSUNE2JF9BFZyrTM93pm9jddls9s6iq6Sw9d2nTLz5I/k7Z/eCh+fqZiJbWsZks9gh6X1IsR2QNsg/MBNdGo4OfcE1hLesd63d/4ekX/xP20Rf4OCK330MEDbB10PsdzpLnNbdsCcfoWfPsmaCNufFrp1ucO/rVNbI8g6bQcwtY2wHXgYRheyJXCVIiiwSKIds1FJ/SdgphW1GyJtrd6JqJ3Zhu1UkBbALaZ13zrFwWafevH7JXJ09znp8pD8QdV8kN4QjAZsXzlLycq7llJsR13pPEeXDbzl8UmMnxuPx1zonxTTpHGLbOHeYQOFzhIvTWGGNk8lmZn6b5Wm6Y3f2cT3xRFEVRFEVRFEXxEykBXBRFURRFURRF8Qica5dhz8a+t87bABFaO4BnzS8SWd0smfW0MdDeMyGKYDbQpWcKVoVxGrSuWTEcIK2DBIqCp1AECLtIvnKxAxvnZO/D09wOEThXRc//3153qyE2G7skz4hs0FQAY2sUbq3h5qy3r3nz/dc8/eRL2se/5c5WON3kjq3PjKudcIRhK03yvUQbWKSUV0FYQBpNW0pYD7ATcgpiDKQvhDZShyvtcABzGAMsJauvIwXoTEjnuZJ7ufNc51Iv2trcPVZCz7np/Rp77Nu+ESCSr+cXkjad7UwRT2E/1TASDhZzy3deR8mfPazo3vea41wn/fBn+59j/lNkCwQzp6Hnsfg8a0Dn2QbYWGl9yfSvalZkR2Si+eK8bTzYlC6KoiiKoiiKoijeCyWAi6IoiqIoiqIoHoE9gfooBCENaYesfraVluOvmVXd6pXd0bbklmwEgpOx0EbE2PdplSkEgVBBm6bw3Hd+t11ZIVxJtfkT8Zibvpw3gC8TpiJ0EYaD7lJZUnJOgRvTBPcGfvuS0+EpVx99xmIrp+//gt69QlQxyTppwRHL+mOAON5m+lQ15W+b6VoPtGkKYs1aY+YeLsuCZoYXaPM6BO4jd5BtQBhhttdfRwRuMwWsMhPT5FawnIVrVixv9crzAjvn67rZ1pn03e7D7mrnQ9PJ78nelLVnD/9Q/j78TG73YbsX96LAwcVOscwvAGzy+OJYmRLY50WQQEPzuaKotpmGt3vyWVUf+d+RoiiKoiiKoiiK/3EpAVwURVEURVEURfEIPK7cElq/yg1Wu0Xd9sfPjjAlZWtXeBgisJ5WWj+AQF8Oue2rikek/NSGhMwd3BSC2hShMdbjjLMqEvp23/MPoZtEjtyfFaG1jogikhuxtD7rmUFFc8tY2/YCALSl5Y6sw7h5yfLBJywff4kHrGMQ44h44H2hC2gTIgY+BuIpH1vvuKwpvEWQfgCC0JXw3PWdbdfoLnnBR56rmM9UsCBN8NWxMHTWP5s70gAT8Jmutay29rnTq7CL6bPofSBrzwb3LGfxecn1nkjfru3+1Cl0f8rnb3++z0pp9qnf/LLARaJ7y3HHhZA+E7usz2MO7HhED1e5hyyzRnw+cz/Gn/oZKoqiKIqiKIqiKH4WJYCLoiiKoiiKoigegYfpy/eJIEjvjBhZXUzWB5+FIAhG2Mgk8Kb2wpAZ1myq3N3dcbi+2uKrtD1VmkliQmctcYriTKoGvovmHz9Hk6lwp+TUKQpzF3Zu17qf07FAqKI0kCDCaa1jI4i+cGgLZiunNy9on/yOq48+R9YT6+u/ojOxGm5EDLBB2Iq0TAYjMreOB4w7zA16n8JXoHVCGpgRrnh4VlhLPic865zNDHHDx8B9EOtKhCHbLvKsPM7U66xr9rmp7HFO/s5ruFVjhyubR83bIG/J3cuP1aZ439KxD6qcH1Y978+fNdz3fhLMcum3Ob/uw5+f08f52XFaE2KMfLz3FO5sKWpHVc914EVRFEVRFEVRFMV7pQRwURRFURRFURTFI+D+UwTwtowrnDWeP/h7KsKYhcROgC70dj2F7ErMJO9GCsZM9tpY0bbgHrSmhA2kLYyA5dAyjaqaW7hmiDjSNKWlaNZFYxBChCCRtb5h42+f2pTJClgETXK1NiS3Y3XWHmtv+DrOglKyMhkNoKHSCBH0SkEbLg3Xhp5eEbffoM8/Y/n0d/h6JO5ekkPIud8bAq1d5b6unlOzWxpZxQl3GCvDBq0tcGpI69iUmd76rItOEe6eu78xTmAnuq1YOIQjEdjpBLHuElhmXbI8/EKAnP+w/VEUzjXOD+VvO1/XfY93vse8f3AWvjqfvyWW3QPRi+rtIFO7F4LY507vtvcM93eeHwrp+8yd4hC2GLWLIQEt8h6mEzfa3JG2qoAuiqIoiqIoiqJ4FEoAF0VRFEVRFEVRPALug5++lbtJNXnn32Vv3Y1ZP9zRJpyOR2SMrSX5rSSoRIANpPf8aUSmXqf8UxpmI12rcL8SeKsaFkdpKW51plfdiRwaPr/XO+qIt1NpIrlDPCugVYUmwhgjRTCb1JRM6qrmfmzrILnRK03waPTWWEQYZtjNHWO5Q549Qz75Al4/QXzgpyPESszr72TyeKtGnk3WiAaB47YiOGZrVk8PRVqD5XqKXidi5LF5bivHWPFxh9mKaoPIRHCMlaaB7xLV+KlcJnVTBJ8HfX9Iu25bupdydq9XvqxwfnB/Njl8+bOH/3x4I38s1b4fMynMW2tYBGOc0H7IDeaWXzrQAFvXv/l6RVEURVEURVEUxS+jBHBRFEVRFEVRFMUj8PM3gLc08OXfz0JYpvx1EbQtgCPj+KOvGT7Ax9zUbTTxfcs3zKf4DRqZGM5a3vupz30bli1F20DGW1by3YJwO6+55TvlrrvRe0dQhjiCzq3YjonSlytUF2g9j1VI0dpaHjeKcMLuXtKvn/Ph//K/I9fXxDDk5jtu/r//yulP/wQ3L7BlQUQwyy1gbS2riC1rm1VaVk/HQAlElzz09YibzXQvhARmA9wQHPc1U83jRJihONqYdc/3892/jNxFfreQPV/zbVN3u/6bEP4hRATRB2ne/aP261K5QoAbkGK6qWJBfg7pKaxnDbT8pJR8URRFURRFURRF8XMpAVwURVEURVEURfEI/HwB/C72aC5bETRoSlB3xNcZ7A3A32EalQjDxko79PS1EUgESjBm6jcIVAMscqt1pmXzdfO9VRvugAZhxsM3iwicrXKYuSXL3BCe76tb3TDQdK+lxj2LryM3gHvr0Bpog2VBekNE89VFCQm0OyKKubNcf8Dy+X9mPHmO3B2xZ7/huj9jXVfWr25otHv3ZJPZuUccKXKlIeF5nUVgCCqB2sBj4ICKom7Ylu52AzPwvKaiefzbNc078APJ6Jmwvsd28WZimgDRt59/+bzLz1lMgf9jSV13nxXQlzXj8z1+xXb1vbpoHGh70jjM9rLrLbV8Ov3YFxiKoiiKoiiKoiiKX0IJ4KIoiqIoiqIoikfgp20A/xjzNWIKUgloV2hfsNORcEuxKueM7sPnKzF/L4WcuxPmLKqzuhjcxkz6bmnfeNBCPYdnJQ3lOdmaojN3biO7qndpvB3Cdg65I5xSeIpKDWy+UWs9xbO2HMNVhd5AFdEF6ZnizZ3ZSLE8QJZr9MMPGcsVzz78DPms8fLbv0AYzz//A9//9Z8JW4kIGgKt5XnvYjarqYlBSB5mc8djEKqoOJtcz+3gsSd+55Pv1yurYMa8llOJx1k8P3T0D1O4EeySPJj13xc83OF9+PfLRPDD17+4u/d+tn18Lmuhfw17FfT2+vNNwhwP9s3i9/PvSFEURVEURVEURfGQEsBFURRFURRFURSPwI+lMH/GKwFzDtZBWycEfJweyLq31Z3ElH1uuBnaFdVOxNx6bUqYZO1xpGD2sF36pmgNPIKmDp4pWJcUto5lElkyUaozjLoFQTcRuDvkrR64KWYD8SmvVWfJdQrI3hr0BWZFNDLTwETKw/k+ugjt+jf0j74klit49hz95Hd8cPiAIVec7l7z5Ks/c3z9R8bxBjRQNGuVY8yq5oaaIRq4TznpK+a3yFBCF1ydJo31tNIU1Na58XyWyFmdDZhnGnirZSY1vGSH9BT2cU5GAxGyz/3Gfr/7fu/z7+9Ws+Gxp4Tf9TuXIngTvIpM2Wz78cM+Jf2r2c77fJCBRCaAfa+Yjh88p6IoiqIoiqIoiuLXUQK4KIqiKIqiKIriEfBfuaV6SWxZW+modnBHPOXd/fTvO4TaTJP6WNGmgKIqKYS1p6xVWNcjvfeUlXEpIs9V0BGGb4njKZFVAnbx+2NCL2uXBcGETM82ZuXxzBTvwjJ/T5qCBo6DdtAD+uSKw3IgWoP2dPYXD+5efMchhFiuiCdPGb1z+P3/TF9/x7h7g9++wF5+y7h7hYwbwk9TOVt66X6NtgMhWQOtpzvACVdMnPATzFxvalQF8V2uMu/EVsN8TthmrTZ7sloQOQtgVYUQQrZt4/MXCLZE7+XrX/4cub/5e+93HyaDH35l4EF6+H2y1YATs1JbAGwX40LWdxdFURRFURRFURTvnxLARVEURVEURVEUj8D72QCeTN8a7YC0npXGvqK7Dnx3BfQmDyGy0tg60tt5M9gH6ELIOfupl0JxyrrWGhKGIpgbvXWGrxn19flabEnSuCcj7x3P5XGpgErKbZH7ZyDQw/DouHRkeU67foouT9DlgPaGm8HphN/8lePt9yy/+y/w4cppPXH4+HPGzfcc//xP2Nf/L9o/5PDsOfLs99inXxJ3t8ibF9y9+Bq/fQmnN7RlQT76gsPn/8ByeMrxzWuOX/0j9vpbFlHMVpamZOu2ZKKXMf98cZ5Tql4mb0VS8OoU2T63djche65t1v3v+QfZ09S7rJ2p7vzzD6d+Iy7vyUP+bcSrbEljIlPXGkQIsa6Etvf770hRFEVRFEVRFEWxUwK4KIqiKIqiKIriEXifcmvf5NUF0c56d4OEI6TK29OWD1zgLgcjEBy3QV8OhDuqwhgDbQuqsidJVTqEzQriDcV9RQSaKiINafn+4WM3t+/cnb0QlJmKtax0hqx1FsEF8CAIWvYpE4enyPVT2vUH9Kcf0A5PEQFbT/ibN5xuXmC3tzBeo6Ec7cST53/B+zX6+R+IduAJT3jx6oa7F/8Pt4cnLB9+ij7/FH32EcsXv+PZF//AuH3NeP2Clc5Hf/hfkY+/ICRY7MTVJ5/z4v/+Pxkv/krDcXEkth3kXPm9l9BV3UX2dgV0Cvh0u45IvC16pyhlbuLulc4q+ybww6TuVuM8L/LbIniT+LG9/v378G9BYOfPBuQ2suiekF7t9G9yHEVRFEVRFEVRFP+jUQK4KIqiKIqiKIriEXifAlgQQqBdd8BRz/rg+AkTqucaYiBGJme3lGoIiBEI2jpujoYTHqAxnXKmXc0N1RSN5mMGj4XYtmpjIJvYlYvk6V6FLbmvG/NcWkPmeZik7Oy6oIcntOe/wZ9/yuFwjYqCnTi9fI2dTpidkHFExwkxy2NZrtGbV9x++6+st6+xT3/P4b/8H/gnn7L89h9gvcVuXjK+/RN89UdkWTg9+YD+/BP6809oH3/Bkz/8b/TP/kCsA7+7geP39E/+E1e/+QeOL75itYFOeSvolL6KcK7iFsAiUO04nnvJ5iiBu89Ubl6Y3AxOeexu7CnuKW3PqeD7Nc3vvOVzT/i+gI+Lx+L82I9/ZB4NZaaCpxB/WEldFEVRFEVRFEVRvB9KABdFURRFURRFUTwC7u9RtUUg7YBKx2wlbN0ePgc7f2B/9ywFAXfCLWukmVu17tAavV1hrFn/TOBuiCo+JaLOyl4la4kFITQQbRAGodP1TuHMFJGXyVM3FNDohIMFaDtwffUEufoAOTylPX0CV09Zxh3j7hXH0wkJz+pjHzNBK4TFFOFGE0HWI6c33+PH1xy/Fdr3f6J9+BlXH32GHO9Yv/1nxptvc2v49Bq/fcXtt39iuX5Ge/YpTz76nPjwC2Q5cHj+MTdj0FrQDtdIOCqZXk0X69vYL6Jbmtdw2vxz5OPbtZ9SV7VxKWYvN4JhS/zKPfH78IsEHrEnvs+vcX/zN+u7lfv8e6rfSxxcQckvIxRFURRFURRFURTvnRLARVEURVEURVEUj8DxeHx/LyaB9itUGmN9ncL1FxARYCvaGogSYZnC9MAkt20jAtUU2CIB4lkHLR0VQyQIDyKcQAhViEaMcS/PmYlYwcP2KmJVBW1Z03z9AcvhwOHph8j1M0IEO91hr17Ad9+yxprCVyFotH7AfORracu2ZDNCSTm83sHpSA8hbr7n9NU/8/TqCX79HP3gU9Rv0eMJGa85SUM64IGPI/bqK17/+R/54OlvGYfGUOdwumM93eK3r/O6uRHatrNLqYsi4inRt3MWyWs3u7nzMaB13I2YIjgeSFtVYXO9l9L3UhTvqeCLx/Of3Pv5vfv9d0Z+KQCIwGz8ex9OURRFURRFURTFf0hKABdFURRFURRFUfwdk8Ks4W3BfCXG8RcX54oAdsJ9QVQy7SsrTYTQhjSdvyconBuJN2knmruukHJ41jpDw0333mcRwTMiC6oYQrSF5eoJ/fnH6PNP6VfPEJxhRtzcMG5ewO3X+PEG6U+Rw5MZYu2YD8ZYISJrqLXvqVpZniKtMW5uCLO5zTtYv/uK8dEXyCe/pS2NePYp/Mbxr/4bfX2DryeuDlesKOrB7Z//icPz33D4zX9i7dewHvGv/pHj1/89k8+7hHVAMxENiHYQQ0JxeDvdOxPCxKyPFsgNYZimnXlxeZjkVX1Q//yOjeUf2lv+e2QX1GFA28V5URRFURRFURRF8X4pAVwURVEURVEURfF3yi73pKG9ZSLWPeuXf1Gl73yOOdIkE7kReAzCZ1KVwMxpreX7B5ivtLZkGtcB/JwCnpXEKR8dpvwNFO0NludcP3mOPvkQDk/Q5QDhjNsb4vYF4/gGHSu44+ttpnlloOMOpBMGKrleG+H4GmjrhDaatnSoYxCnW2QcoS2Awe1L7r75E88+/JhVDxBCe/YB8tFvOX73J9QzPewBDaN9+yde/9f/i6uPv0Sefsbx7juOf/lv8OqrfavWPdiKlcMcaW1WfUteF02RKwISU/6qZG1zwLbgK5Li3D0IAZ3X3N1R3faF89pmIlvfqos+byvfF8BbbfRlQvjvhguBLQTHu7t/5wMqiqIoiqIoiqL4j0kJ4KIoiqIoiqIoir8jhCCkTXkXWbO8LDQW1vUNTqA0RH5eejLdbiZPw4+EN6RdQTgRjthAWwe9wvw2Ja4GEsIy07Yx87UOoB3c6BJ4rHhfkHEH/RqWZ7QnH3J48hRdnkNfcD/hdy8ZL96ADWI9AcFwo2mf6d6GmYHkTm74CeyESE8JyjwOuyNGEE8/Sv15l3vBYDQPhnY6J8brr1hf/pb+5BPu7GvcBvLxp1zbCXutjPWItMBPJ9AFXnzD3Yu/Iu6Yn6a0nXldUXSXrTMRbY73nvvAm0zPCzUVuCCh+Xz1XSTvkjZS/so0xmf5G5m8FlDpU/5uEtr2t8867Kzw3l4XzpL470r+sp3B+csCEn9fx1cURVEURVEURfEfhRLARVEURVEURVEUf2fElhgVcIS2HCCMMJsJ1F9WnbtvyZrjY9DbgpMysndlU7yqy0xpKmEBvbH6mPXLghu5B6xBiOLxDF0W7IMvuLp6wnL9FKQz3PHTS04vXxM3r4jjawBkeQJtQRUkHAhEU5TGCNrDquNY8SmvCQhxwjVFeMC63tKb4AOitXxtHLt5w/jLv3D4zx/Qr55y+vpb5OkV+smXuCjy4i+w3mXqeFZb42A+5vn/kKCMPS2drdkpYbc09Ln+ef4use/03t/ujbmFayiCY7m3zPaa/v+zd29Nkl3nnZ//a+3Mqq4+NxoHEgDJGc3YEo4ibX8DR0zM5dz6yt/IV77xB3KEIybGEgEBojTSSAQIECDRB3Q3ug6591pzsbOqCxBIgiJgicvPEwyi65BZO3fWTcev3/Wml+XZ78SloPuvLe4CAADwr4cADAAA8F3bT2x+k4HHZ7OePeklZbPJZrNNW3bJMq8Dn62d18Xf/lyXouH5ccLrDta+TuHud7CWsu4Drpspybp7dllaamnpdX3spqxBtJSSXqbUaUqvU+qVq9keXst0cJQ+TemnJ5mPn2Q+fpz55Gnq2Un6cpZSe1paat1kSs/Se3ovKZd22LbzP7eeUkvqV45C7r3sp2lr6vYwm8OjpM3pu9Msy5LeWmovKWWTnpa0XZbHn2Z+/Gpy43b6vV9kefww052XMt24m3J2ktOz42zqJr0tyf6Y6eynrH9XaO/p6fMupdR1QrjWi2Oca61pvWdZ5mw2m6SXtN5SyqX3JC21TM9GY3vS2rx/T6aUy9fQs98jfH5U96VfmD9Sl/cXAwAA8O0RgAEAAL4D52mrfOXjb/bYfrHlt07b9JYsu5OkLedn//7mx34lqn3dx6Uk6UuyLCnTtAbg3vfhNUlNsqw7b0tJ5naWzXQlS5mS7VGmq1cyXbmWuj1K2dT01nN6epzy6JPsvnicfvx56nySqbUs0xqV08o6sbska/Ns+3A6rf/NGoBLKWnzkkzL/qXWNcqWnlr2U7EpycFRMh2kHT9KaWfrY+uUWjap+2ja07Psnub03kc5uHYr090Xsvv5f019ci/bo9tZbr2U+ew47fRp0peL3cprlP5d79j6M9bJ3ZKSuo/y6+Na60nNfs/y2tynuknPcinE759lf+T3NG0vAnBN0nvNVyP05QljAAAA+DoCMAAAwHdhP2h7HgTXcLf/0lpgk685Yvh8Srivq2RTp2m/v3e+ODa4ly8fT/x1QfCrRwaf/9zzY4d7a2nLkmmzSetrXO1tTZnzfpq1t5bUKUlPvXEnB0fXU6/ezFI36W2XvjvJyYOHKV88zHT2NEtfMs279N6ylE36VLJpS1pZp19rXQ9aXoPznLJMaw3u6/7baZrSWr3YiVvKlL5k3YW8PwK6tKQeblMPj9adu/MufVlSpk1q6zktPdvSU3tP7TVtnrN7+FEO7vwgV26+mPnqL3P66Nfp2aRcvZ2D28/n9N4vU85aet9d3PgvvTtfeZvWIepn+3anOqXVKS3JZrvNMi/746rb/rWU1GkffPdT121eA3frfd3jO9X0pa3vTe8XCTuX3tvzaPzH7et/7wEAAPj2CMAAAADfge2tF3P25GHKcpZ1JGebAAAgAElEQVSkp+2PL352JHPW44y/Os3be1JqSlmPOs5mm9Za+m5J6fup4G8Q0L5uR2zvSS9rOl6PV56ztG1KmVJ70tourdbUsk22m5SDK9lev5mDg4PU6SitL1nOTpKT4+y++Dxt9zRl3iV9zlxaap/SypLed6np637h9czqTOcvrSS97VLrNqVOaftJ4HlZUntPX3r6Zk7pmzWil6S3dYfuVNr6rNNR6sFBsjvOPJ9lqiWlLOml5jA1fdl30tJSWk9/epzdw5+n3vrzHD3/ao4f38vZg19lO9UcXL+TvrT0+x/leHf67C/JtSat/cZW2XtPrZt9zG4p+2i76+te4/Wo5rI/uXm9/lpKapnWo6P7OuVdy7PjsHvZH/3c5/U56/Sl4Ht5cviPU7/4HQAAAOC7IwADAAB8y54en6Rfv5PD6SDzo3tZzo6T/bHO6//WEJZSvjTheaGvxxyX6TC1btN3T1N620fN5GJE9fdVsp8cLmlLS/ou0zSlbo/Wqd/Da5muXM3m6G7q1atZak2dl0zzkrNHn6btztLPjlPaWdJ2qa1dDKkubb3u9efsp4nPX9+lZlnOd9nuX35ZesqUTLUkrZ+vuk1aSZmmJMu+GPb1UOzNYbZXrqWkpp2eZGrLPnbXpNa0/YRpLT2trXG6957Tzz/L9vH9TDefT735Utqv/lv6/V9mef6H2dx4LrvlOJt7S9KeJrUnyzqZezniJvtwnr4/mrpnWZaUqaS1dYo5Scp+F3Dv+0nvvk5s95KL+NunddNwetZ71c+/db3+8ynjr7bSP+rjn/v+t69Wc8AAAADfIQEYAADgW9aWJcvTxzm4eittupI8/nXayYN1p2tra8/8DWOQPSWlt7QyZdocrJOl81n2GXKdFP2a452/iZKekiVJTfYTqkvdpFy9kenodjZHRykHV1JrSTs9S/niOKeP76csJ1lOzjJNNaWWtKmkTdt1erctqX3JZqpJ61mWpNbNPlR+fag+3+27LEtK61kyp26mNRyXZKo1ff/61knamqW1pGzSt1eS7WH6sstydpK6vzMt6/e11jJt9pE2ybLMmTbbtNMnOf31h7ly9fVsn/t+5sefpD15kJPttVy5eTvl+p1Mx2eZn5wlfUmt66hq2wfslFyKwSX1fG9xa+s1tJbUZJmXlFpS6n58uazvVW8taeebnc93A/ekTJnKuuu3LfP6+bZG4lrO79Yfd/h99g8XSkpdQ316/2f9GwYAAAB+NwEYAADgW9ZaS3l0PydtyebqrWzuvJizx4eZn9xPssu0dsGvDWCtlEwpmaYp07RJX3aZd6eZzo/PTS6miM9djsGXd9N+9eOeZMkmZXMl9eh6Dq7ezOboeurRzZTNQfrp05w+eJDd8aP0ZZeynKW1XUrtybTfT1ymZE6m8y3EpaZMWY9LTktJ3QfTmvOzmM/3Gq/X3tdoWnvS1hC6nE88lzUe16lmSU9rc1KmlExrFJ42ma7cSK9T+vHjdWq2Tim1ZFOnLMtyMYWb1PRpm7KPrFnmLE9+lfbwuUzX72a69XJOHz9IffRJ5naag9vfT33uxbTS0h7fT++78+6b/S2/dL/rpT+vUXczTdmd7bLdbpNa0ltJ1qHmnG/0XWd+y8V+6Iswup/8naZpfb/29+6fG/p/l/Nd0F9/TPhvz7K/7Xq+/rH76Jsk05Tsp397W1KTPH16nKtXj775xQMAAPA7CcAAAADfsps3b+R//9/+U/7ivZ/l3b//RXL1Tuqtl3I4TZmf/DrZ7dL3W3LP02LpNb30lP0xuZm26WWTfvZ43f1bLh1DnC8H4Iu+WPKsVJa+BtLW0mtNpm02h1czHd1KvXoj2RysE65nxzl7+EnaMidnX6TsTjK3mu3BYZb01EzJbk6d1unalJqWlm1ddxEvy5Kc/9hSk9rXSefzT5ZnxyCv33Nev/fHKKekZp16XZcT18xLW48J7nV/ZnRJqVPqwWHq0bXUmpzNu5S6BvPUaT8tu96I3tf72nuSzUH6krS2JMePc3z/41y/cTeHt7+X5fOPszz8NMvjlt10lHLjRra3Xsqym9NO76fvr6mUkpJnxzyXOu2/1lNKT1/m9Ro2637fZV5Sy5Raa2opWZaWWqacH2Pd55YyTWtI7iXJkqSkl5Le1wnxUmt6a18O+N/SFPDXxd/f9tzn31/Ks3i9/8LFPyx4Nqy8ZvNSyn6Ku6zT5ll/v9fvKPnx22/lJ2+/If4CAAB8BwRgAACA78D/9X/+Hxd//ot3/zrv/uzv8tO/+W/56U/fy3/+f/7vPH10P1NKWm+XjoPuqX1ZG9q0WUPmMl/E03Wn7npMdHr2xwyvj+vnGa6uxwe31GRzmM2Vo2yu3Mjm6s2UzeE++p6mPbmf9vRBzk5O0tOz3V5JuTjyeA2opZeU2jLPS+q+z/bWMk1Tlna+B/d8lfE+KtaatCW1Tun7vcVl/00XMbP3de9tnZ7tC846WdunZOprPCzTJil93btbptSDo2RzkHZ2fPH4WjfJNKW3fUTtS0rKOgm8Wf/K22pS+5w6n2b3+b3svrifzZXbqTdfTJ58nuXsNLvHn2W73WQ6PEq5dTdnj9ZgvD5f1knncj7NWi7ifWltve+9Xuy2naYpF+9KT2qpWYeG9yE0PX3az1C3nl7quiN4H77TW0qZ1qDe1kng3yf+/j5Tw1993q9Ojn/1+frF/1/+3H5q+fxo8fVBKaXm6OpRfvzWG/nzN1/PT/78zfzk7Tfz47ff+MbXBwAAwO9PAAYAAPiO/eSt1/KTt1770ufe/5v/mr/4i3fy7l+9l5+++27+8p3389n9e0lLep2ynTZZ2rJO5l7qeZfTXl/WideprAGy9aRvtykHV3N0dCv92vVsrlxL78m8O8vyxeP0L+5lPv4iWc5SSsm6ybdnmmoyHaTVKSU9y3y2Rsich+eWXmrOTk9y9eq1zK2lTOXiqso+/K3dsK5BsOxnldulCdLL178PiWVaw2Gtm7R2tk6Olrqu0C01vdT0zWGmo+tppWY+m9e9u6Wm7GNrmaY1ti7Lmmb7eqR060taW1LTUtNSTp5kd//jTK/ezea5VzM/+CTL6Unmk4eZHkwpd19KuXEnpU+ZerI7eZyU/UbhaT2uumSN9P38eONeMreezX6gt7W2j+Hr8dS9t7R5l/Ssu46zSW/rbUotKW2dBi+1pJ/v/02eTdj+AfH3tz32N4Xi3/WY3vb7nffWY61r7j5/N2+/+UZ+/PYafH/89ht5/c/+x2987QAAAHw7Sv+2zpACAADgD/LJp7/KO+++l3fe+9u8/3f/kHfe+au881/+y/7M536xK3ZdI9vTSkmvU8q0STm4kc2VK5mOrqUeXE3qJjk7yXxynHb8OP3pw5TlLLv0bFLWKdwkSc3Se+p2k3p4dd3T2lpaT6Zpm1JKlmWX9JZps808z5mm7X7Cs1zs9F0b8XocdEnSlyXLcpbSlvRl/vJkaSmZDo/S6/nzrI+q0yZtaWnLLpuDw/S6XQNwnVIPr2Z7/VbmeU6ePklfTtep3FovgmtblpTlNL1PKZsppfe05SyZz9J3u5SyZO5JvXYjR6+8lYM7L+b4w7/N2cd/k+yeJtmk3rqbg+deSpmOMn/+aU4//3XK7unFvVq1i/est7ZOO+f89bXUaf24pWSz2SQpKW3Jsszrfcp0cczz+fR3X+b1Pek9fVnWn9F7Sv7p9O8/9zjo3xSHf5/n6/sTvN947U/z9ttv5s/fejNvvvFnefvN1/P97730e18TAAAA3z4BGAAA4F+5//cv38m7776f997/Wd79q/fz3s/+Np/ee5gcHGW6cj2bo+sp221SN1nOzpL5aXZPHmU5eZKyLCn7ad++X+Dak/3RxMn5rtxSp5TDw5TN4f7rPZvNNmtq7uskctYovPSWut9RO9XpUoDd7a+4J23Osiyp+ynmki/vnq2XAnCS1DplPSK5ZNmdph4cXhxZnc1httduJpuDzKcnqWdP01pbj4k+P5T4fFp2PkvPuo+3LC1tPk1vJ+m7OUtrmWrSS8nh3T/J4Q/+h+yOn+bp3//n1M8fZq5LpoOjbG48n82dF9NTsjz4NPOjz1KWed03nJ7el32cTVrqxXTzeh/Wrcal1iylptZpH1hbyrKs9+Z8p/A695taSnL+td7XY6Gz7LfproH9D/V1e3/PP3/u677+vZdezOuv/WnefvP1vPH6a3n7rdfzP/347T/4egAAAPjuCMAAAAB/hB58/jjv/d0/5v2/+yB//bf/kJ+999d556d/mU8/+Shl2a2Bsn+TcPhs/3DfHGR75Vpa+jpZvN/3u8smU99l3i052G6z68t67PT++OZ+Hi3bnHnerVOvS8uyLEmfk2VZc2fv697bUlMOjtZofX4Fl46IbsuSMh1mszlI22ySg6Nsr91Mby3t5Iu007OUWrK0ObXWtJZ9hO37PbpJpiltWZKzk7Se1GWXed6l9iW9zZmOruXKD19Pbv0wu1/+LPMv/yH97GFaPci02abevpuDGy9lmecsDz/O8uThOqWbnt6yvu42p5fNOuWcvkbx/R7cNaBv0npLa9mH8vU46qkm87JkO63Ru7dkWdc3p5V10rv0dSI4+e1HMn9TXw3Alz/uvefOndt547U/yxuvv5a33vjTvPH6n+WtN17P7du3/uCfDQAAwP+3BGAAAICB/OKjj/NX7/113n//b/L3//CP+eCDX+TnH3yYn3/wixwfH3/NI/ZTrekp0ybT4dX0OqWXmvSWzTSlZZuUJX1eUktdd/eWsu6szX5ytK2TsW1Z1mOO5/U46PQ5fV6PkD6fPi6bbabD9Zjq9W+ka6hep4CTZZmzOThKr5tkeyXT0Y1srlzNcnaS+fhJ6rKkTCXLMqempmXdFVxK3+/QXZJak6WlzKdpraVmyTLP6fP+WOres3n+Rzn60Vsp89N88cH7Ofv845SlZOpJO7qeK3deSrl6M+3sJMvnn2Z++ih9d7oG2iS99PRWs172fp9xKWmpF6+p9/U+1VLTWk+t5eI+TbWuu4BT0uv+Hu4bbeltH/D/6RHQX/V1Xz8/1vly5L127Wp+9IMf5Ic/fDU/+uGr+Xd/8m/zxmtr7H31lZe/0e8XAAAA//pt/qUvAAAAgG/Pq6+8nFdfeTn/8T/8r//ka7/69Wf5YB+Df/7Bh1+Kwz//8IN8/viLZHeS6cq1JGs0XJaWusk61VpKWltS65TWe0ovF5OvrewnY/fHHbeSbEpNW0r2ZyUnKeu502Xdkdvbfmq2rwF3LcclpUzr0ch1k2wOU7aH6aVmmeeL3cXrMcxtPQC61H3o3P+gXlJ6eTbcnHU/cSlr6F7anCxz2uPPsjy+l+nOizm4+VKWJw/S20mSJcvJ0+wefZb0KdtrN1Ku3k6Zd2u47S3pyzp5XNt6vXPLOvy7Hu6c8yhb6jr1nKTW8xib1DKlX7rGkqTXcumS1/uQsk5Xnx+h3b9mqvs88j733J28/L2X8qMf/SA/+uEP8m9+uMbe8/++8Pzz/6zfKQAAAP64CMAAAAD/P/HiC8/nxReez//yP//ka7/+5MkX+ceff5APf/lpPvzok3z4i4/zwUcf56NP7+XDjz7OBz//IL30tLX0JslF3DyfQr08i9rTU2pN6dOzPbaX9wDXuj5Hmfafm1Lquh+31JrUKbVOayReWtruJDVr9O3LOnHbe0/dh9dekr4sazRNSS81vU5Ja2m9pe93FaeUTJuDzKdf5PThJ7ly6062d17O/PCTPH34aTZZJ2/n40eZypQcHqYeXsvm+pKll8xPH2VKTa1J63N6rynTlPNp3csTuev39IvXuizLGoBT0koudgfX/bHS5/ey1Gn/Ote9yi88/3xefeX7efXl7+Xll7+XV17+fn7w6it59ZWX88rL38+//3f/9g/51QAAAGAgAjAAAABJkuvXr+XNN17Lm2+89hu/58OPPl7j8Ee/zC8+/iSf/vpe7j/8PPfuP8i9ew9y78GD3Lt3L/cfPEzLftK1LEnWI5rTk7Q581wzbWumzSa9PTs+uZeaUtdJ4DrVbLbb1CQnp8cXO3HPY2pvS9ql2LrG3ST7H5NaU7bbNai2NbjWuknNsv6seU5/+ijt88+z3H05h7efz+7kccrpvH5/lrSnDzJvjzLdvJvttdspKTlbdim7k/Wa09af19brWvbTv3Xderzf55u01vaxuubo6Eru3LiZ28/dynN37uS5O7dy9/btvPDiC7l183ru3LmVO7dv5/m7d/Py91/Mv/8TcRcAAIBvzg5gAAAAvhOf3buf+w8e5t79h7n32b18dv9+7t+/n0ePn+T4dJfjszknZ3OOj09yfHqWk9OzPD05zcnJaU5O55wsydl0NcdnJ/n81x+n7XYpZUqdpvS+pC9tPWm51tQ6paSn9V2WZclUatKTeV5Ss0vbnaX2ZZ0Qbsu643g/XTu98G9y+IM3UpazPP3Fz9Luf7QeGd2TnpayvZLNjRdy84WXcuP61Rz1s1zLWa5ePcj169dz89pRrl+/kes3rufW9eu5ceNarl+/nhvXr+XG9eu5efNGbt9eY+/3v/fiv+ybAgAAwPAEYAAAAAAAAIBB1H/pCwAAAAAAAADg2yEAAwAAAAAAAAxCAAYAAAAAAAAYhAAMAAAAAAAAMAgBGAAAAAAAAGAQAjAAAAAAAADAIARgAAAAAAAAgEEIwAAAAAAAAACDEIABAAAAAAAABiEAAwAAAAAAAAxCAAYAAAAAAAAYhAAMAAAAAAAAMAgBGAAAAAAAAGAQAjAAAAAAAADAIARgAAAAAAAAgEEIwAAAAAAAAACDEIABAAAAAAAABiEAAwAAAAAAAAxCAAYAAAAAAAAYhAAMAAAAAAAAMAgBGAAAAAAAAGAQAjAAAAAAAADAIARgAAAAAAAAgEEIwAAAAAAAAACDEIABAAAAAAAABiEAAwAAAAAAAAxCAAYAAAAAAAAYhAAMAAAAAAAAMAgBGAAAAAAAAGAQAjAAAAAAAADAIARgAAAAAAAAgEEIwAAAAAAAAACDEIABAAAAAAAABiEAAwAAAAAAAAxCAAYAAAAAAAAYhAAMAAAAAAAAMAgBGAAAAAAAAGAQAjAAAAAAAADAIARgAAAAAAAAgEEIwAAAAAAAAACDEIABAAAAAAAABiEAAwAAAAAAAAxCAAYAAAAAAAAYhAAMAAAAAAAAMAgBGAAAAAAAAGAQAjAAAAAAAADAIARgAAAAAAAAgEEIwAAAAAAAAACDEIABAAAAAAAABiEAAwAAAAAAAAxCAAYAAAAAAAAYhAAMAAAAAAAAMAgBGAAAAAAAAGAQAjAAAAAAAADAIARgAAAAAAAAgEEIwAAAAAAAAACDEIABAAAAAAAABiEAAwAAAAAAAAxCAAYAAAAAAAAYhAAMAAAAAAAAMAgBGAAAAAAAAGAQAjAAAAAAAADAIARgAAAAAAAAgEEIwAAAAAAAAACDEIABAAAAAAAABiEAAwAAAAAAAAxCAAYAAAAAAAAYhAAMAAAAAAAAMAgBGAAAAAAAAGAQAjAAAAAAAADAIARgAAAAAAAAgEEIwAAAAAAAAACDEIABAAAAAAAABiEAAwAAAAAAAAxCAAYAAAAAAAAYhAAMAAAAAAAAMAgBGAAAAAAAAGAQAjAAAAAAAADAIARgAAAAAAAAgEEIwAAAAAAAAACDEIABAAAAAAAABiEAAwAAAAAAAAxCAAYAAAAAAAAYhAAMAAAAAAAAMAgBGAAAAAAAAGAQAjAAAAAAAADAIARgAAAAAAAAgEEIwAAAAAAAAACDEIABAAAAAAAABiEAAwAAAAAAAAxCAAYAAAAAAAAYhAAMAAAAAAAAMAgBGAAAAAAAAGAQAjAAAAAAAADAIARgAAAAAAAAgEEIwAAAAAAAAACDEIABAAAAAAAABiEAAwAAAAAAAAxCAAYAAAAAAAAYhAAMAAAAAAAAMAgBGAAAAAAAAGAQAjAAAAAAAADAIARgAAAAAAAAgEEIwAAAAAAAAACDEIABAAAAAAAABiEAAwAAAAAAAAxCAAYAAAAAAAAYhAAMAAAAAAAAMAgBGAAAAAAAAGAQAjAAAAAAAADAIARgAAAAAAAAgEEIwAAAAAAAAACDEIABAAAAAAAABiEAAwAAAAAAAAxCAAYAAAAAAAAYhAAMAAAAAAAAMAgBGAAAAAAAAGAQAjAAAAAAAADAIARgAAAAAAAAgEEIwAAAAAAAAACDEIABAAAAAAAABiEAAwAAAAAAAAxCAAYAAAAAAAAYhAAMAAAAAAAAMAgBGAAAAAAAAGAQAjAAAAAAAADAIARgAAAAAAAAgEEIwAAAAAAAAACDEIABAAAAAAAABiEAAwAAAAAAAAxCAAYAAAAAAAAYhAAMAAAAAAAAMAgBGAAAAAAAAGAQAjAAAAAAAADAIARgAAAAAAAAgEEIwAAAAAAAAACDEIABAAAAAAAABiEAAwAAAAAAAAxCAAYAAAAAAAAYhAAMAAAAAAAAMAgBGAAAAAAAAGAQAjAAAAAAAADAIARgAAAAAAAAgEEIwAAAAAAAAACDEIABAAAAAAAABiEAAwAAAAAAAAxCAAYAAAAAAAAYhAAMAAAAAAAAMAgBGAAAAAAAAGAQAjAAAAAAAADAIARgAAAAAAAAgEEIwAAAAAAAAACDEIABAAAAAAAABiEAAwAAAAAAAAxCAAYAAAAAAAAYhAAMAAAAAAAAMAgBGAAAAAAAAGAQAjAAAAAAAADAIARgAAAAAAAAgEEIwAAAAAAAAACDEIABAAAAAAAABiEAAwAAAAAAAAxCAAYAAAAAAAAYhAAMAAAAAAAAMAgBGAAAAAAAAGAQAjAAAAAAAADAIARgAAAAAAAAgEEIwAAAAAAAAACDEIABAAAAAAAABiEAAwAAAAAAAAxCAAYAAAAAAAAYhAAMAAAAAAAAMAgBGAAAAAAAAGAQAjAAAAAAAADAIARgAAAAAAAAgEEIwAAAAAAAAACDEIABAAAAAAAABiEAAwAAAAAAAAxCAAYAAAAAAAAYhAAMAAAAAAAAMAgBGAAAAAAAAGAQAjAAAAAAAADAIARgAAAAAAAAgEEIwAAAAAAAAACDEIABAAAAAAAABiEAAwAAAAAAAAxCAAYAAAAAAAAYhAAMAAAAAAAAMAgBGAAAAAAAAGAQAjAAAAAAAADAIARgAAAAAAAAgEEIwAAAAAAAAACDEIABAAAAAAAABiEAAwAAAAAAAAxCAAYAAAAAAAAYhAAMAAAAAAAAMAgBGAAAAAAAAGAQAjAAAAAAAADAIARgAAAAAAAAgEEIwAAAAAAAAACDEIABAAAAAAAABiEAAwAAAAAAAAxCAAYAAAAAAAAYhAAMAAAAAAAAMAgBGAAAAAAAAGAQAjAAAAAAAADAIARgAAAAAAAAgEEIwAAAAAAAAACDEIABAAAAAAAABiEAAwAAAAAAAAxCAAYAAAAAAAAYhAAMAAAAAAAAMAgBGAAAAAAAAGAQAjAAAAAAAADAIARgAAAAAAAAgEEIwAAAAAAAAACDEIABAAAAAAAABiEAAwAAAAAAAAxCAAYAAAAAAAAYhAAMAAAAAAAAMAgBGAAAAAAAAGAQAjAAAAAAAADAIARgAAAAAAAAgEEIwAAAAAAAAACDEIABAAAAAAAABiEAAwAAAAAAAAxCAAYAAAAAAAAYhAAMAAAAAAAAMAgBGAAAAAAAAGAQAjAAAAAAAADAIARgAAAAAAAAgEEIwAAAAAAAAACDEIABAAAAAAAABiEAAwAAAAAAAAxCAAYAAAAAAAAYhAAMAAAAAAAAMAgBGAAAAAAAAGAQAjAAAAAAAADAIARgAAAAAAAAgEEIwAAAAAAAAACDEIABAAAAAAAABiEAAwAAAAAAAAxCAAYAAAAAAAAYhAAMAAAAAAAAMAgBGAAAAAAAAGAQAjAAAAAAAADAIARgAAAAAAAAgEEIwAAAAAAAAACDEIABAAAAAAAABiEAAwAAAAAAAAxCAAYAAAAAAAAYhAAMAAAAAAAAMAgBGAAAAAAAAGAQAjAAAAAAAADAIARgAAAAAAAAgEEIwAAAAAAAAACDEIABAAAAAAAABiEAAwAAAAAAAAxCAAYAAAAAAAAYhAAMAAAAAAAAMAgBGAAAAAAAAGAQAjAAAAAAAADAIARgAAAAAAAAgEEIwAAAAAAAAACDEIABAAAAAAAABiEAAwAAAAAAAAxCAAYAAAAAAAAYhAAMAAAAAAAAMAgBGAAAAAAAAGAQAjAAAAAAAADAIARgAAAAAAAAgEEIwAAAAAAAAACDEIABAAAAAAAABiEAAwAAAAAAAAxCAAYAAAAAAAAYhAAMAAAAAAAAMAgBGAAAAAAAAGAQAjAAAAAAAADAIARgAAAAAAAAgEEIwAAAAAAAAACDEIABAAAAAAAABiEAAwAAAAAAAAxCAAYAAAAAAAAYhAAMAAAAAAAAMAgBGAAAAAAAAGAQAjAAAAAAAADAIARgAAAAAAAAgEEIwAAAAAAAAACDEIABAAAAAAAABiEAAwAAAAAAAAxCAAYAAAAAAAAYhAAMAAAAAAAAMAgBGAAAAAAAAGAQAjAAAAAAAADAIARgAAAAAAAAgEEIwAAAAAAAAACDEIABAAAAAAAABiEAAwAAAAAAAAxCAAYAAAAAAAAYhAAMAAAAAAAAMAgBGAAAAAAAAGAQAjAAAAAAAADAIARgAAAAAAAAgEEIwAAAAAAAAACDEIABAAAAAAAABiEAAwAAAAAAAAxCAAYAAAAAAAAYhAAMAAAAAAAAMAgBGAAAAAAAAGAQAjAAAAAAAADAIARgAAAAAAAAgEEIwAAAAAAAAACDEIABAAAAAAAABiEAAwAAAAAAAAxCAAYAAAAAAAAYhAAMAAAAAAAAMAgBGAAAAAAAAGAQAjAAAAAAAADAIARgAAAAAAAAgEEIwAAAAAAAAACDEIABAAAAAAAABiEAAwAAAAAAAAxCAAYAAHfLDkEAAADgSURBVAAAAAAYhAAMAAAAAAAAMAgBGAAAAAAAAGAQAjAAAAAAAADAIARgAAAAAAAAgEEIwAAAAAAAAACDEIABAAAAAAAABiEAAwAAAAAAAAxCAAYAAAAAAAAYhAAMAAAAAAAAMAgBGAAAAOC/t2cHMgAAAACD/K3v8ZVGAAAAEwIYAAAAAAAAYEIAAwAAAAAAAEwIYAAAAAAAAIAJAQwAAAAAAAAwIYABAAAAAAAAJgQwAAAAAAAAwIQABgAAAAAAAJgQwAAAAAAAAAATAhgAAAAAAABgQgADAAAAAAAATASmFzflZVDK6gAAAABJRU5ErkJggg==;clipPath=inset(29.88% 40% 30.47% 39.33%);" vertex="1" parent="1">
          <mxGeometry x="290" y="-650" width="1009.2397014925374" height="1090.63" as="geometry" />
        </mxCell>
        <mxCell id="OP0dDdMYu3jC3rHnwKs1-7" value="" style="shape=image;verticalLabelPosition=bottom;verticalAlign=top;imageAspect=0;aspect=fixed;image=data:image/png,iVBORw0KGgoAAAANSUhEUgAAAOwAAAEsCAYAAADATF8UAAAABGdBTUEAALGPC/xhBQAAAAFzUkdCAK7OHOkAAAAgY0hSTQAAeiYAAICEAAD6AAAAgOgAAHUwAADqYAAAOpgAABdwnLpRPAAAAAZiS0dEAP8A/wD/oL2nkwAAAAlwSFlzAAAOwwAADsMBx2+oZAAAgABJREFUeNrtnWV0VFfbhq/RuCvx4MHdpVgpFOhXqtSgVKi3b1vqrtS90BaHtjgUd3d3ixtxn5mM7+/HJCmUQCZGZsLca+1FOLPPOVue+2x7RIIDtgo3wBVwKfvXA/AEvMp+87rsugsQBJiBQMC97BmlQAYgBfKAkrJrxYAaUAGFZf8WAFpAc1kyO7rBtiBxNMENRTnBmgABZSTzA4LLrgUCvmV5PORyubtSqXR3cnJS+Pj44ufnh6ubG87OTri7u+OkVOLh4YGTszORkZGYzQJ3d3dcXFwAMOgNFBUVIpXJyMnOIj8/H42mlNLSUjQaDaVaLRq1msLCAnJyctBq9SajUV+i1+tVZSQuKSN0JpBd9m/uZX9nlJFfAwhH9zoIa2+QlZEvCAgFmgKRZWQMA0IAXz9/fzcPdw+Fh6cHAf7+REc3xdvHBx8fH3x9vAkLC8fHxwd3d3fcPdzx8vTE1dUNFxdnpFJpnRZYCIFWq0OjUVNcXEKJSoWqpITCwkLS09MoKCggL7+Agvx8UlNTyczMpLi4GJVKZczOzlKXEToDuFSWkoF4ILWM2BmAwSEaDsI2JMqnoDFAFNCy7O9QqVQa7Obu7h8aEkp4eDjBwcGEh4fTrHlzgoOCCA4OIjAoCA93Dzw8PZBK7K8LSkpUqFQqsrOzyMy0pPT0NC5evEB2Ti6X0tNJTEpEVaIuMJuNGVhG4wtlKaHs33Qs03IHHIStU7hhGSlbAd3L/m0jlUqbRERGugcHBdGmTTuaNWtK8xbNiY5uSpPgYPz9/XB2dr4pG8xgMJCTm0tGRiYpycnExsaSlJzM2TOnSUtLJz09TaPVanOAM2XkPVmWErCM2A44CGs1goHOQBegN9DK1dW1adOmzaRt2rShfYcOtGvXjubNmhIeEYGXp6ejxaoBlUpN+qV04uPiOXPmDMePHycuLo7z589TXFyUDMQC+4DjwCEsU2sHHIStgG8ZOQcDPYAuEZGRPh06dKBr12507dqFNm3aEB4WhlKpdLRWPcBsFqSnp3O6jMCHDx/m5MkTxMXGFgMngIPAduAolnWyg7A3GSLLCDoS6BkaFhbetUtXbrnlFnr17kVM69Z4e3s7mNSAUGs0nDt3jv379rNr1y4OHDxAclJSDrAf2AhsAc45CNt4EQyMAsYAA9q1a+c1bNitDB06hF69euHr6+tgiQ2juKSEw4cOs2XLFjZu3MjRo8e0ZrNxH7AMWIVld9pB2EaAgcB4YGS7du2D7vi//2P06FF06dIFhVzuYIKd4vjxE6xdt5Z/VvzDwYMHCoF1wFwso69D4cPO4Ak8CGzz9PQSDz74kFi3bp3Q6XTCgcYFk8ksduzYKZ6cNEn4+/sLLOvdJ7HsTThgJ+gPiBdeeFHExsU7pPomQVpamvj4k0+Es7OLAMY1RsFurFNiN+DkypWrmo4ePcpuK6HVaikpUVnUCEs1FBUVYTKZ0JRq0et1aNQaSlQqTCYTBr3+ms8RCBQKJXK5HBcXFzw9PFAqlbi6uiCTyfDw8MDF1RVXV1fc3dxxc3O12zaLjY2jTZuYUqPR2A7LuW6jQmNdxKmB1bNmz3rBFglrMBgoLi4mKzuH9PQ00tPSycvL5dKlTDIyL5GeloZGo0Gj0VBYWFRBWJ1OVy/lUSgUFYT19PC06Cc7KQkNDSMoKIiwsDB8fX0ICwsnJDSEJsHBeHl54+Rke8dcK1etxGg0HmmMZG3MhAX4Z+eOnS/k5OYS4O/fMMQ0GklOSiYlNZXz589z8cIFUlJTSYiPIz09HbVaTWlpqU18QAxFRRQXFZGZkXF9ciuVuLu5ERISSlR0NJHh4bRo1Yq2bdsQHhZOZFQkLg2o4bVt6zawnNk2SjTmXWJX4NyyZcsi7rzzznp/mRCClNQ0jh07yqlTpzl8+BDxcXEkJSWjVqsacTP/CycnZyKjImka3ZRu3brRvn17OnfuTFRUJAqFot7fX1BYSEzr1mRlZd0GbLgpGr2RYf4zzzxbb5sc8fEJYuGiReLpp58RPXv2Eh4engKLmZkjlSUXV1fRoWNH8dhjj4uZs2aL8+cv1Ft/bN26VWCx+w10iL594rF27dsLg8FQJwJhNJrE/v0HxMcffyIGDBwoPDw8HKSsZnJ2dhHdu/cQb771lti+fYfQ6fV1Rtgvv/pKANscYm+/aCmXy3WnT5+plSCcOnVafPzxJ6Jbt+5CIpU6iFeHqUOHjuLNN98SBw8eqjVh77nnHgF86RB7+4UUODFjxsxqd36pVisWLFgobr/9dqFUKh3kquckkUhEv/79xR9/TBf5+fnV7i+dTi9iYtoI4AGH2Ns3Zj7++BPV6vgff/xJtG/fwaYFPDwiQjzzzHMiPCKi0ZE3KjpafPTxJ0KlUlvdb3FxccLZ2dkAtHaIvH1jfJcuXYXJZLKq47VarfAPCLBZYe7Xv7/4Y/oMkZuXZ5munz4tmjVr3uhIK5PJRGpqmtWEXbdugwAS+dcBnQN2is7uHh76lNRUqzv/jjv+z6aE19PTU0yY8KjYunVrpeVNTEoSXbt2a1SEbd++vTCbzdZvOH35lcCi+N+oIW3sFQQuqEpKMk+dOmX1DS1atrCJgrduHcOUKV9w7PhxZs2ayaBBgyrNFxUZydq1axk+/LZG02kxMW2QVMPf1dlz58DibsZBWDuHBjh39qz1ts7RUdEN1yFSKcNvG8GCBQs5fPgwr7/+Gk2jKy9PcXEJxcUlAAQGBrBkyWLG3nV3o+i06KbV64Pk5CSA8zeBPN8U+HbC+AlWT6/Wr99ww6eAUqlUPP74E2Lf/v1WlXHuvPkiOrqpaNWqtbhw4eIVZ8Xjx0+w+ynxL7/8YnV/qdRqERoaJoDhDlFvHHiyZ89ewtoV0alTp264gMrlcqs2WQoKCsRjjz9xxb2vTp58Vb4XX3zJrgm7es1aqwmbmJQsvLy8dEB7h6g3DgyMjIwSRUVFVglAWmqa8PS88WqGVZ0Xb9myVcS0aXPVfX379q00/0cffWy3Z7JHjx61mrCHDx8RUqk0C0s0BQcaASKkUmnp2bPnrBKAwqJiERXd9IYL6v33j6v8bFivF+++975QKCpX4IiJaSMMRmOl906dOk14enrZFWEVCoWIj7fe8cCyZcsFlg0nhxfQRgIPIHHTps1WCYDBaBRdGuCYJCIiQqjUVyoLnD59WgwceMs17+nStavYv//AdesTH58gPvr4Y9GhQ0chtQPVyiZNQkROTo7VhP3l16kC2OUQ88aFvXPnzrNaCIYNu7VBlAX27NlTUYbffvtdeHl7XzP/LYMGiUIrp/lCCFFcXGIXShYtWrYUJdXQcvr0s88FFu+JjR43w7FOOXLi4+OsztwQIW9MJhNHjhwjNzeXe++9j0mTnqSosLDSvMHBwcybO69akQeMJiOaUo3Nd5SHhwcuLtYbwZcUF4PFrM5B2EaEjJzcXKszu7m5NUghf/75R/r168fixYuum2/wkCGEhYVW69mJCQnkZGfbfEf5eHkjq0aUvuzsLLDEt230uJkc8+YWFRVbndnfv2E2HC9evGhVvpYtW1b72YlJyRiNRtsXymp6p8i2fIRuCrceN9MIm1cdwspt3Mm4p0f1g3ClpqTYSVeJauU2m80Atv8lchC2WlAbjdbHFZbYeNxWjzLCakpLOXToMNk5OVXec/bsGbvoqOq2fUlJCUC+g7CNCyWZmRkIIRpFZaQyS9c9/tjj9OrVi/79+5OUlHTde1JSGmfkxjKCN46OdRC2AsVFhYWNhrDlyM7Jxmw2cfHCBaZM+eKa+fR6PSl2MyWuHsr69KaIp3MzEVYqk8mszly2LrJZlJdv1syZdOzYCYCdO3dgNJoqzZ+RmUlSUqI9EdBqlO03eDgI27hgrg4Jbd2XcPk6Lzw8nOnTpwNc1yl5Xm4epVqtnXRV9daw7u7ucJN4mriZjnU8XV2tjxmTY8UmTkNCexk5u3XrysSJj+Hu4YFcXvksYu/evWAnywGVqnofS6XSCcDFQdhGRtjQsHCkVh7ICxvfw/ivUM+YMb3SfKmpqbz51lssW7rUbjqqoKAArU6Hs5OTVfkjIyMBvB2EbWSEdbJSAASgUqltujLWHH2kpKQyfPhwzp8/Z9N1+S9UKhWlGo3VhPXy8oKbxLTuZlrDBpZ1bJXQaDTkZNv2lNgafPbZZ3ZHVoD8vLxqTYv9A/wBgh2EbVxo4u1tHWFLiovJq4besS1CCMHBQwftsuwqtYqCgkKr84eEhAA0ARR2WWEHYStFaHRUlFUZ8/MLyC+wT8UZIQTJySlIJBKsXQLYIjIyM63O26xpM5RKpR8Q4iBs44ArENqihXUK82np6XarYHH27Dl69OjBgQMHuXXYMLvtsMQE6+Mxh4Q0wcuy3ol0ELZxIAgIL9tNrBIXL9i+e9vyM+WNGzfRp09fYmNjAShRqcjOzmLFiuWMHz8Bmcw+9xUTE61X8vDz86Nly1YA7RyEbRxoExUd7dy0aVOrMidU4+veUHAuM/B+dfKr7Nu3l9OnLYr9oaGWWeGuXbtp2jSap59+2i47LDYurlr527ZtC9DtJpHnRo+PR4wcab17mFtvtWkXKg8//LDIz88Xhw4fqbi2fPkKIYQQZrNZdOvWXcjlcpGSkip0er14//0PhFLpZFeO2Fq2bCkMBqPVfTZr1mwBnOTmOqpstNj6+edTrOr4kpISERoaarOC/OGHH/0bT8YSwFgolUpx6tTpius///KrAMQXX35ZcW3btu2idevWdkNYNzd3ER+fYDVhz549J+RyuR5o6xB3+0YIULh33z6rOv7I0aNCLlfYnABLpTIxffqMK8p63333C0B06NBB6PX/RpkvUalEy5athJ9/gCgtLa24npKaKnr26m03pF2+fLnVhDWZTKJbt+4CeN4h8vaNCS1bthKlWq1VHf/bb7/bnOC6urqJxYuXXFFOo9FYLqDi7bffqXTE+eOP6cJovDLMZl5+vuhlJ6R98823RHXw5ptvCWCDQ+TtG2v+9/LLVnf6Aw88aHNxUv9esOCqcpaWakVgYKDw8PQUySkp1RLs9EuXRJtKIgjYWurff0C16nXk6FEhlUpLgVYOsbdPtAC0Bw4ctKrD1WqNiI6Otimh/fa7769Z3l27d4vjx0+ImuDMmbMNEo6kOsnd3b1aQZ3NZiH69O0ngA8bq0A39h21SYMGD3Hq0aO7VZmPHD1arfO/msDZ2YU2bdtiMhqrVM4IDg6mXbv2rN+wsRKDegmenh4UFRezdt0GqushxdPDk/HjJ7Bjxw6r75FIwGQyc/bsmRti4K9Sqdi+fTsPPfSg1eV76qlJ7N2zewLwNVDS2AS6McciCQFOL1m6zOeusXdadcNrr73OV199Wa+FUiqVfPvddzz7zDMYDNd2CicAhKC4uASz2VQvZXF3d0dRTZeiJrOZBx54kOXLboy53j333MOiRYuszq9Wa2jfvh2JiYkvAT80YvludPimZ69ewmi07izPYDCI1q1jbshULygoSFy8GCvsFVu2bBUymeyGtJWfn5/Iys6uVvl+/OlnASRxk7iNaQxoD2g2b95sdSdv3rzlhq7Pxt51t90SVqfXiw4dOt6wtpo+fXq1yqcpLRXt23cQwKcOKtg+pMD28RMmVKuTH374kRseA3XL1q12S9oXbmDA6D59+1odjLsc69avF4AW6NKYhFvWmCpTho/CIyIeWbx4sdXxcZKSknj+hRcw6PU3tKAGg4G77rrrqutxcXGcOnUKV1dXtFothw4dwmg04urqyp49eygoKCAoKIi9e/eSkpJCaGgoJ0+e5MKFCwQFBZGamsrJkydxd3dHo9Fw6NAhzGYzzs7O7N27l6KiIgICAti7dy+pqamEhYVx7NgxLl68SHBwMElJSZw6dQpPT09KSko4fPhwRdlSUlLw8/MjNSWV1atX3ZB2Sk1Npf+AATSNjrb6nubNm5ORmSU/cuRwT2AeYKARoLEp/9+vVDq9M3vWbAIDrPcY8vsff6BW3XgvievXryc1Nc0uGzqmTZsbZm/brl17Tp8+i8lUvc23b77+mvYdOnQCfmlkct4oMBJQTfvtt2pNnXJyckVQcHCDnTUuWrTELqfEsbFxIiAgsN7bZ9itw0V+foHYuHFTlYGrK8Pp02dEYGBgoz6btUeMBjTvvvdetTv09TfebFDlgKeffsYuCXsp/VK9K15MnPiY0On0Qggh8vMLxPQZs4TBYKh2WTdt2ixc3dwE8JqDKg2PpwDdJ598Wu2OjIuPF+7u7g1K2FFjxtglYTMzM4Srq2u9tcv7H3xw1Tu3bN0mtm3fUaPyrlq9Wri6ugngCwdlGgbewB+eXl5i7rx5NerEu+66p8HV75o1by7Uao3dETYjI0O4WUatOk1yuUJMnVb5skar1Ylfp04TeXl5NSrzrl27RXh4uABWYHHa5sANwljgTK9evcXhI0dq1HmLFi+2EbtPN5GZmWmnhK3bETYgIFCsXr3muu89c/asmDfvzxqXOz4+QQwaPFgA8cCd9ij89nS0MxhY7eHhKT744EOh0ZTWqNPS0tJFkyYhNkHYwMAgkZScIuwNSUkpwt8/oM7aoWmzZuLosWNWvXvxkqViXw02oMphMBrFJ598Kjw8PAWwBOhsJ/KvAJgN/A08i8Unjo+NFdITuB/Y6OzsLB6dOPEK7wo1wYgRI23GIiUkJFQkJiXbHWFPnzkr/Pz860Yxok9fkZxsfRvodDoxdepvIj09vVZ1OHXqtLjvvvuFVCrVAXOAfjYm+1IspoLjgF+xuMDhQN++/cTgwUOEt7e3AJKBzcDnwEMNROJAYAwwFUiIjIwSr7z6qjhx8mStBe31N96wMVcobrUWvIbA5i1bhVwur3X9x417QKhUqmq/Pz39kpg69TehUqtrXZc9e/aKceMeKN+U2gH8D4hpAIIGAP3LBs95wEmlUlnapWtXMXz4bRYNOWDHwkVLBtx7z12kpadz+vRpjh87zokTJzhz5jSXLmWY8ixu8OOBBCxK1ReARCCvLBUAxhoO8QFYwiy0LJuadAa6hIdH+A0YMIAxd9zB0KFD8PWp/Tdj2rRpNudFMCAgkAsXzuNTg/qVlKjIz88jOzsbnU6PTqdDrSlFCDMWQyyBi4sLLi7OKBUK/AMC8PX1w8fKCAjXw9Rp03imlm35/PMv8MMP31sVJ6gyHD9+nD179jFp0hPlMWJrhbNnz7Fw0SLWrFnNsaNHtWaz+TCwtyxdKBvMSmv5GknZgBQEhGPRe29VJv8tg4Ob+EdERtCjew+69+hO167daNWqJRfOn6ddu3YWe1iNxhL4KSw0lLDQUG4bPhyw+L69dClDFhcXFxSfkBB08cKFPhdjY8nMzCQ5KYmCgnydVqstJ2wxkF/2twrQlZFZUvY1VQK+Zf/6lyVfkAZ4eLgFREVF07JVS7p27UbPHj3o1LlTnZC0HPPn/8mzzz5rU2QFaNasGR4e1zcqEUKQnp5epn54kWPHjxEfF0dpqY7ExHgKCwsrZEEmk1ZE6DMLgcloRCKVIsxm3N09iIyKwsvTk6CgILp260bTptF07NiJqKhIXF2sj9hYkF9Q4zrLZDKmTPmCV199pVZt16lTJwoKi5g7bz4TJoxHKqmdtWibNjF8+MH7fPD++xw/ftx5957d/XZs39Hv1OlTpCQn67RabTKQAaQA6UA2oC6TeQP/mqsKLEs55zKZ9ysjaBjgh1Qa6O7qGhwaGkbTZs1o3qwZHTp2pFWrlrRs0ZKgoMCryqZWWzh63c+SVColLCyUsLBQbrll4GUCBEXFRWRlZTnl5+WH5ObmhqSlpVJYWERhYSE6nR6tVotKXWL5epbZVnt7eyNXKPD08MDf34/w8HCCm4QQ0qQJwcFBKJXKeiHFn3/+yYQJ420yqnpUVHSlo0N+fgGHDh1i+44d7Nixgwvnz5GfX1X4EIHJZLpKhU+U1VulKuHM6VMV15cvXwaAm7s7TYKb0LdvX3r17kX/fv1p06YN15P/o0eP1qi+3t4+zJkzhzFjRtdJ+w0qk8vZs+fw0IMP1IkMSSTQuXMnOnfuxPPPPUdpaSlJyclOcXFxLeNiY1umpV8iPz+fpMQEVCp1BZku/8C6uDijVCoJD4/Ax9cXHx8fAgP8iYiIJCIigqCgIIKCgnAp8y9dFUSZswN5TSvk7eWFt5cXto5vv/2WyZMn2yRZASIiwiv+NpnMbNu2jaVLl7JlyxZiYy/ekDKoVSri4mKJi4tlzpzZKBRKuvfowcCBAxkyeAhhYaGYzGYQAqlUilan49ChQ9V+j7uHB59/PoXOnTtz7vx5hFlcU8CMBiPRTaPwcK86sPqgWwYik8mYMXMWDz4wDk9PzzptHxcXF2JatyamdetKf9frDVeRy8mpfgafRusiRqfT8eqrk/n5559supwjRo6koKCAOXPn8fdff3Hw4AGkUil/TJ9BSJMmSCSSGq/xagKz2YzJZEKr1WIymTAYDeTm5iKEJcS1BMtUe/qM6dcm3DXg7OyMp6cnySnJ1w0GL5FIKCwo5MSJEzz8sHXuYQb074evjw9/L1jE4EEDadGixQ1rM6XyxgXNa5SEPXXqNE8//TR79uy26XIGBASwdMkSnnziiStGUyEExUVFTHx0QmPsHqvx199/k5GRSZMm1oV+bdeuLf7+/ixfsYLklBSGDhnS6NqkUZnX6fV6vvnmW/r162vzZAUoLdXy888/XTX1FULw5ZdfkpGZdVMTtkXzFpw5c6Za9wQHBzHpySfQqEuZNXuO3ZovNnrCbty4iUGDBvPqq69QXFxsF2VWqa7t1C8j4xKzZs26qQnbsmULcvPyqukP0rJZOmbMKAYM6M/GTZtYvuIfioqKHIS1BWzavJmRt9/O8OG3snfvnkYlsDNnTEelUt+0hPXy8kKYBfl5eTW6v1nTpjw28VFCmjRh9Zp1bNiwkZycXLtuE7tcwxYUFLJ69WrmzJnDli2bb/j7pVIpTZpYjD2u56q0tsjKzmHVqtWMG3ffTUvaoOAgUlJT8fPzq/EzevbsQffu3Th06Ajr1m9AqZTTqVMnWjRvgUxmX2OW3RC2oKCAAwcOsuKff1i/bi3JyckNVhYhBK1j2vLHH78jk0rrJ1q7BHRaHZs2b6a0tBSXSpQa5s6dy9atWyv+P378eAYNGkR8fDwff/xxxfXmzZvzzjvvAPDhhx9e4Sz9/fffJzo6mi1btjBv3ryK60OHDuWhhx6iuLiYyZMno9PpAMuo99VXX6FUKvntt9/Yt29fxT1PPfUUvXr14uzZs3z55b/+ndu2bcvkyZMBeOutt7h06VLFb59//jlNmjRh9erVLFmypOL66NGjueuuuwgI8Cc1JZXOnTrVqjmlUik9e3anZ8/unD59hrNnz3HwwEECAgNp3qwpkZGR9aYH0GCEzc/PRy6X1/k5V2UoLCzk7NlzHD58mJ27dnLw4EFSU1JsotGEEGzZvJHZs2fx4Qcf1Ou7kpKSOHfuPF26XG1Q0qVLlytGnmbNmgGWiOT33HNPxfXL1R6HDBlyxXrO19e34t7L74mKigLAycmJO++8s0IZw8nJCZnMYuDVs2dPwsLCKu6JiIgAIDAw8Ipn+fv7V/w9fPhwVJf5zyrX8mrduvUV9zRv3hyAJsFNSEhIqtM2bdeuLe3atUWt1hAbG8uJk6fYt/8AXl5e+Pr6EhwUSEBAAN7e3vXatyqVCo1GQ0BAgNVHdxJgx6zZcwZMGP9IlZnHjXuA3bt3ERPThrCwUJo0CSEyKoqwsFB8fXzw8vLCw8MDV1c33NzcLB0rAbnsXws+g8GicqzRaFCpVBQXF5Ofn092djYXYy8SFxtHfHwC58+fIyMjAxDYKhQKJcuWL2PU7bfX2zvS0tI5cvQod9SRZpC9wWg08vffC3jggXEVH4r6es+lSxlcysgg49IlTGaBVqvB3d0DT08vZFIJHh4eeHl5oVAocHZ2rpBtpVKJEAKdTo8QZoQArVaLwWBArVZTWFiAXm8gKzubUydPkpKaQlpaOufOnaVpdDR79uypUhf6wIED9OrVq3ojbHFxMWlpaaSlVb5VrlQqryCsh4cHEokEIcxIpVLMQiCVytBo1JQUl1QQVq/X2aUwGQx6Xnn5ZXr36o2fn2+9vCM0NIRt27aj0WhwdXW96Qgrl8txdXNDrVbX68xOLpcTERF+heaZRqOhqLiYkuIS8vJyKS4upqi4BJ1Oh8lkRCaTUVJSjKqkBCEEvr5+OLu4YDabkcsVyGQypFIJCDNeXp54enrg7+dLUVExBoMBrU5HWloaJSUqfHy8rStndSt1Pej1evLy8sir4a6ePeLixYt89dXXTJnyWb08XyKR4OvrQ0JCIu3a3ZzBxV1c3Cgt1d6QpdjlcHV1xdXVlSbBwVgCIdY9tm3fUbE/UOeEdaBy/Pb7NCZMGE/r1leHJX3rrbc4fvx4xf+nTJlChw4d2Lp1K19//XXF9aFDh/Lyyy9TWlrKxIkTK9aZ3t7ePP30M2RlZd+0hFUoZJRqSxtl3UwmU7VUTx2ErQMUFhTw448/8uuvV/urfvHFFykt/VfYgoMtanY9evTg119/rbjuXqbk7uTkxJdfflmxySOTyXBzc2P9+o03bftK62sn3gaQmZlF+3btHIS90Vi8eDFvvvkm4eFhV1wPCgqqNL+7u3sFSf8rnOHh4Vd3lEJ+065jGys+/vgTVq1ezV1j/8/qexpbqI4GQ25uDgsWLqi358vlcrKzsx0N3QhgNgteeul/vPfeu+i0WuRy6619HIStQyxdsrTa8V+shZenJ4VF9qEjXfcCbq61NwlbgUqlYty4cfzww/cAOJUdCTkI2wA4fvwYJ0+eqpdn+/sHoNXZ5/FXbWEwmHBycrb7eiQlJ3P7qNEsWrSw4lq1DRscNKs76HQ6Nmysn80hZ2cnNOqb0xBAr9da7UrFVnHs2HGGDh3Kzh3ba/WcG7bppFQ60bNnT4QwX6Uwf+zYMfQ3ODZrfWHf3r318lyZTEZebs5NR1aTyUR+Xh7u7m52W4cNGzby4EMPYnE+Wjvc0F3imJgYfvnl56sUMB5//AlmzJjeKATs0KFD5OfnV+jo1hUkEmzWL1V9oqSkBD//AGQy+zzQmPbb77zw/HN1ZtV1w6bEer2O33//jYmPPXbVby+++AJ9+/alU+fOhIWF27WAFRUVkZiUbNd1sCVkZmYhzCa7LPuHH33M009NqlMTzBu+hp03dy7LV/xzxbX27duzfft29uzew9lz54iPT2Dx4iU8/vgTNGvW3K46SaNRc/TI4Tp/rhACuUJhV21RF8jLzyewEj+9tgytTsfExx7jg/ffq/NnN8im07SpU6+6tnnzFvr168fEiY/y199/ERgYyHfffcfFixfZsGEjt98+ym46LCu77teaBqMJf/+Am46wGRkZhIaG2k15c3JzuWPMHcyaObNent8ghN1/YP8VRswAAwcOJCcnhyWLF/PuO+8wcOAAmjVrxiOPPIKbmxurV69ix46ddO/e3eY7rWqH39WHRqPBxeXm0nIyGAyUlpYSHBRsF+WNjY1j+K3D2bhxQ729o0EIW1JSQkmJxYjZbDazfsMG7rjjDvLzr7Tyyc7O4s8/59OvX18GDBiAk5MTBw8e5IUXXrTpjjt08CAqlapOU0pKMp4e7jZd77pGeno6Tk5O9eaUuy6xbft2Bg8ezLFjR+v1PQ2y9SYBfvjhB9LT0/nyyy/ZsWMHmzZd//xy165d9O7TmzfffIsffvieiIiIWsdmKUdMTBsGDbqlzrSUvLy8WLx4cd21l0RCbFw8tw4bdlMRNiEhkabR0TZfzoULF/HooxOuMPJoVIQ1m81MnWqxVPn8889xc7PujE2YzXz26SekpqQwd+4csrKz+erLL2pdHplMxi+//GKzAqHXG1jxzz83neJ/bl4+3bt3s+kyfvPtt7w2+TXMN2gnu8E1nWoShmLevLk8/cwzfPnFFPr06VvrMpw+fYpp036zWaE4deo0nmXeO24WpKWlI4S5ysh+DQWzWfDCCy/y6iuv3DCygo2Y15WfU4VHRNC+fXu6detOdHQUYaGh+Pr5YTZZXMyoVCWkpKQQH5/A8ePHWbtuPWPGjKkTf8Rz587l8ccfq5M4o3WNhMQEetTRZpvBYLD401KrKdWUkl+Qj1qlQqFQYjAaMZrM/PezoFQoEMKMTCbFz98fD3cPPD09cHd3rwhtWdc4dvw4LZrb5pGeWq3h8ccfZ8GCv2/4uxtcOrVaLa1bt2b9+g0MHDgQJJbD8uTkJFKSkzl79hwSqQSz2YynhyfR0VH06t2HV155Ba1OR3RUFEaTiYULFnDq1Mkal2P//v3s27ef/v372ZRw5OTkoNPpiYyMqPa9eXl55OblUVBQSFZmJiazwGg0otNq8A8IwtnZGYkE5HIFvr6+KBQKi0Oxyx8ihCVQtFpNSUkxmZlZJJQmkZOVhaubOzKphMCgIEJDQggPD0NRB2fFOp2OjIwMhg21vdg4ScnJPPTgQw0WCqbBCNulS1fGjh2Lk5MTPj6+pKSkMPGxiezauYus7CwM19EtlsvlBAQE0LtPHx4Y9wATJz7KW2++ybp16/jss89q1JhCmFmyZInNEXbHjp20iWldZT69Xk9WVjapqSnk5uaj1qiQSGS4uboQFBxM69at8fX1wdvbu05IBZYgwzk5uWRmZnHs2HH27ttXEZqxdetWNR59T546TWRkpMUzoQ3h6LFj3HP3PSQkxDdYGW44YX18ffn00894+qlJbNi4CbMQ7N+/r1r+fY1GIxkZGSxbupTOnbpQWqpl2fKlvPvuu+zevYtFixfz+muvk5SUWK2yrV27lk8++QQPGzk+yczMorikhM6dO1X6e1ZWFvEJiahKVKjVatzc3QgKDCQ0NAz/AH/c6nmTys3N4h0zKiqy4qPx94JFrFq9hhMnTuLl7UnvXr2u8ItcFcxmMydOnOSuu+60KbKuWbuORyeMJyenYQ0wbihhB95yC3/On4+buwdPPPEEs2bP5tixY8jkNfc3q9GoGTpsCA8//CDLly3jvvvu58uvvuTEiROMnzCeFcuXW/2suLhY9u/fz7BhQysVpO3bt1ds3UulUm655RZcXFw4f/488fH/fnVjYmJo2rQpJSUl7Ny5s+K6h4cHAwYMACxT8Mu9S/bu3RtfX1/S0tI4ceIEzs7OnD9/gVGjR1VsNpnNZi5cuMiBAwfYf+AAffv0JSwstMxNrEAmlZCfn0dQUCBurq4UFhayZ8+/63sfHx/69OkDwO7du69wKN6vXz+8vLxISkq6ImJcdHQ0bdq0QafTsW3btiscig8aNAiZTEZqaiqhoaEolUoGDujPyVOnGDZ0CIcOHeKflavw8fFh4ID+VjnmPnb8OD4+3vjUsxPv6uD3P/7g+eefR28D9sg3jLCPPfY406f/werVq5k0aVKFppNCpkBCzXc/L168gIuzMwqFAoPBwMKFC1izZg3f//A9y5ct4/33P+CTTz622tJl5cp/rknYNWvWVJBMLpfTs2dPXFxcOHXqFGvWrKnIe++999K0aVOKioquOI8NCwurIOz27ds5f/58xW/NmzfH19eXpKQkVqxYwcmTJ/nkk0+JjIggLi6e+Ph4CgoKSExK4uKFC0ilEu69926cnJz4+++/2bRpU0Udx48fT3BwMLm5uVe8v3nz5hWE3bx5M0lJSRW/tWvXDi8vL2JjY6+459Zbb60g7PLly68I2TFgwABkMhmJiYk0adIEqVRKREQ423fsQCaTMWDAAAYMGMDBg4f488+/admqJUOHDL7mbrfZbObIkaPcNdZ2RtcPPvyIDz9432bKAxbP/8IajBlzh8BiJF+t9MwzzwohhPjss8+v+u3s2XPi408+qdFzATFixAih0WhEWHj4Vb/9738vCyGEmDjxMaufFxPTRpSWloqGRFZWtpg67Xexc9duMXfuPLF02XJx6tTpBi+XtVi/foM4c/bsFdcMeoNYs2atmD5jpsjKyq70voMHD4mVq1bbRB10Op2YOHFijeXS2tStW3eh0+mrLM/+/fsFIOp9hB0z5g5++eVn3n//Az766MM6f75KrQYkeLhffV733Xffcu7cOeLiYq1+3oULFzh56jQ9rnFgbzAYMBqNGIxG6uNUNDs7h7fefpuePXpiNBgZPGQwgQGBgECvN1BSUmJTX/vK4Ovnz5kz5wi/LO6OVCpj2LBhnDt3jhkzZzFwQH/atWtbNtpKUGvU7N6zl3H331ejOgpB2TFT7XslLy+P++8fx+bNm2yubeuVsFFR0SxevJi5c+fVC1kBXFxckMvl1/Sevn79umo9z2w2sXvXrmsSdv36jcQnJtKqVSuMdR1qUiJBrVJx220jCA8Px2Q2c/zEKctU11788kokmIwmNKWlbN+5+z/llqBUKmneogXHT5wkJzcPqUyGBFBrNPj5+XHs+AmMRmO131mqKUUmk9R6On3+/HkeeuhhjtSDiaTNE3bq1KlkZmbyzDPP1Ns7+vbpS15+HikpdWc0vmfPHl5++X+V/tajRzcuZVxi6OBb6ux4xIHaQwjBn3/9dc3QnNZg69btPPjgA2RmZthsPetNNXHgwFu47bbhPPPM06jVqnqrwIMPPsi6teuq/1W+Do4fP07RNVyKBgUF0bJFCzZv3uJgiQ3BEoPIn8LCwhrdv3jxUu64Y7RNk7VeCfvKq69y8uSVu6fXauia6sg+/fQzNGvWtMLHa10hOTmJU6ev7a504MABpKdfIivL4djblmA2GcjKyqr2fV9/8w3333/vFXFrbyrC+gcEMGzYUH786ccq82q1WvT66q8FBw8ewq+//sIXX37FiRMn6rT8JpOJM2fOXrvRpFJ69+7F9h07HCyxIQQGBaHVWn9WKgS88MKLTH71VbtxcFcvhO3bpy9SqYwN6+vH8n7iY4+xZctmli5dyhuvv1Yv79hbhXpj27ZtygzLbSMqvAPg5e2N1kp3uSUlJYwbN46frBhUGj1hO3RoT0bGJavWA87OziiV1m3eDBx4C5s3b2HG9Ol8/8MP3HPPPfXWMGnpl6r86g4eNIiDB21zN/FmhKuLMzlZmVXmS0xM4rbbRrCwHmMh1RfqZZe4VavWJCYkWr0RpNFoKr3u6elJp86dGTxoMHeOvZMO7duzf/8Bbr31VjZtqt8zsmNHj5CTk3PN6HMA0dFRHDx4kNS0tCvOHP8Lo9FY6WaIXC6/Ql1PrVZX6rXA3d29QhFeCEFBQcFVHxOpVIqPj0/FfoBWq610Tebs7HxF1LzCwsJK+8nb27vC1NBgMFyhxlgOhUKBl5dXxf9LSkoqPV7z8PDAyckJsGgzFRQUXBVPRiaT4e3tXVF+jUZTqVyUB1kub4uSkhI8ymyF3VzdMBqvb5t69Ogx7rvvvmqdzdsa6lzT6a+//hYbNmy0Ku+Ro0fF9h07xRtvvCm++vprMX36DLFs2TJx+PARkZGZKfQGg4hPSBA//PCj6NmzZ71rnpQnpZOTOHL0WJVtcu7ceTF33vzr5jl9+rRwdXW9KvXs2fOKfJMnT64037Rp0yryFBUVibCwsKvyhISEiPz8/Ip806dPr/RZL7744hXv7NevX6X5jh37t+67du2qNM9tt912xbPGjx9fab7FixdX5ElNTRU+Pj5X5WnVqpXQ6XQV+b744otKn/XJJ59U5CkuLhajRo0SxcXFQgghNBqN+GflamE0mirthzVr1oqAgMAbJkPYi6aTXq+32jRKr9PTpXNnAgIC8PHxQQiBMJvx9PSo8DagUqlJSU29ytNifcJoMBAfH0eXa1jKlKN161YcOnyYrKxsgq7hPzcqKop169ZVOnJejkmTJjFq1NXuXJtfZsjt6urKokWLrnJOLZfLr/DOMHLkSFq0aHHVs0JCQq74/48//lipZtHl72zfvn2l5f+vMv8bb7zBxIkTr8oXExNT8XdAQAArV668aobgXKYPXo7777+fXr16XfWsyMjIK9ris88+qxhxlUonhNmMwaBHJrtS/n777Xeee+7ZOj3+azQj7GuvvSZSU9OEUulUZd6zZ8+Jz6dMEVKpVDg7OwulUimUSqXw9PQU7dt3EPfdd5+YOXOWyMnJFWazECv+WSk6d+5yQ75+n376qVXtcuLESbFmzTq70PNt7Fi5cnXFiFuODz/8yKZG1dqMsPWy6XTi5ClCQkKIiLDOS4Jer8dsNpcd8ejR6/UUFxdz6tRJFi5cyMSJjxIVFcW9995LZEQ4R44c4YMP60fV8XJoNFqr8rWJiSErK4vSa6zFHbhxKC4pqtgHKC0t5dFHJ/J+PXjgbyjUC2H37tmNRqNhzJgx1hXCCs8EarWKJUsW07lzZ15+5WXef+89/v57Qb35FAKItXJjQq6QEx4exolTpx2MaWgIgbu7OwUFhfzf/41l9uxZjap69SLtJSUlLFu2jKeffrpeCv39d99x6623ct/99zFr1ux6a5y42ItW5+3QoT3x8QkOwjQwIqOi2bdvP8OHD2fjxvWNrn71Njx99dVXNG/ejIcfeaRenr9p0ybGjBnDI488zFNP1c+HQavVWR15LDAwEKVSQUZmFg40HPJyc7nnnns4dOhgo6pX+XFXvRH29OlTzJw5k19+/oWAwPqJPrZ61Sq+//4Hvv32G/wDrh0oytXVlSlTvqBps2bVer5MLkejsd6be2RkJOfPnXOwpgFRUFBAQUF+o6uXSqUGKKlXR+KvvfYaarWa+fPn19s7PvzwQ4SApyZNumaen3/+hddff63aXvi0Wu01lToqQ+vWrUh2qCo2KHzqOJC2jRE2t14Jm5eXx9ixY7l12DD++uvvevFcX1hYwKzZs3jiiSeRVxKle8qUL3j00Qncc8+9nL3MuZg1yMnJRmelbiqAp4fFufaNPC924Eo0VhvlMk8aUikglUjqj7f79u1l7F13MW7c/SxYsLDGxsXXw8IFC4iICKdd+3ZXXP/hx594/fXXeOHFl1iypPrBqTRqDSpV9dyVhIWGEhfXcH5rHWjckAOq0tL6PT9cvmwZI2+/nYULFnLw4CEefvhhjh8/VvblqP3H4sSJkxQXl9C9Rw+OHz9Os2bNmfbbNIYOGcL48ROYO3dOjZ8tqumapVmzpmzbZntmd+bkiwijAWQ1cClrNCJxckYabpuhMy5HUQ0N2BusX8xm5Fa4+S2bnUrkQHZJSbFVD5fVIu7MurVr6dKlC3PnzePYsaN8+tlnfPP11+Tl5WEy1c4Wsbi4iOSUZJo3a84TTzxZEcqyZ69eHDxw4IZ2gL+/P2ZhRqVSXaV62JDQb16F5ouvkHr5gqQaHyEBQl2M66ef4mQHhDXUtZ+teoZUKrFq0CpTqTRKAam1AaBquwaNi4ulf7++vPzKKzz37HPExsah1emvcMJdE/j5+ZObk0Pv3r146+23+fHHH+ncufMNJ2t5G3l5eZGSmmZTguH0wJPIO7THnJWLUGutTDrMmdnIe/fG6Y6H7YoIjQ0FlplDhhTQW7sT6lIHsU5MJhPfffstbdu2Zdq0aYSEBPPdt9+yb/8B3nvvffoPGEBIaOh1nxEUFEzXbt145ZVX2bVrN5u3bMbLy5v8ggJ69+7FG2+8Xu21Z2UQQlR7SgwQ0qQJmRmZ2BIkLh64vPY2uCpAIgW5vOqEQOLnhevkt0Eqs6n6XAuXR1OwB1jr6aJssDTLgYyUZOs8DtZlQOH09DTeeedtvLy8MZlNeHp48MSTT/LOu++g1erIzckhIzODvLx8jAYDcrkcX19fgoODCAgMwsXZmbz8fA4dOsiUL6bw2uTJJCYkkJlRd060nF2cazStDQ0JITY2zuaEQ9HjFpS3DUO/Yi2Sy+xYr/nBUqlwfmw8stad7YYA+fn2RVh3d+vi35bZGZdaPqPWdrhSWecFvv32kcycNZOXXnwBJ2dnWjRvQbt27WjevBlNmzbD29sbqUyGyWwmPj6BzZs3ER+fwLnz5zh75kzFOelzzz5LeERknZbN3z8AJ6fqzyp8fH0wGA3o9XqU9dBmtfoITXwKw6YtYDKD7DprJ6MRSYA3To88blcEkMttq72rgq+vn1X5ymaM2XKg4FouPf8LT8+6j4at1WorvBHotFpOnz7F6et4LLwWUlLT6Na1a52Wzb0sOlt1IZPJcHd3Jzc3j5CQJrYl0B16oRjYH/36rUiuE91cqNU4jbkHWVRrmyp/lfJkAwGrqtUfCuv2j3QW53J6KaCzdmfNy9PLZiu+c8cO2rdvR2AdqkGaTCZcXWq2bndSKsnOtk03qMo77gapuPbcyiyQOCtwuvMemyz/9XApPd2uyuvpYd0gmJqaApApBQpLrPTH6uTsVOcFNpvN6A36Wj9n3fp1gISn6tBCSKlU1HhKGxTcpFp6yDcSir6DkEVHIq6hxSV0OmQxrZB16WN3hI2Pty9fTS5W7guVLf00UkCtLbVOsJzqcD0WGRlFu3btcHZ2JqRJKG3atq3VuWV+Xh6fT/mcDz/4gHbt2tdJGZs1a1Hje93dXcnMvDEqiub0BHRLfgezdTMlibsP8q5dQXcNA329FnnvvkisXA8KnRrtnJ8wZyTTkDAajTY7q7kW/P39rcpXpktcLAXyVSoVJiu2l/38/OqsoH/++RfHjx8numkUTzz+OMePH2fosFtr9cxPP/2Ubdu3s3vPbkaMGFnrMlbmE8laeHl6csN8Uxv1aD54n+LxYzEe3W3VLfIefYFKCigEyOUounSz6jmGvRspGTeG0q+/ArOpQYW/sLAIiZ0cP5XD2imxWq0GKJIChRkZl9BYLlz/4V7edVLIgIAA2raNQSaTIZVIkcmkKORyunbpUqvn6nU6xowew9YtW1m7dg3btm3nhRderPGI6+VV8002Nzc35ArljfEoL5MjcffCuH0/JY88iPqtZzGevb6/ZFnzpkg83C27xZfDZEbi44msZdvrfyMO7UD13MOUPPYoxsMnkXh610ztsQ6RkZlRvtazGzg7WzeLKSNsoRRQq1QqU1Fx1TvFXl51s+n0yiuvXuVxD+Dxxx8nNDSsVs9WqUoYO/ZO7rxzLDqdjk8++YRPP/202s+RSCQ0r8UI6+TkhDCb0Ov13BBIKNv1laH7azEl4+5F9cIEDFtWItQFVxM2vCUSN4+rRkVhNCIN8ENSiT9mUZiFft0iVE+No3jCw+jXbEQid0bi7oYtIDkpye78avn5BVSZx2gylvuFzpcDGr1eX1pSrHIntKqH++Lq5mbVaHwtPDnpKV6/RniN4OAg/vrrL+66ayy5ubm1aogVK5azYsXyGn9knJycadmyVY3fL5VKKSkpQqvVVtsOt1aQySxKESYT+lXr0K9bj6x5NIoePZF17Iy8dSck/j6WkdXVGQr/4yDcbEbi4gbqIsyF+ZhzcjGdPYbxyFGMRw5hSkoFM0hc3cCzbBPS1LBT4XLk5NqX0gRQ6cD1X5QUl5CenlZBWLVery8pLi6qcsfHw90DaQ31iZ2cnHj6mWd55+23KSoqwnSNTu7evRvz5s3n5Vde5tzZs7VukMo81lsDT09PmgQH1erdCoWy4ZTRZTIknp4gBKaEdEzn/wLpAiSuzkj8vJA4uyBKVPAf+1GJizPmlHSKx92N0GoQeUUIjdaytnVyQeLqDhIJtogDB/bbFVmlUim+VuwLFRYWU1paqgfUckAFFBcUFFR5wu/h4Y6Xl1eNwvIZjUaWLV3Cn/PnXZOs5XBzc2vw0H9duna9rtsZa+Dn54de38COqyUSJM5O4OxkIZ0QmLOKQBQiUSquJp9EgtDqMSdnWPRX5XIk7p5gmxy9AikpqXZFWFdXVwL8qyZsUVEher1eVU5YM1CUllZ1ZV1cXAkIDCS9BofTJpPJ6khv+fkN75MnOiqq1jIqhLCtwUgisRBYWYU5l1SCxMm+VPwKCgs5f/68XZVZoVDg6elZZb7i4mKMRmMRZcc6AFlZ2TlV3iiXywgOCrarRqkpBg4ceFPUs7EgLS2dNDvbIQ4MCsLVteoNu7L1axFlqokAGdaaJdXlWaytwsXF5Sp3Mw7YNo4eOVJrRwg3nLCBgThboT2YarGtzoF/w02mWquD6X8TEHbwkKE0b96s1s+pz6gENYJZgNmEMJpACCROTiD97xoWMJkROr1laiyTWc5XbXSjqRzHTxzHbLaN3Wpr0STYOsOQst3vjMsJeyk+3jr7zYioqEZLVKlUymefT6FNmzY4KWuvN11SUlLu7a4BSWpGaHVg0IGzAqmnD1J/HyQezpiTLyHU+itJazIjcXdF1iYaUaRB5BVgLioEvQmUTpWTvKG/Q2Yz+/butTt58/OzziVrtiVIderlhM0qLCxCrSnFzfX6Xg2jIiPtrmGsgYeHJ7Nnz6ZP376cOH68Tp5ZUJDfcPawBgNCo0Hi7oy8SzsUffoi79QFWbMYJH6BoNdSdOcIKNKA8t+jHaHVIWvVFI85i8Asx5ydjik+FuPh/Rj37cV0IRah1VvOYeVybAEJCQk26TCgKkRFRVuVL9YSMuYKwl4qKCwwFRUWyKoibJMmjW/TKSIykkULF9GzZw/WrF1HdFTtP0pCCDy9vG+s0gSAwYjQqJA2CUB571ic7hiLvGMPkF754TCrVKDRXn1cI5MiVCVgAombB7Ko1siiWqMcMhqhV2M8dgD9yqXoN2xC5BQgcfegoXHgwEG78zQBEN20aZV5Sku15W5vMuDfUB3pebm5JRlWuFcJDAyyKW+AtUWnTp3ZumUrPXv2wGgyUVBQUCuVxAreGAwoFE43boQ1C0RREbgrcHn+GTwXrcTtg2+Rd+53FVkBzGlxCHXJVb6aJDI55pw8zJVYvUiUbih6Dsbt01/w/GspzhMeAoUEUVxsOeNtIGzcuNEuZa9JcNWDX2FhIQUFhSbKRthywhYAmcnJVW+LBwUHERgUZJcN9F+MueMONm3aRLNmli9dQkICnh4eKOvAe7xGo0EIM/IbMW00GhA6Ncp7xuC5YDkur3xYpQ9h04WLiBL11W5iZFJEUQmm8yeve7+sZXtcP/wOjz8Xohg+GKEpgQaIbl5cXMyu3bvsTvbc3Nytmq2mp6eRl5erAtIvJ6wBSE1Lq9o1p7ubG/5+/nbXQP/Fk5OeYsmSJfhfpmly/twFmjWvG9+7hYWFGPQ3yF2JsytuX/+A+/ezkDVta9UthkN7K/eEKJGA0YTx6GGrniNv2w2PGYtw+/hTUDpxo7H/wAGSEhLtTv6Cg4MJbhJSZb6UlFTMZnMGlkH1iuh1SWfPWhd7plWrVnbXQJfjgw8+5LdpU1FcNvppdToKCwtp2aJuCKvWlBISEnJD6iMNjkQ59C6r84vCbIyHj4DTNQjm5Ixh316EzlojDynK0Q8iDQzjRmP5suUIGm46XlMEBgZUucELkJqaCpCMZVC9grCJ1upiNquDM8qGgJOTMzNnzuL999+76rcTx08QHBxUZ8GULqWn1UscobqAfudmzKnpSBSVr68lTk6YLsZhPGjbU838/ALWrl1rl7LYwkpLsJMnTwBUTCEuJ+z5lJQUDIaq1yHNrNjdsjX4BwSwatUqHn10QqW/x8XF0aFjhzp7n6ZUS1CwLa71BfrlSyxRWq51nCqRgMGMftkim+7TjRs32p3BejliWlvnjTItLR0gvjLCJiYmJpisCZXYslVrpHbkiqNNm7Zs2riJYcOGVvp7Skoqzs4uBNfRZprZbEar1RJQS2uf+oDhwDYM+w4gqWI6JnF1Q79lG6YLJ2y2X//+++8aRWawBVijSafV6YhPiAc4Xxlh0zQaTXbZnPm6iI6KtMrKwBZwy6DBbNq0iU6dOl4zz779+2nXrm2dvTM3NxeZTFanTuvqCtqZv4HOVBZp9DqQyxBFKrQzp9lkv544cZL169fbJVkVcgWtWsdUme9S+iVSU1L0QEJlhM0F0s9aYTTu6+trF+vYu++5h1WrVl7XmXdOTi7FxcW0bNmizt6blJSMj4+PzbWHYccaDNt2IrHyHF3i4Yl+9WqMx/bYXF1mzZ6NXm9fTsMr+OPnS0R4eJX5EhMT0ev1mZQd6fyXsAAX4qyIJCeTyWjd2rY9wr/xxpssXrQI9yo89+/dt49ePXvWaXT4jIwMomxM59pcmIPms09Aa0QYjQidvupkMmEu0qD57COE1nZ8JWVkZPD333/ZJVkBWrVujZdX1TPUM2dOg0VhosJtyn9P9U+cPHHiQWte2rZtW5tsDIlEwnfffc+LL75QZd6CggJyc3MZdfvtdfZ+g8GAWq0hPCzUptpFv2QW5rwsZC0ioVrHIH6Yk+PRr/kLp7tsI87O7Nlzyc7KslvCtmhu3Wzu4sVYgNOXX/svYc/HxsVSqtVWGVqyU6dONtcQXl5ezJg5k7vGjrUq/8ZNm+nerRsyWd2ZwSUlJePk5GRzQbCUdzyI0/89UPXatRIIsxlb8RGTk5vL1Km/2i1ZAbpY6c732LGjAKeuR9hzaampuqTERKeYmOsvilu0aIGrqxsajdomGiEyKoq///qb3r17WZU/PT2dkpIS2texofq5c+cqVB1tCdKAmo/4tmRM9+MPP9ntUU452rev2k92UVERZarCV2wq/fdzm6zX65POX7hY5QMjIiKIjo6yiQbo2KkTmzdttpqsADt37WbQLbfU6drVaDBSUFho8+t7e0VcXDy/Tv3Fruvg5x9ACys2OM9fuEBGxqVi4Nz1CGsAzh05XLUeqVKhoE3bhnejcscd/8fmzZur5SHi5MlTSCSSOh8J4+Lj8fL0tMrthwPVx0cff0y+nUVY/y+aNY0mKLDq8/7z585jNpsvAlnXIyzAsZOnrIvP2r17twat/KRJT7F06ZJqua0xGo3s3befW6+hRFET5OcXEBcXz9Zt261enzhQPaxfv4E//5xv9/Xo0aOnVd52Dh46CHCG/+wQyisl7IkTqNUa3NyuHwqvax0HUK4OPvzwI957793qd/yGjbRq1QJfX98avbe0tJSMjEwuXbpEbl4eRYWFeHn7kp+fi16vIyIiHHuEyWQmLT2NlOQUzsUlkZ2TS0FOBiH+Xvh6exCflkNE09bcOrg/UZE3to7FxcVMfm0yZhuJMFAbdO1q3Qf97JmzAMf+e70ywp5OTU1RJSQmuLdvd/0pb4f27fH19buh1v4uLq5M+20ajzz8cLXvTUlJJTs7hwnjrb9XCEFqahqJiYlkZGai1+lwd/cgJKQJnTp2JCDAHzc3N3bv2WtXhv1ZWdkcO3aMEydPcOjgIS5cuEBKSgrFxUUM6BjJ2O7B9AiQECR1RVkqo7lMw4aNaxn6yXsMGXYrb775+g1zF/TBhx9x2spZny1DKpXRpUvVg1xOTi6nTp0EOGgNYZPNZnPcsaPHOlVFWH9/fzp26si2rVtvSIUDAgKYN28+w4dXPyyl0WhkzZq1jBo1skpvhgaDgdjYWOITEikpKUEuk9MkpAn9+vYhJCT0KsdqarWG8+cvVOtDcKNRWlrK0aPH2bZtK7t27+LI4cNc7dpWwpdPDOTV25ogQQdGy8hrFoKYEDf6d1HQq3kBd3w6ldWrVvLll1/y4IMP1Gu5N2/ewvfffWv3ZAWIioqihRXmm2fPnSUvLy8TuGANYc3AsQMHDnR65JGqBbBrl643hLAxbdrw919/07GGFjUbNmykRcsWhF9DJcxgMHDxYiwJiUkUFxfh7u5Os6ZNada0KS5VKMrv3r2bFs2b3xjvEtVAfkEBO3fuZN26dWzbuq3cmdc1IGHCyC5MHt0EQ0kpBvOVvxn0Aolez6gevnz71CBemrqNhx56kFOnTjFlyuf1Uv609HQef/wxu1Xw/y969OhhlcnlwQMHwHKck28NYQH27tu371GTyYSsipifAwYM4Ouvv6rXig685Rb++vOv6+oEXw8XLlzkUkYGTzz+2FW/paSkcPLUaQoLC3FzdaV169Y0a9bUasUHtVpNQmIij0181CaEQqMpZfuO7axYvoK169aSfpkXEanciZhwL7q1DCHCzwmZTMLGE1nsPWkxt7w1xgOMhv+Q9V8IwKTWcV8PP35YFUxiWiZffDGF1NRU5syZg1xedxZcer2Bp556muTkZJto17pAv379rMp3+PARgAOV/XYtwh6JjYs1paWlySKrWKd06dIZL29vigoL66WS990/jpkzZ+BaQ2Pw4uJi1m/YwCMPP3SZMOg5duwEFy5eQCaT0bJFC4YMGVyldldl2LV7D506dWxwzaZjx46zePFili1bxoUL/8aYkcuV9GsXym1dQhjc1pc2TZxxc8LiW1gm4dXbo+j7jpYTcZk4KyQWZ+PXgcEsIcDFhKfsX93iv/76E6VSyaxZM+usPq9Onsya1asaDVllMhm9elWtJ6BWazh48ADA3uoQ9qyqpCTpyJGjzaoibGhoKB07dGTnzh11Xsk33niTzz//rFbPWPHPSm69dRg+Pj4UFBZyYP8BUlJTCQ8PZ+iQwbVy45KTm0t6Wjq3Dh3SIEKgUqlYvWYNM2fOZOuWrZhM5c4HJHRoEcKdPcO5o0sA7UNdkCvNYDChN+gp1fx7VuDmqeTOXpGciMsgtbDc7O7au7ESBDqzErmrF/BvEPDZs2cRERHBhx9+UOt6/fb7H/z04w+NhqwAERGRVKU9CHD6zGlSUlKKgcPVIawOOLhz165mY8feWeVLBgwcUKeElUqlfPfd97zwwvO1es6ateuIioqiSXAw/6xcRV5ePs2bNeXBB8bh5lb7qOEbN26id+9eSGU31pg/JSWVufPmMnfO3CvWpb7enozpFcX9vZrQv4Unrq6A3ojWoKPSQPACkEgo1VsIuv1CMc8PDUZ6nYFWKZdwPtdAUpZlhG3bLAy1VkdSeg4fffQhTZs2Zfz4R2pctz///Ivnn3uuUZEVoE/fPrha4cNp/779mM3m40BmdQgLsGvXrp3jLCETr3/Se8stt/DJxx/XScU8Pb2YMXMGd991V62ec/78eeLjE4iOimLZ8hV06NCeUbePrHJNbi3OnDmLVCKhTZsYbhROnjzFH3/8wcKFC8nJKfcbLKFjixAeGdSU/+vsR9MgJZiN6HV6NNcJsSuVgLOHnPgMMwt2WeyjNx9N5GhKJF3DpGh0lS9kJU4K/jmaRV5+Hm/e35N374xGozfx4qzT/Ln1HC+++ALde3SnTUz122XJ0mU8/vjjGAz6RkfYIUOsU9TZtWsXwDUjU1+Pie2USuXRM2fPKpo3u77aX0lJCTExbcrD4tUY4eERLF68mJ49e9SaTG+/8y6jR42ia7eudKpDX01g8cY+e/Yc7r//3htiqL5v3z5++fVXli5ZilZbCoBM4cSontFMvCWSITGeuLmCWWdAZ6jch6BUAk5yCRK5zOKL2Cxl09kS/jfrOGcS/nULNG5oB2Y90Qph0F81yrq6SrmQI6fPm1vpHO3F5nd7YtZqkEql6CROjPjiMNuOxNGzZy927tyJUmm9Q7slS5bx4EMPoNfZp1H69eDs7MyZs2dpGn390BzFxSW0aRNDenr6SGBdZXmuN8Ke1+v1F/fs2du2KsJ6eHjQt29fFi1aWONKde7ShYULF9KiDvwCJ6ek8OwzzzBsWP2sLdeuW0+HDh3qnawHDhzku+++Y+HCBRXXAny8uK9/Ux4eEEqPKDeQGNBrKx9N5VJQKqSgUGDQQ1yujpNpRRxJKORQXD6bj6QAVzrd23I6l0tFrYjwAJ3RMmuWS8HJVcmpdMHEacfJLyzirbE9wKSj1Ahgxs1Jxx9PdmDgO3kcOLCfKVO+4L333rGqnrPnzOXJJ55olCMrQMeOnYi2wqHB0WNHSU9PzwEOXSvP9QhrBHZu3ryp7XgrzmNvG3FbjQl759i7mDF9Oj4+3nXSQCNH3FZvjX/u3AXUahV9+/5fvb1j//4D/PjTjyxauBBTmTpe84hgHhkYxSP9Q4gMkIPBgFarvWoUlEnAyUkKcjkqDRyIV7PpRBobTmRyOC4Xs6H0Om+W8ED/KCJ9BDptmYBIQCKV8cHyTH5df5Gc7Cw6NgukX3MP9FpdxRRNozXTLFDBT0/2YOynG5ky5XPuvPP/qjRf/PKrr3nrzTcq6tkYMWzYMKuswrZt2wZwBIu7pmoTFmDTnj17ni4t1eLicv0jj1sGDqyRfeyTT07i559/RqGwLaWDylBUVMzmLZux5gNWE5w9e46vv/6aWbNmUb6P27FlOM/c1pw7u/gT4GWZ9mpUuv/QDFwUEnBSoNPCrngNa46lsfJAKueSLHsXSmdXBrQNolerQJq4mTidbeKvrRdRa/49nvHx9uXJW5ogMRsrptVOrnJ+317Ih3P3Ur577O0MSrm5bHT9txBatYE7u3oztn9rlu06xyuvvsLGDRsqrWtpqZbnX3iBGdP/aLREBYsHlBEjRliVd/u27QBbrpenKpbsSUxIKDxy5Ih3v359r5sxOjqa7t27s2PHdqsrU1MF/obCin9WcsvAAXXuMTIlJYUff/yJadOmoVZb5rY920Ty3MgW3NHFBw9ngbGSaa9cCkonGUjknLukY/mRdBbsTOBUgoWknp4e3HtLDHd0a0Lv5l5E+SmQyMsYLpMytkcod32+FU2pZdQd1SuSmCZSStUWJjrJJVwqkPDpsnNcftSTVGAmVy3BW2EJG1sOswBMev53e3NW7Y9j08aNLFmylLvvvnID8dSp0zz/wvPs2L69obu03tG0aVM6d+lcZb7EpCSOHj1iqi1hs4EDmzdvGV4VYQFGjBhhFWGVSiXTZ8zg4YcespuGX7tuPT4+3lZ5C7gWiotLyM7OJjs7C4WTM2dOnWLDho1s2rSRvDzLLGhApyheHNGC2zv64KQ0YSjV899Ji7NcgtRZgaoU1hwtYt6uVJbvjQeTHpnSmVG9WzC2Rwi3tvcn1FcGwoRZb0Kr0yHKproyKdzW1pXOTX3Yc6YUqUzBXd2DLBHay94jc5Iza1MOKWmXQKrE19uD/Px8ki/lsvhQLk8P9UdfcuW6U6cz0zPKmY7NAjl8Pp333nuPW4ffiqeHJSzlvHnzefnll8nNzWn0ZAUYOmyYVQo5u3btQqVSnec/LmGqS1iADRs3bhj+wQfvVZlx1OhRvPvu29eNHhAUFMzcuXO59dZhdtPoR48dIz8vn4ceqp6ie2ZmFpcyMsjIuIRapcFg1BMSGoa7qysH9x/gm2+/IdHiKJourcJ4dUxr7u7ui0JmQq/VXUFUCeDiJAGFkuQcEws2pjN7WwLny6a8nVuG8OCAaEZ1DqRVkAKkZkw6A6VqY6W7xmYBCIGXu+VssFlYAP2au2HQGywfVRlkFUn4Zc052kQHM21SV8L8nDmVquapaQd5c85BBre9jVYBMtQaU4WNpxlwUkpoFurP4fPpnDt3lv379tO+Q3veeuttZtehNpQ94I4xd1iVb+OGjQDb+O8uYA0Iu/HYscO62Ng4p6osDdrExNC1W3f279tX6e/t2nfgz/nz6dChPfaCpKRkduzYxZNPPFZl3pKSEhISEkhJTaewsABnZ2e8vbxoGt2U8PAw3N3dSUpK5qOPPqpQ4wv09ea1se2YNDgEd2cTOo0OzWUMk0rA2dky7T2WomPOrgRmbb5IcXExUrmSB4a05ZEBEQxs6YGzsxmhM1Kq1V03XKsAXBWQrZJwJNYy0g3uEIyfh7TiIyF3krHqYAEZWYX8/dlQ+rd1QagMRHf1IOSNfgz7YAt3frmX9W/3JcIHSjWWkdlZDkajlAuplhlD3379OXz4CM8++yxxcbE3FVlDw8Lo379q/eHCoiK2bN0CsKaqvNYQ9qxWqz+9bt26ri1aXF/zSCKRcMeYOyol7C2DBvP3X38RbJPxZq7RkIVFrF27lgfG3XdNzahLlzK4cOECmVlZSKVSPNzdiY6KJDKyPx4e/0YnNxiMTJnyBZ9//hnFxcUgU/LM7e14bVQUkQEyDKU61Op/D8ZlEnByliGEnG3nVUzblMCiXQlg1tMkwJfnxvXkwT7BtAl1BrMBnU53XUWJKz4ATlJQuPD+/PNk5ZeARMGtHQLBbKjIYzLJmL8rlbbN/Onb3B1dsQ6TGSjS0y1aydLXBzHk3Q2M+HQ3c1/sRddoF5CY0evkvLUwluMXL+Hj64vJaOSdd95qNBY31cGIESOtspHetXMXmRkZl7iG/nB1CSuAVavXrO5qjargqNGjeP/999Bfpgt3//3j+P2P3/GwIwNvtVrN338vYPjw4QT9J+ZOWno6sbFxZGVlYTQaCQsNZeCAAde0Jtq0eTNvvvkm5b6y+nWM5qN72zKojStCp0ejsuzclO0F4eQsx2CUs+Z0Md+viWXzoTgAmocH8OzIGO7vFUiwtwT0BkrV2ut6GZZJLOqEEoUMpDKEEQ6navl46VFW7rkACMKa+NEtyg2TwVIOJ7mEs1kGdp5IYWzvCOROMgzlG9MSKFUZGNzOle8f781Lv+/klne3MKpzEF5OZk5kmNh/2mJhU1Jcwv79+246opbjLivUegFWrlwJsJXLlbNrQViA9fv27v0gKSmZqKjrGwO0a9uWnr16sWvnTgDefPMtPvvsU7tqaJ1Ox5y58+nTu1eFo7bs7GxOnjxF+qVLuLq6EhkZyfAyo4JrITs7h48+/phffv4ZEHh7efHWPR14bkgTXBRGSlW6fzd4JODkIkdvlLHoYAE/rY9j9wmL2VvXVmE8fVsL7u7mh5c7mLSG646mcikolTKQy9Dr4HyOniNJ+ZxMUXMkPo/dZzPQX+bJv0OkN2HeMvRay/JJopCx/UIBwljKgYs5pGTrifCSotaZkZR9wXUlOl4YHsKm061Zs/c8C3aWXFUOo9Fw05K1adNm9O/fv8p8JSUqNliOvqwyTbKWsEdUKtXZdevWtXn66aeqzHzn/93JwYMHmTLlC16ywgO/TZFVr2fqtN8YPHgQ7du14/DhI1yMjcNg0BMREcHtI0fg7191BPply5bz2muvER9vGR1H927FZ+Pa0C5CjkGtQ11qGVGlEnB2kaEzyll8qJDvVl9k3+kkALrFhPPSqFbc1cUXZ2czhtJrE7WCpDI5RWrBjnMlbDubx7ZTWRw4dwlhvvZexuD2QUhlZsxYvPIJs4ytZyzeKNKy8nnit+OsfK07LgotpQaBBDAJkKDn6WHRrNkXC6LxKj7UBKPHjLHKwGT37t2kpqbkUsVxTnUJawRWrFix3CrCDhkymE8//czuyGoWgl9+mYqvrw9FhUXMnDWboKAg+vbpRaSV/osyMjJ58803mTNnNgBB/j58+lAXJvbzQ2I2oCnRI8qI6lK2Rl13qpjPl59n14kyora2EHVsV19cnEzoSytfn0ol4KyUgkJOsUqw/ayKFYcyWH0oldSscmcFEpqG+dMl2puOUX5EBnuRmqfh22XHySsswdnVne5NPcFoIZxSLiE538j+8/8ai2w8HM+Eac7Mfqo9bk66fw0DjGaLIbxcVjGddsCyl3PfvfdalXfFiuUAmwCrHKNVR71oyc6dO1+Pi4uXVeUDuE3btpw+cxa9Xm9zISuuhZISFe9/8AGFhUWMHnU7rq6uPPTgAzg5We9jeNWq1bz00ksklB3V3DmgDV8+EEPzICk6tQ6jsIxgrs5SkCrZfkHFFyvPsH6/xXVPt5gIXrq9BXd19cO5nKiVKI45yUHmpMBklHIwRcuKw+ks2p1IfJplx9fb052xA2IY0MqHPq39aeEvx9tDafnuCgGuvng4y3jh1+0E+7rRJtipYvoqVUg5nlbKpYwsBnaKZmzPIFYeyWPB1jPkq/RMfbwDTQPkmLR6cFNyKq0Qk9FoF318o9CpU2erDFiKi4vLI8hbHTm7OoQ9rtVqj65atar7//730vUfKpPh7e3NmTNn6dy5k100cnx8PM2bN+Oeu++udiDmgoJC3n7nbab+aon50iTQl48e6MTj/QPAqEOjsgi0q0KCxMmJIwkavlx5nkU7LgImYqICeWVMG8b1CcRVWTlRJRJwUVoU+S/lm1i1J4c52xPZdzodMOHn48nDQ9tUaDWF+MhBKkBvwGAyU6ourVgvu5pNtAy2bAB2bhaAr7u0QncYqYzNJzPx9PBmwYvdCA6S8szQaCYv8Ob7pYfonZDL23e3575eARy5oOK12YdAmB0svQzjxo2r0tEfwNat20hLS7uEldPh6hJWAMuWLFlcJWEBOnXsyI4dO+2GsJ06dbxu0OdrYfv2HTz73HOctYQGZET3Fvw4sT3Ng2Xo1FqMZsuIKHdVkphl4tt1sfy65ixmg5awID9e/r+2TOwXhJe7QK+5mqj/qh8qOJSg4q99qczafJGi4mI8Pdx4ZGhrRndrQr+WXgT7yMFsxKQ3VpyLXqsn5XIJSJR0DHdDKjUhhGXjS6uHvbFFjOwaSLCPFE2eFqUMvnu4OcVqHTPXn+TFaTv5bLE32YVqhOnm3ViqDG5ubtx7331W5V2yZDFYzl5L6oOwAEv379//wfHjx52qil4XEtIEgUXbx57OXquDxMREhg4dUmFp8sDQ9sx9qi0ysw51iR65FNzcFeSppExdlsrXK85QVFyMl6cHL4/rwqRbmhDkI7WoH/5njaqQgcJZgVYvZdXJYn7bmMCa/XGAmZ5twnlyWGdGdvQn2NuiemjUGSlVGa0LJOkkJyGjAISUPq0DsBywWt6ZXGjkVGIe43q1g7KNKp0J5LpS3h/bnFUHEskpKCErr9DBzkowavQYIq1wJp+VlV0+Hf67Os+vLmFjzWbz9gULFg63Jtxkq5bNOX7iBLcF30pjhFqtriBrRBM/vnuoNTKTllK9GTcXOUah4M/9BXyy6DTnky6BTMkTIzrw6uimtGyixKTVV0yXK7gkA5mLkgIVLNmWzW8b4zhyIR2Qc1e/ZjxzW3MGtvRAJjdj1BrQqKteP0olliSXSZA6yyhUyflp7Xn8fN1oHqDEbLQQVqqQciZDi1Gv5UJ6IcjDkJRpymkNgggfCaHeMnIKHMS8FiZMGG9Vvn/++YeCgoJzwK76JCzA/EWLFw1///33qvSx2q5dO/76e4FdbT5VByEhIQQFB5OVmUlYgAeBvk5gNuOidGL3BTUfLjnB5sOWDaj/6xfDm3e2oEdTF9DrrjKRc5KDzFlBdiHM357Fr+suEJ+aBSgYP7w9LwyPpkuUM5iN6LQ6rueYQSoBpUyCVCGzzHPNcoo1enKKTBxLK+bbfy5wKj6LPu0jCfWWoy/XipDKOZ2mBpOOxXsSefH2lrQPl6NVG3F2lpJWJOFSkWO9ej15HzxokFV5582fB7CQKnSH64KwaxMTEjI3bNgY/H//d33FZicnJwL8/Tl27Hit3b7YInx9fRk8aBB///03B86kMen303Ro6sf246msOJCKUVdKy4ggPn+oA2O7+ILQU6q6UjOpfETNKRLM2ZLJL+sukJSeA1IF44e15/kR0XSNcgajgVK17ppTXoUMFAopyBXo9ZCYb+B0WjEH4/I5kVxEbIaKSzkFqDR6ym1tu7ZsglJmRqO3bGphEhyNzwckFKt03P75Hv7+Xy/6NncmrRCenn6C7PziRtePdYUJjz5q1cB05OhR9u7ZpwUWVPcdNQ2O+vOYMXc8+88/K6rMmJOTw7r1V/oFbkw4fOQIvXr2uszF6L/o0iqUFa/1JtwPtCrDFd4hlDKQuyjILoI5u7P4ee15Ui7lABIeHtaWl0Y2o0ukk4WoOnOlRFVIQeFkUZbILTZzNKmEHefy2Xoqk2OJ+eiu2MGS8V/3pb89P5AnBwWgURuQS6FUONHng/3c3yuI7q0CuWfKDkxmE+3D3UnJN5CZW+hg5TXg5+fPmTNnCAoKrDLviy++xI8//rAOGFnd99TUzcOc9Rs3PB0bGyetyoInICAAJycn4uLjqco3lD2iW9euvPbaa1f5T5bKZHz5cAfC/QSaYmPFp1EmBScXBYVqKTPWZvDrugskpFk8II7q3YLJo1swoJU7mCofUaUScFZIQSmnsESw92QJq49lse5oumVkBkBCVBMfBg9sQfcoN2Ii/VDKpRyMy+PTRSfJyS/Cw8uHdhE+UGYKqZBJOJ6iIqxJIJNHRuLsJWHh5P6M+WQzBy/eHLartcG4ceOsImthYRFLly4BmFGT99SUsIf0Wu3e+fP/7Pfhh+9Xmblz504cOHCwURIW4OOPPiI5OZm//vqz4ppSJqF9sAIMZiRSi28khbMck0nGH9tz+G7VBc4lWrwV9u/cjFdHt2B0By8kGCjVXE1Ui1GADMxyjqZpWbQvjYW7EkjKKFOQkcgZ2CmK4Z1DGdjai7ahbni5SgAzlCk29G4Xhkwi4fmpO3FTQpSvFGPZpplEJiE+R4unXGfRnirR0qeFF37enmTn2ncQ5fqGXKFg0qRJVuX9559/SE9PTwTW3kjCAkyfPXtWv9dee7VKncmWLVqwf98BsrOzCQwMpLFBJpcxd+4cPD09mTZtKgBag5mpO3J5eWQ47kojBVope08U88PaeDYftugXhwb58eEDnXmktx8KmQFtaSVO1cqsd7QGKSuPFfHb5kTW7k8ATCBVcEunKEZ3C+XW9n7ENHFGJjeDsczDv/rKaMCuxaV0beYLSGgTHYy/mwxTmUoiEgnxeSZLDFYZoHBh6opUcvILHYysAiNuG0G7dm2tI8306QDzgdIbTdhlKSnJn6xatTrs/vurPiju2KkDhw4d5vbbR9IYIZPJmDr1V3r26sV7775DamoqH8zby5wt/gS4CXI1UhLS8ylfR47s1ZKpj7UnIkCCXq1F859d33KjAL1RzqKD+Xy18gKHz6Va2rJ5CPf2i2JkR386hDojVVg0mrT66+8eAxjKzlyjfaQonSSUGiq+Opy4kEpBqcAod+Wb5XG8NfugQ6m/CkgkEl5+5RWr8u7Zu4/du3dpgFk1fV9tCFsCzJ82beob1hC2fbt2HDt6nOLi4jp3YmZLmDD+EYYOGczXX3/DrNmzSLyUS+J/P14twljzRg9Ag7bEgLlsgVtuD1uu2bTyeCGfLj3HwbMpODm78NiIDtxTHobDBUsYDr0Os7W+t50UHI1LB6BLy2Ao844ok4DRIMWo9OLAsfP0mryVI+dTHGy0AgMGDOSWgQOsyjv9jz8AVsNVImH9B6KW5W0KnNqxc6frACts/w4fPkJuXh63DW+cihT/RWpqKosWL+bzzz67InhyeJAPb97VnkFtfGkV5IREbrIo5UvkFKtN7I9XM3VTIiv2xAOC1+/pxDNDI4gIkIPJiF5nwmi2rmPLLYOcXWXkqBT0enMLCekFbP1sBIOaK9DozLgoJKgNEjq8vovES7kOFlYDa9asZeTIqt2YJqck075de0pKSgYCO2v6vto6A04A/pk2bdo4awjboUN7Zs6aQ0mJCg+PhvU+cerUaYQQ9epfKjw8HA93D0pLr1yupGYV8MyvO3F3d6dPTBB9Wwcgk0o4l5zL8VQ1Z+KzKT9P/+6pQbx0fySUlIJRgEyO0lXOFad9EgHiP9/eyxavJiPsiSvl9fnHSEjPxc/Xl0gfGSjAVa5AmGTsvqgmp0jjYGA10KNHT267zTqn9dOm/UZJScm+2pAVaj/CAvR2dnbefeLESWnLli2qzLxr9x5KSkrq1Tu/Nbh0KYNHxo+ndatWvPjii1aFsq8OTCYTL730P37++adaPadrq1C6tW6CQirBVWFxnlbuHkkgQSk14yY3UmRQVFyXSKBYBwYzGEyCk/HZHLyYg1Fv+XD06dSKlZO7E59ZzM7zRaw5msmB8xloNSqEw/LGaixevJS77x5bZb6CgkLatGlDZmbGOGqgLFEf2PLCiy8Ka6DX68XUab+L4uJi0dA4ceKEcHFxEXKFQvzf/90ppk6dKo4cOSIyM7NEUVGxKCwsFPHx8WLbtm3in39Win/+WSk2btwoTpw4IXJzc6/53MLCInHH/90psIxzNpdCg/xEx1YRwtnVw2bLaOupW7fuwmg0WiVnP/70swDOA062QFaAkT4+PiI1NdWqCuzes1ds2LipwQkrhBCHDx0WPj4+V3RGcHATER3dVERFRQkPj6uFWiKRiLCwMNG9e3cxefJksWnTZqHT6YQQQiSnpIhevXo3SiENCwsXY8bcIUJDQ4VMLreJMrm5uYnbR40Wjz3+hJDJZDfsvatWrbZKvkpLS0WrVq0FYFNBbyXA4dffeMOqShiNRjFz1hxRWFhkG6Q9fFjExMTUqgM7duwo3n//A9GqVatGO6oEBweLtLR0oVKpxeEjR8WCBQvEhx9+JCY8OlH06tVLtGjZUgQHNxHOzs6V3u/k5FSjj0Tr1jEiIiJStG4dI3r06CEefOhh8d7774ulS5eK9EuXRGmpVtx224gb1g79+/cXZrN1sjVjxkwBpAMetjalvycoOFjk5ORaR5IjR8Sy5StsgrBCCJGbmydefvkVERgQWGknSaUyIZFIhUKhEK6ursLFxZLc3d2Ft7f3DREUJycnoVQq6+RZLi4uok3btuLFl14SgwYNtvq+IUOGXLMN1RqNyMzMEufPnxf79+8XGzZsFGvXrhM7du4UGzZuEg8+9JCQSqXVKmfPXr3FwUOHhclUOUOysrPFkCFDbuiHa9OmzVbJlMFgEO3bdxDAm3U5MtYVZMDBTz75tMvbb79VZWYhBDNmzGL06Nuv8vvbkLiUfokjR4+gUqnw9/fHbDbj7u6BUqnEZDLj4uKMm5sbQghkMhnOzs58/fXX/Pjjj5UaAFyz4SUSevfujUKhIDs7B4VCcUWEwJCQULx9vPHw8MTfz4+WLVvg6urO448/RnZ2VrXr1apVK958801kMhmhYeG0btWKoKBA5s2bz+TJr5KTY72+8AMPPMjvv/9mlVdAgK3btvHlF1+yefOmGoWVDA0N5cWX/sfYsXcSHhaORCoh41IGK1eu5MuvviQ15cadGY8YMZK1a9dYlXfBwkWMu/++TKAtkG9rIyzAPcHBwSInJ8eqL9DZs+fEvPl/2swoWxO8+957NRr1JBKJeGT8eJGdbV1bGQxGMWLEyBqPCq6uruKDDz4UObm5wmg0isOHD4uHHnq4xs/r2rWrWLZsuSgtLb2qrHq9Xpw6fVp88823olu37nU2sjk7u4iWrVqJmDZthI+P7w1fEsjlcnHk6FGrR9dOnTsL4C1bJOrlo+zRjz/+xGqBnz//LxEbF293RNXqdGL8+PG1FoLw8Ajx8y+/iPz8/Gu+a82aNSImpk0dCb2z8PWtO2Fv3TpG3HPvfWLSpEli0qRJ4p577hUdO3YSyhqsV209PfnkJKvlY+68+QLIAPxsmbAA9/r4+Ii09DSrKpaRkSl+/2O6MFm7ircS586dEyUlqnoha0ZGhhgyZGidCkNISKiYMOFR8fPPv4h169aLZcuWi88+/1wMHDjQcYxiA8nX11ekplon01qtVrRu3VoAb9s6WctH2YOTJ79mNQGWLV8h9u3bX6ekmj59umjZspX44IMPxMaNG0VyUrLQaEorzVtSUiISExPFwYMHxfbt28XWrVvF/v37xcWLF0V+fsEVeU+eOlVno50j2U/67PMpVsveH39MF0Aq4GMPhAUY6eHhKRKTkqyqoEqlEtOm/S7UanWdEbawsEhERUVVNLiPt49o2bKV6Natmxg5cqR4dMKj4r777hM9evQQzZo1E15eXpWu+yIiIsWQIUPFypUrxbZt20WTkBC7ErTQ0DChUCgcpKtFiolpIzQajVVyV1KiEtHRTQXwfIOzsJrY8uSkp6wm2J49e8WyZXV7zHP82HERGRlZZx13Iw/mazd98xMDb7lF/PDDT+Le++6/ZrkVCoVo1669CAgMdBDzOml5NY4fp0z5QmDRanKpD1JJqD/0liuVuw7sPyDrYqUz8Vmz5zJ48C1ERkTUWSFSUlL5/LPPWLBwIYWFBVbdI5XKAIFCoUChUKBSqWgouLt70KdvX/LychFmgbu7u+WIyWzG1dUFN1c3PD09iIyMIjQsjIjwcNq1a0dQUCDvv/8BH3304TWfrVAoGD/+UV555WW0Oi3x8fHk5eWjUavJyc0hL9diuSORSHBycuKvv/6q1vFPVfDz92fEbSPo0KEDlzIusX37do4fO2ZTo869997LwoULrcp76dIl2rVvT0F+/kPAn/ZGWIC/RowYOc7ac6uU1FQ2btjEY49NtHjxq0OkpKSwZ89eEhISMJlMKBQKfHy8kZS9KCgoCDdXN+QKOe7uHigUCnQ6Pa+++gq7d++ioeDk5MzcefO49567MZlMyGSyKu/R6w08/vjjzJs316p3DBo0mG+//Ybr+ZpeuXIVDzwwDrVaXes6yWVynpz0JJ9++hne3l5X/Pbnn3/xv/+9VKcfhprCy8uLI0eOVoQcrQovvPAiP/30436gD5bR2e7QAlCtXrPG6inF6jVrxbZt2xv82MZgMIj77x9nE1MyL29vsdFK3esdO3aKzp271Gi6/8ADD4qNmzZVHDGZTGYRFx8v3n77HSGRSOusPvfee584dvyE2LZtu5g+fYb4+utvxEcffSymTPlC/Pbb72LYrbfaRLt/9933VsvLyZOnhLOziwAG2Topq8Jn7dq3F6WlWuu2xHU68dvvf4i83LwGI2t8QoLo06evTa2jXF3dxJQpX1xzY+7c+fPimWefFXJ57TeYgoODRb9+/UWPHj0rNX6oiw9QXZSzPlOfPn2F3mCwWmZGjLxdUI0odLYMbyDpq6+/trry586dF7Nnz20Qsu7Zs1dERUfb9I7ly6+8KqZNmyamTZsmPvr4E3H7qFHC1dXVsUFUVxpVTs5WazQJIcTy5SsEUAw0GregD/r4+Fh9zCOEEEuWLhd79uy7oWT9Z+WqSo93HOnmStXR1FOp1KJ16xgBvN9YyFqOzQ8++JDVDVFaWip++XWayL1BU+Nfp04VMplt2Hg6UsOlnj17CYPBaLXcvP/+B+XHOO4NTbC6RidAu2HDBqsb48KFi2LmrNn1TtbJk19zCKsjCWdnZ3Hs2HGr5ebMmTPlS5ExjY2s5fi8TZu2lVp4XAsrVqwUO3bsrBeiqtVqMX78BIewOpIAxJdffWW17JjNQtw2YoQAFjdWsgK4ARfffvsdqxvGYDCKn37+VaSkpNQpWdPTL4khQ4c6BNWRBCBGjBhZLQOU2bPnCKAAiGrMhAW4zdnZRRw9dsx6cl26JKZO/U1otdo6IeuZM2cdCvyOVJECAgNFcnKy1fKTlp4ugoKCBfBsYydrOWb37t1H6PXWn3Pt3LlLLFmyrNZk3bZtuwgJCXUIqiNVpGXLqidXDzzwoAC2A9KbhbABQNqnn31erYaa/+dfYt/+mpvhzZg5Szg5OTuE1JEq0iuvvFotGVq8eIkA1ECbhiCOhIbD3c7Ozov37dtPp04drbqhtLSU2bPncscdowkJCanWy7744kveeON1m/pqjRo1mtYxMRgMhuvmk0qlqNVqZs2cUWXeuoC/fwCPPDIeszAjyr2TXwPOzs7s2rmTvXv32N2o0adPH7Zt22ZV1HSAzKwsunXrRnpa2mTga7urcB1gXu8+1ZsaJyUli59+/lXodHqr8uv0evHss8/Z5Nf97rvvsbrem7dsrbbHwZomLy8vkZKSanXZunbtZpfr1oSEhGqNrvfce58AdtCwA12DwhdIfOedd6vVcAcPHhbz//yrynyFhYVi9OgxNi04v/461ao632jd5gceeNCqcr300v/sjqwSiUQsX/FPtWRuzpy5AigCYm5WspbjNoVCKbZv31GtBvx7wcLr+oeNj0+wCw/8UqlU/P7H9OvW9e2336nRs+UKhXBzcxNu7u7XdO59vTRnzrX1uc1CiPcsWj52lz6r5t7JxdjYct/Tk2yQPw2Cb1u2bHmV/6TrwWw2ixkzZ4vTp89c9dvevftE5GXuYewh3X3PPeKvvxeINWvWVny89u7dJyZMeNTqZyiUSjFo0GAxZcoXYsfOnSIuPkEkJ6eIi7FxIiU1TRw7dlzMnj1HPPzIeNGkSdWubuRyuXj55VdFfLzFq+WatevEmrXrxPQZM8QtgwbZJVnvvfe+apHVaDSJW24ZJIAVDpr+Cyfg0APV0DUun/L+8OPPIisrq+La8uUrhKennSvwSyTiwoWL4q+//7Yqv7u7u3h18mSRnGxRLomLixfz5/8p3n3vffHkk5PE+PETxP9efkX89NPPYt/+A6JUqxVqtUbMmz9fdOzYqcrnnzp1Svy9YIHd7wh3795DFBeXVEvGynSF0wDb8XZvI2gHFE+fPqNaDZqamiZ+++13UVRULH759dc6C2XR0On+++8XQggR06ZNlRtXyckpQq83iN9++1306NGzSiOGsLBw8fzzL4j4eMumy/ff/yDc3d2vUY5xQggh2rRpa9ft2aRJExEbG1ct2dq8eUv5Rt9tNsUUG8Jjnp5e4viJE9Vq2AsXLoq77763UZ0PSqVScTE2VixYsLDS35VKJ/HLL79azqfn/ymimzat9jucnJzEU089LVQqtTh//rxo1779VZszFy5cEKtWr7brtnRzcxc7du6qlkylp18qd+D3qYOW18fMjp06VXvqsnbtunIXHY0mTXj0USGEEK0sTqkvmwJ7iC1btwqT2SzGjau9G5vmzZuLnTt3Ca1OJ4YOHVZxffTo0UIIUR5ywm7TvHnzRHUx8vbbBbAVkDsoeX24AkfGj59Q7UZeuHCRkEgkjYawTs7OIi0tXcyzhH0QgHBxdRW7du8WxcXFokePnnX2LplcLhYtWiyEEGLESEsMn+MnToiNGzfadRtWV5tOCCHeffc9gSVEZLiDjtahHZD/zbffVruxv/76m0Y1yj7xxJNCCCEiIy273nPmzhNmsxDdu/es83dJJFKxevVq8fobb4iePXtazn/72pZvq+qkF198qdrys3LlqvJ163AHDauHexVKpdi8eUu1G/0dyxeyUSSlk5PIyc4R3373nRg79i4hhBC3jxpV7+/dsWOn2LZ9u92220MPPVxtuTl95kx5VLzJDvrVDJ8GBgaJhMTEajf+U08/02hI+8KLL4pt23aIwsJC8d1339f7+/r27SeEEGLwEPu0Fx4+/Dah1eqqJS9FRcXlKpZ/2o742yeW9+7TVxSXlFSbtA8++FCjIe3KlatFSkqKkMvr3+/UunXrxdGjx+yynfr3HyDyCwqqLStj77pLAIewOFlwoBbwAk7de9/91e4ErVYr7r77Hrsna0REpFCp1WLW7LnC29unXt/VqVPnsmn3aLtrp44dO4mcnNyabjJdAlo66FY3aAnkvP/+B9XuDIPBIEZanDzbbfriiy9FSkqqOHDgkPjyq6/q9V3//LNSXIy9aDeBvyo+NJ27iLS09GrLxx/TZwhACwxx0KxuMRTQ/1FNTSghhCgoKBD9+vWzS7IqFAqRlpYu3n3vffHKK68KlUpVL974ARETEyOEEOL++++3u5E1Lf1SteViy5at5Q4NJjroVT94TC5XiA0bN1a7c/ILCsSAAQPsjrA9e/USQgjRoWNH4eLiIjSaUvH222/Xy7sWLFgoEhITb5jdbZ2QtVNnqyOjX44zZ86I4OAmAvjYQav6xQf+/v7ixImT1Sdtfr4YPvw2uyLsO++8K9LS0yt0pL/7/ntRXFJS5xEKoqOjhRBCPP74E/Y1stZgGpySkipatGwlgNkOOt0YTIuOjq5QXq8O9Hq9uMuyI2gX6Z+Vq8Tadesr/h8SEiqMJpN4dfLkOn3P9OkzRFpaunBycrKTNWvNRtaCggLRs2cvAWzAoXZ4wyAHlrdr30FkZWXXaPf4vvvsY5126vRpMWXKlCuu/fDjTyIrK1u4uNSN7nSrVq2FEEJMmjTJLtqkT5++V5hUVmcDcpRl9/sQltMHB24g3ICtAwcOFAUFhdXuPLPZLCZNesqmBdPNzU1kZWeLJ5548orr4RERQgghnn/+hRo919nFRbi7uwtXV1fh6uoqnnrqGbFx02bh7+8vPD09hZubm82GgxwxcmRF/NrqoizKwwUgxA7ku1HCBzg+avToagUwuhy2HFcnKChY5OTmiXstzr+uSDNnzhJZ2dk1slB65pnnxKWMDBEbGydiY+NEfEKCOHX6jLhw8aJYtnyF2Lxlm3jsMdtby44b94DQ6XQ16uennnpaAKk4fDI1OEKB0/fdd7/Q1rAzP/3sM5skbFh4uEhMShG33Taikk2ipkIIIR59dGK1n9uyZatrzkqee+4FcebsOfHmW2/bVFs8+9zzoqZ41fJRzgF6OOhiG2gFJIyfMKHGnTpr1myb23Dx9/cXefmF4sGHKlexnDt3nkhKShYKRfW9bHTo0FGsWrValKhUFW1w9tw54eLqKs5fuCgmv/a6zbTDezVQmCnHG2++JYB8oLeDJraFGCDxqaefrnHnbty4Sfj5+9uMoDo7O4uMzEzx3HPPXUPRoY0QQlTLUdvlaeJjj4uNmzaLxx5/Qnzy6Wdi2LBbBSASEhJtgrAuLi5ixoyZNe7P1994QwAqHKZyNos2QOJTT9WctEePHRft2rWzGdIePnxYTJ067Zq/L1m6VFy8GCugeob7rq6uoqCgUPz669QrNauUSpsgbEBgoFhfjVjC1xhZNcAoBy1sn7RJtRlpMzMzK103NkSa/+efYteu3df8vVydcOzY6p0tv/jSS8JoMouQkBCbI2yHDh2r7derErKqgNsddLCjkXb8hEeF0Viz3WOtVieetgGb2kmTJomi4mLh6el5zTxr164TZ86cERKJdSqFbm5uIicnR/zxx/Srfmtowo654/9qZHFTjrfeekcApY6R1T5Jmzxu3APCYDDUWAB++OEnIVc03Jlky5YthRCiYn1ZWerRo4cQQlitdlnudiY6uqlNEfa1114XJpO5xn1VthucC9zqEH/7RCvg1B13/J8oLCqqsSCsX79BREVFNxhpT546JebP/+u6eTZu2iT27dtX5bMUCqVITk4Rs+fMqfz3BiCsu7v7dcOCWINnnnm2nKz9HGJv3wgDjg4aNFhkZmbVWCASE5OuO8rVZ3ruueeFXm8QgUFB18zTv/8AIYQQgwcPue6zJkywuE5t3TrGJgjbrn17cejw4Rr3i95gEI+MHy+AFKCnQ9wbBwKBXZ06dxbxCQk1Fg6DwSBeefXVG05YHx9foVZrqjReP3DgoNizZ++180gk4vz5C2LRosXXHoFvIGEfePAhkZubV+P+KCwqEmPuuKNc3bCtQ8wbF9yBFS1atKiRad7lWLJkmQgKDr6hpH3rrbeFEP+6O60sDRt2qxBCiN69+1T6+9ixY4UQQrT/j4f/ygj7aj2qbLq6uolvv/2uVn2QlpYu+vbtJ7Ao8kc4xLtxQgnMCA5uct1QldYgNjbuCi/59Z1cXFxEQkKC2Lhx03XzHTlyVGzZsrXS306cOCk2VHE/ZYoTZUcjdZ46d+4i9uzZW6u2P3PmjGgdEyOA9VhiDDvQyPGpk5OTmDV7Tq0Ex2AwiPff/0BIpTfG/1G5+9G3ruNxYsyYO4QQotzmsyINHTpUCCFEjx49rr8r3aq10Gp14pNP616/+sknJ4miouJatfnmzVtEaGioAOYACoco3zx4FjBOmfKFqC22bt12VSCp+kovvfQ/IYQQjzwy/pp5Tp06Lf75Z2X11rcgQkJDxfkLFy7fda2TFBYWJub/+Wet23nWrDnC1dVVAFMc4ntzYjSQ8+ijE4VGU1orYSosLKpTIb9eKl//Pfnkk5X+fuedlrVqh44dLTvIAyw7yEOGXtsxeNOmzURsXJy4dClDXMrIEC++9L86KevYsXeJxKSkWpP1408+FYAeeMYhtjc3OgGnhw4dJtLS0motWMuWLxfNmzevd9J+8smnQgghfv75F+Hm5nbFb3K5XCQkJIilS5cKQGzevEUcOHDgOtpFd4jCwiJx6NBhEd20qTh95lytd4n9/QPEb7/9Xuv21Gg04sGHHhZAJjDSIa4OAAQD61q2bFXtOKKVITc375qjX12mBx98SJSoVCIhIVHcfc+VDtPvu/9+YTAYxdPPPCuEEGLk7VfH42nbtp34s2yqOmfOnHKXnyIhMalWhB079i5xMTa21u14MTZW9OvXXwDHsQRIc8CBCiiAn9zc3cWsWbNFXWDlylX1vraNio4Wy5evEEIIcer0aTF58msixrKDKnbt2i2EEGLTps0V+QMDA8Xtt48SM2fOEoWFReLU6dNXOVqPj0+oEWFDQkJFTfxGV4ZNmzaJJk2aCGAZ4OcQTweuhUmA5sWXXhJarbbWgldcXCxef/0N4ezsXK/E7d27j5g//0+Rl58v9HqDOHfunFiyZJkwGo1i9py5Yumy5eLYsWNXrdXXrtsg5sydJ5YuWy6WL18h/lm5SgghxOtvvFmt9z86cWKNvBhWhi++/FIoLPrbDp/B/4HE0QSVYiDwx8CBt7SYOXMmTZtG1/qBBw8d4t133mXjxg31WnAvb2969+5Nn9690Wi0+Af4U1JSQufOnTGZTOj1evQ6HWYhkEgkuLq6olBceTqiVquZM2cOm6woa5cuXfnwo48YdXvtl5dFRUW89L//MXvWrDzgOWCBQxQdsBbBwIqIiAixbPlyUVeYOXOWaNq02Q1TuKivGDl+fv7i8ylThFqtrpN2OXjwkOjYqZMADuJYrzpQC7wDGN95971ameldjqysLPHyy68I5zryK3wjk0QiEQ899LA4f/5CnX3Epk6bVm7v+xsWFVIHHKgVbgMShgwdKi5cqDtBPXL0qLjrrrvthqz9+vcXmzZvrrP6Z2fniHHjHhBAAfCoQ8wcqEuEASsCAwPF338vEHWJNWvWit59+tgsUWNi2tTZznk5tmzdJlpa4tvsBTo4xMuB+sLLgPrxxx8X2dk5dSbABqNRzJo1u3wdZxMpIiJCfPPNt6K4uLjO6qnXW/SvyyILfA04O0TKgfpGd2Bf69atxfoNG+t05FGr1eLHn34WLVq0bDCi+vsHiLfeeltkZmbWad2OHTsu+vfvL4B4YIxDjBy4kXDGMkKYXi4LtFyXKCoqFr/88muFEsQNIWqAhag1CeF4PZjNZvHtt9+VbyzNAYIc4uNAQ2EocKxz5y5iy9atoq5RVFQsfvjhx/L1Xr2k4OAm4vU33hCJiUl1Xv4TJ0+KW4cPF0AGMN4hLg7YAtyAr2QymXjpfy/XOLradYlbXCz++OMP0a1b9zojaqtWrcUXX35ZK19X11urfvHFl8LDw1MAC3F4hXDABjEUONa6dUyFfm9dw2g0iuXLV4iRI28XEomkRkTt0aOn+P33P0RRHW4mXY49e/eWu29JAR5wiIUDtgwX4CNAM27cAzWKEm8t9u7dJ5544kkREBBYJUmdXVzEXXfdLdasXSuMRlO9lCc3L09Mfu11obQEFfsNx1rVATtCZ2BjUFCw+OHHH4VOp6834qamponvvvv+KrcwlE1733n3XXH6zBlRn/h7wYLydfYxHHarDtgxJgKJvXv3EZs3b6lX0pjMZrFz1y7xzDPPikceGS9Wrlwl1GpNvb7z+PHjYtSo0QIoAt4CXB1d7oC9Ixj4EdBNmPCouHgxVtg7cvPyxGuvvS5cLPrQi3D4BXagEaIPsMHL21t8+NHH14yCbsswGI1i6rRpIioqqtwnsCPolAONHuOA061atRYzZswUer3BLsi6ctVq0bNXLwFcAv6Hxc+zAw7cFHArE/q0nj17iX/+WWmzRN29e48YNXqMAIqxuBgNdHSfAzcrwoAvgcLhw2+rU/O12uLosePinnvuFYABmIklhKcDDjgANAemAtrRo8eILVu3NRxRjx4Vjz46UTg7V2woOaLCOeDANdAZmAFobr99VL0fBV2O4ydOiEcnThROFsWHVcBgR3c44IB16IhlGqodM2aMWLdufb0Rdc+eveLhhx8pP6JZi0XF0gHtI5pZAAAA6ElEQVQHHKgBOgE/A4UDB94i5s2bXyeOz8xmS2T50ZbNJC0WBf0+juZ2wIG6QTTwCZAaE9NGfP3NNzWyWy0sKhLTZ8wUfSzK+UVYdH47O5rXAQfqB0FYjoNOBgUHi+eef14cOnS4SqKeP39BvPfe++WeLBKBT4EWjuZ0wIEbAydgLLBaLpfrbxk0WMyaPecK21aVSiWWLlsu7rvvfuHm5i6AHVh0m70czWefcHj+bxzoBNwH3B3cpEnzMWPG4O3tzfLly4m9ePES8A/wJ7DH0VQOwjpgO1Bg2Th6EPAE5gM7sWgoOdAI8P82pN45iI/zAAAAABJ0RVh0RVhJRjpPcmllbnRhdGlvbgAxhFjs7wAAAABJRU5ErkJggg==" vertex="1" parent="1">
          <mxGeometry x="850" y="-410" width="118" height="150" as="geometry" />
        </mxCell>
      </root>
    </mxGraphModel>
  </diagram>
</mxfile>
